<svg width="77" height="41" viewBox="0 0 77 41" fill="none" xmlns="http://www.w3.org/2000/svg">
<path d="M62.128 40.8633C53.9145 40.8633 47.2561 34.2049 47.2561 25.9913C47.2561 17.7778 53.9145 11.1194 62.128 11.1194C70.3416 11.1194 77 17.7778 77 25.9913C77 34.2049 70.3416 40.8633 62.128 40.8633Z" fill="white"/>
<path d="M14.8722 40.8633C6.65862 40.8633 0.000213623 34.2049 0.000213623 25.9913C0.000213623 17.7778 6.65862 11.1194 14.8722 11.1194C23.0857 11.1194 29.7441 17.7778 29.7441 25.9913C29.7441 34.2049 23.0857 40.8633 14.8722 40.8633Z" fill="white"/>
<path d="M33.7735 40.8632C22.4895 40.8632 13.3419 31.7156 13.3419 20.4316C13.3419 9.14753 22.4895 0 33.7735 0C45.0576 0 54.2051 9.14753 54.2051 20.4316C54.2051 31.7156 45.0576 40.8632 33.7735 40.8632Z" fill="white"/>
<path d="M15.0096 26.9644H62.8223V40.8634H15.0096V26.9644Z" fill="white"/>
</svg>
