<svg width="277" height="147" viewBox="0 0 277 147" fill="none" xmlns="http://www.w3.org/2000/svg">
<path d="M53.5 147C83.0472 147 107 123.047 107 93.5C107 63.9528 83.0472 40 53.5 40C23.9528 40 0 63.9528 0 93.5C0 123.047 23.9528 147 53.5 147Z" fill="white"/>
<path d="M223.5 147C253.047 147 277 123.047 277 93.5C277 63.9528 253.047 40 223.5 40C193.953 40 170 63.9528 170 93.5C170 123.047 193.953 147 223.5 147Z" fill="white"/>
<path d="M155.5 147C196.093 147 229 114.093 229 73.5C229 32.9071 196.093 0 155.5 0C114.907 0 82 32.9071 82 73.5C82 114.093 114.907 147 155.5 147Z" fill="white"/>
<path d="M223 97H51V147H223V97Z" fill="white"/>
</svg>
