<svg width="75" height="42" viewBox="0 0 75 42" fill="none" xmlns="http://www.w3.org/2000/svg">
<path d="M11.1372 41.4473C17.2881 41.4473 22.2744 36.461 22.2744 30.3101C22.2744 24.1592 17.2881 19.1729 11.1372 19.1729C4.9863 19.1729 0 24.1592 0 30.3101C0 36.461 4.9863 41.4473 11.1372 41.4473Z" fill="white"/>
<path d="M56.673 41.4473C66.7948 41.4473 75.0001 33.242 75.0001 23.1203C75.0001 12.9985 66.7948 4.79321 56.673 4.79321C46.5513 4.79321 38.3459 12.9985 38.3459 23.1203C38.3459 33.242 46.5513 41.4473 56.673 41.4473Z" fill="white"/>
<path d="M35.9493 41.4474C47.3946 41.4474 56.673 32.1691 56.673 20.7237C56.673 9.27831 47.3946 0 35.9493 0C24.5039 0 15.2256 9.27831 15.2256 20.7237C15.2256 32.1691 24.5039 41.4474 35.9493 41.4474Z" fill="white"/>
<path d="M54.9811 27.3496H11.5601V41.4474H54.9811V27.3496Z" fill="white"/>
</svg>
