<svg width="45" height="18" viewBox="0 0 45 18" fill="none" xmlns="http://www.w3.org/2000/svg">
<g opacity="0.5">
<path d="M21.214 8.67578V13.8795H19.5354V1.01013H23.8998C24.9629 1.01013 25.9701 1.40181 26.7534 2.1292C27.5368 2.80065 27.9284 3.80781 27.9284 4.87093C27.9284 5.93405 27.5368 6.88526 26.7534 7.61266C25.9701 8.34006 25.0189 8.73173 23.8998 8.73173L21.214 8.67578ZM21.214 2.57683V7.05312H24.0117C24.6272 7.05312 25.2427 6.82931 25.6343 6.38168C26.5296 5.54238 26.5296 4.14354 25.6903 3.30423L25.6343 3.24828C25.1867 2.80065 24.6272 2.52088 24.0117 2.57683H21.214Z" fill="#FB00B1"/>
<path d="M31.7893 4.81506C33.0202 4.81506 33.9715 5.15079 34.6989 5.82223C35.4263 6.49367 35.762 7.38893 35.762 8.508V13.8796H34.1953V12.6486H34.1393C33.4679 13.6557 32.5167 14.1593 31.3976 14.1593C30.4464 14.1593 29.6071 13.8796 28.9356 13.32C28.3201 12.7605 27.9285 11.9771 27.9285 11.1378C27.9285 10.2426 28.2642 9.51517 28.9356 8.95563C29.6071 8.3961 30.5583 8.17228 31.6774 8.17228C32.6845 8.17228 33.4679 8.34014 34.0834 8.73182V8.34014C34.0834 7.78061 33.8596 7.22107 33.4119 6.88535C32.9643 6.49367 32.4048 6.26986 31.7893 6.26986C30.8381 6.26986 30.1107 6.66153 29.6071 7.44488L28.1523 6.54963C29.0475 5.3746 30.2226 4.81506 31.7893 4.81506ZM29.663 11.1938C29.663 11.6414 29.8868 12.0331 30.2226 12.2569C30.6142 12.5367 31.0619 12.7045 31.5095 12.7045C32.1809 12.7045 32.8524 12.4248 33.356 11.9212C33.9155 11.4176 34.1953 10.8021 34.1953 10.1307C33.6917 9.73898 32.9643 9.51517 32.0131 9.51517C31.3416 9.51517 30.7821 9.68303 30.3345 10.0188C29.8868 10.2985 29.663 10.6902 29.663 11.1938Z" fill="#FB00B1"/>
<path d="M44.8265 5.09485L39.2871 17.7963H37.6084L39.6787 13.376L36.0417 5.1508H37.8323L40.4621 11.4736H40.518L43.0919 5.1508H44.8265V5.09485Z" fill="#FB00B1"/>
<path d="M14.5555 7.55677C14.5555 7.05319 14.4995 6.5496 14.4435 6.04602H7.44934V8.89966H11.422C11.2542 9.79491 10.7506 10.6342 9.96725 11.1378V12.9843H12.3733C13.7721 11.6973 14.5555 9.79491 14.5555 7.55677Z" fill="#FB00B1"/>
<path d="M7.44933 14.7749C9.46366 14.7749 11.1423 14.1034 12.3732 12.9844L9.96724 11.1379C9.2958 11.5855 8.45649 11.8653 7.44933 11.8653C5.54691 11.8653 3.8683 10.5784 3.30876 8.78784H0.846802V10.6903C2.13374 13.2082 4.65165 14.7749 7.44933 14.7749Z" fill="#FB00B1"/>
<path d="M3.30886 8.7878C2.97314 7.89254 2.97314 6.88537 3.30886 5.93416V4.03174H0.8469C-0.216219 6.10202 -0.216219 8.56398 0.8469 10.6902L3.30886 8.7878Z" fill="#FB00B1"/>
<path d="M7.44941 2.9126C8.51252 2.9126 9.51969 3.30427 10.303 4.03167L12.4293 1.90543C11.0864 0.674454 9.29588 -0.0529432 7.50536 0.00301038C4.70768 0.00301038 2.13381 1.56971 0.902832 4.08763L3.36479 5.99005C3.86837 4.19953 5.54698 2.9126 7.44941 2.9126Z" fill="#FB00B1"/>
</g>
</svg>
