<svg width="24" height="15" viewBox="0 0 24 15" fill="none" xmlns="http://www.w3.org/2000/svg">
<g opacity="0.5">
<path d="M9.23217 7.89766C9.23121 6.83324 9.47246 5.78254 9.93765 4.82515C10.4028 3.86776 11.0798 3.02878 11.9172 2.37172C10.8803 1.55677 9.63512 1.04998 8.32385 0.909267C7.01259 0.768554 5.68818 0.999598 4.50202 1.576C3.31585 2.15239 2.31579 3.05088 1.61612 4.16878C0.916451 5.28667 0.54541 6.57887 0.54541 7.89766C0.54541 9.21646 0.916451 10.5086 1.61612 11.6265C2.31579 12.7444 3.31585 13.6429 4.50202 14.2193C5.68818 14.7957 7.01259 15.0268 8.32385 14.8861C9.63512 14.7453 10.8803 14.2385 11.9172 13.4236C11.0798 12.7665 10.4028 11.9276 9.93765 10.9702C9.47246 10.0128 9.23121 8.96208 9.23217 7.89766Z" fill="#FB00B1"/>
<path d="M22.6181 12.2527V12.0265H22.7094V11.9805H22.4772V12.0265H22.5684V12.2527H22.6181ZM23.0693 12.2527V11.9801H22.9981L22.9161 12.1677L22.8343 11.9801H22.7631V12.2527H22.8133V12.047L22.8899 12.2244H22.9422L23.019 12.0466V12.2527H23.0693Z" fill="#FB00B1"/>
<path d="M16.2606 0.869149C14.6849 0.866706 13.1544 1.39613 11.917 2.37173C12.7537 3.02943 13.4301 3.86855 13.8953 4.82579C14.3604 5.78304 14.6021 6.8334 14.6021 7.89767C14.6021 8.96193 14.3604 10.0123 13.8953 10.9695C13.4301 11.9268 12.7537 12.7659 11.917 13.4236C12.7979 14.116 13.8315 14.5878 14.9317 14.7996C16.0319 15.0114 17.1669 14.9572 18.2419 14.6413C19.3169 14.3255 20.3008 13.7572 21.1116 12.984C21.9223 12.2107 22.5365 11.2547 22.9028 10.1959C23.2692 9.13704 23.3771 8.00597 23.2176 6.89695C23.058 5.78794 22.6357 4.73314 21.9857 3.82049C21.3357 2.90785 20.477 2.16381 19.4811 1.65042C18.4853 1.13703 17.3811 0.869161 16.2606 0.869149Z" fill="#FB00B1"/>
</g>
</svg>
