<svg width="36" height="14" viewBox="0 0 36 14" fill="none" xmlns="http://www.w3.org/2000/svg">
<g opacity="0.5">
<path d="M6.58096 1.80479C6.98918 1.31492 7.27493 0.67035 7.19329 0C6.59456 0.0257827 5.85977 0.373848 5.43794 0.86372C5.05694 1.27624 4.71675 1.95948 4.812 2.60405C5.47876 2.65562 6.15913 2.28177 6.58096 1.80479Z" fill="#FB00B1"/>
<path d="M7.17966 2.72007C6.19993 2.66851 5.36989 3.24862 4.90724 3.24862C4.44459 3.24862 3.7234 2.74586 2.94778 2.75875C1.94084 2.77164 1.00194 3.31308 0.498464 4.1768C-0.5493 5.89135 0.226318 8.44383 1.24687 9.8361C1.75034 10.5322 2.34906 11.2928 3.12468 11.267C3.87308 11.2413 4.15884 10.8158 5.07053 10.8158C5.98222 10.8158 6.24076 11.267 7.02998 11.2541C7.84642 11.2413 8.3635 10.558 8.85336 9.87477C9.42487 9.0884 9.65619 8.32781 9.6698 8.27625C9.65619 8.26335 8.09135 7.69614 8.07775 5.99448C8.06414 4.56354 9.3024 3.89319 9.37044 3.84162C8.66286 2.86188 7.56067 2.74586 7.17966 2.72007Z" fill="#FB00B1"/>
<path d="M16.9497 0.786369C19.0725 0.786369 20.5557 2.17864 20.5557 4.20258C20.5557 6.22652 19.0453 7.63168 16.8953 7.63168H14.5412V11.1768H12.8403V0.786369H16.9497ZM14.5412 6.27808H16.5007C17.9839 6.27808 18.8275 5.51749 18.8275 4.21547C18.8275 2.91344 17.9839 2.15285 16.5143 2.15285H14.5548C14.5412 2.15285 14.5412 6.27808 14.5412 6.27808Z" fill="#FB00B1"/>
<path d="M20.9775 9.02394C20.9775 7.69613 22.0525 6.92265 24.0255 6.81952L26.1483 6.7035V6.12339C26.1483 5.28545 25.5632 4.82136 24.5154 4.82136C23.4676 4.82136 23.0322 5.23389 22.9097 5.87845H21.3721C21.4129 4.53775 22.7601 3.55801 24.5698 3.55801C26.3796 3.55801 27.7812 4.52486 27.7812 6.02026V11.1897H26.2027V9.93923H26.1619C25.7129 10.7514 24.7195 11.267 23.6581 11.267C22.0797 11.267 20.9775 10.3646 20.9775 9.02394ZM26.1483 8.35359V7.77348L24.2569 7.8895C23.1955 7.95396 22.6376 8.32781 22.6376 8.98527C22.6376 9.64273 23.2091 10.0295 24.1208 10.0295C25.0325 10.0295 26.1483 9.33333 26.1483 8.35359Z" fill="#FB00B1"/>
<path d="M29.2235 13.9613V12.7109C29.3324 12.7238 29.5909 12.7366 29.727 12.7366C30.4754 12.7366 30.9109 12.4401 31.1694 11.6538L31.3191 11.1897L28.4343 3.63535H30.2169L32.2172 9.77164H32.258L34.2583 3.63535H36L33.0064 11.5764C32.326 13.3941 31.5368 14 29.8767 14C28.2166 14 29.346 13.9871 29.2235 13.9613Z" fill="#FB00B1"/>
</g>
</svg>
