<svg width="57" height="16" viewBox="0 0 57 16" fill="none" xmlns="http://www.w3.org/2000/svg">
<g opacity="0.5">
<path d="M2.38825 0.421509C2.22302 0.421509 2.08268 0.54146 2.05684 0.704793L0.144254 12.8339C0.137304 12.8782 0.140035 12.9235 0.152255 12.9666C0.164475 13.0098 0.185901 13.0498 0.21505 13.0839C0.244199 13.1179 0.280374 13.1453 0.321107 13.1641C0.36184 13.1828 0.406161 13.1925 0.451009 13.1926H2.71918C2.88417 13.1926 3.02475 13.0724 3.05059 12.9093L3.61242 9.34747C3.63802 9.18437 3.7786 9.06418 3.94383 9.06418H6.00599C8.41546 9.06418 10.4608 7.30616 10.8344 4.92396C11.2111 2.52161 9.3343 0.426724 6.67427 0.421509H2.38825ZM4.59314 3.12919H6.24305C7.6014 3.12919 8.04376 3.93068 7.90389 4.81705C7.76403 5.7053 7.07703 6.35958 5.76302 6.35958H4.08369L4.59314 3.12919ZM15.4476 3.95368C14.8748 3.95581 14.2158 4.07316 13.476 4.38133C11.7789 5.08871 10.9638 6.55065 10.6177 7.61647C10.6177 7.61647 9.51613 10.8682 12.005 12.6547C12.005 12.6547 14.3132 14.3745 16.9116 12.5487L16.8668 12.8339C16.8599 12.8782 16.8626 12.9234 16.8748 12.9665C16.887 13.0096 16.9084 13.0496 16.9375 13.0837C16.9666 13.1177 17.0027 13.1451 17.0434 13.1639C17.084 13.1827 17.1283 13.1925 17.1731 13.1926H19.3263C19.4915 13.1926 19.6319 13.0724 19.6577 12.9093L20.9675 4.60322C20.9745 4.55892 20.9718 4.51362 20.9597 4.47044C20.9475 4.42727 20.9261 4.38724 20.897 4.35311C20.8679 4.31898 20.8318 4.29156 20.7911 4.27274C20.7504 4.25392 20.706 4.24414 20.6612 4.24408H18.508C18.3428 4.24408 18.2022 4.36426 18.1766 4.52736L18.1062 4.97445C18.1062 4.97445 17.166 3.94728 15.4476 3.95368ZM15.518 6.5772C15.7652 6.5772 15.9914 6.61134 16.1943 6.67653C17.1233 6.97475 17.6501 7.86728 17.4976 8.83471C17.3097 10.0259 16.3327 10.903 15.0799 10.903C14.8329 10.903 14.6067 10.8691 14.4036 10.804C13.4748 10.5057 12.9447 9.61321 13.0971 8.64578C13.2851 7.45456 14.2651 6.5772 15.518 6.5772Z" fill="#FB00B1"/>
<path d="M33.3955 0.421509C33.2302 0.421509 33.0899 0.54146 33.064 0.704793L31.1515 12.8339C31.1445 12.8782 31.1472 12.9235 31.1595 12.9666C31.1717 13.0098 31.1931 13.0498 31.2223 13.0839C31.2514 13.1179 31.2876 13.1453 31.3283 13.1641C31.3691 13.1828 31.4134 13.1925 31.4582 13.1926H33.7264C33.8914 13.1926 34.032 13.0724 34.0578 12.9093L34.6196 9.34747C34.6452 9.18437 34.7858 9.06418 34.951 9.06418H37.0132C39.4227 9.06418 41.4678 7.30616 41.8411 4.92396C42.2181 2.52161 40.3415 0.426724 37.6815 0.421509H33.3955ZM35.6003 3.12919H37.2503C38.6086 3.12919 39.051 3.93068 38.9111 4.81705C38.7712 5.7053 38.0845 6.35958 36.7702 6.35958H35.0909L35.6003 3.12919ZM46.4545 3.95368C45.8818 3.95581 45.2228 4.07316 44.4829 4.38133C42.7858 5.08871 41.9708 6.55065 41.6247 7.61647C41.6247 7.61647 40.5236 10.8682 43.0124 12.6547C43.0124 12.6547 45.3202 14.3745 47.9188 12.5487L47.874 12.8339C47.8671 12.8782 47.8698 12.9235 47.882 12.9666C47.8943 13.0098 47.9157 13.0498 47.9448 13.0839C47.974 13.1179 48.0102 13.1453 48.0509 13.1641C48.0916 13.1828 48.1359 13.1925 48.1808 13.1926H50.3338C50.499 13.1926 50.6393 13.0724 50.6652 12.9093L51.9754 4.60322C51.9824 4.55888 51.9797 4.51354 51.9676 4.47033C51.9554 4.42712 51.934 4.38707 51.9048 4.35293C51.8756 4.31879 51.8394 4.29139 51.7987 4.27259C51.7579 4.2538 51.7135 4.24407 51.6686 4.24408H49.5154C49.3502 4.24408 49.2096 4.36426 49.184 4.52736L49.1136 4.97445C49.1136 4.97445 48.173 3.94728 46.4545 3.95368ZM46.5249 6.5772C46.7722 6.5772 46.9983 6.61134 47.2013 6.67653C48.1303 6.97475 48.657 7.86728 48.5046 8.83471C48.3166 10.0259 47.3397 10.903 46.0868 10.903C45.8398 10.903 45.6137 10.8691 45.4105 10.804C44.4817 10.5057 43.9517 9.61321 44.1041 8.64578C44.2921 7.45456 45.2721 6.5772 46.5249 6.5772Z" fill="#FB00B1"/>
<path d="M21.9892 4.24413C21.8185 4.24413 21.6971 4.41079 21.7493 4.57317L24.1099 11.8985L21.9754 15.3506C21.8718 15.5182 21.9923 15.7346 22.1893 15.7346H24.712C24.7842 15.7345 24.8551 15.7159 24.9179 15.6804C24.9807 15.6449 25.0334 15.5939 25.0707 15.5321L31.6635 4.6258C31.7648 4.4582 31.6439 4.2439 31.4481 4.2439H28.9255C28.8527 4.24396 28.7811 4.26299 28.7178 4.29911C28.6546 4.33523 28.6018 4.3872 28.5647 4.4499L25.9696 8.83121L24.6523 4.48238C24.6094 4.34085 24.4788 4.2439 24.3311 4.2439L21.9892 4.24413Z" fill="#FB00B1"/>
<path d="M54.4218 0.421509C54.2568 0.421509 54.1162 0.541697 54.0903 0.704794L52.1773 12.8334C52.1703 12.8778 52.1729 12.9231 52.1851 12.9663C52.1973 13.0095 52.2187 13.0496 52.2479 13.0837C52.277 13.1178 52.3132 13.1452 52.354 13.164C52.3948 13.1828 52.4391 13.1926 52.484 13.1926H54.7522C54.9172 13.1926 55.0578 13.0724 55.0836 12.9093L56.9962 0.780178C57.0032 0.735912 57.0004 0.690667 56.9883 0.64755C56.9761 0.604433 56.9547 0.564465 56.9256 0.530391C56.8965 0.496316 56.8603 0.468942 56.8197 0.450147C56.779 0.431353 56.7347 0.421583 56.6899 0.421509H54.4218Z" fill="#FB00B1"/>
</g>
</svg>
