<svg width="42" height="14" viewBox="0 0 42 14" fill="none" xmlns="http://www.w3.org/2000/svg">
<g opacity="0.5">
<path d="M18.3405 13.2196H15.0587L17.1114 0.527466H20.393L18.3405 13.2196Z" fill="#FB00B1"/>
<path d="M30.2372 0.837718C29.5898 0.58091 28.5632 0.297363 27.2937 0.297363C24.0528 0.297363 21.7706 2.02556 21.7566 4.49637C21.7297 6.31932 23.3906 7.33184 24.6328 7.93967C25.9025 8.56078 26.3341 8.96618 26.3341 9.51981C26.3212 10.3701 25.3081 10.762 24.3633 10.762C23.053 10.762 22.351 10.56 21.2841 10.0869L20.8519 9.88412L20.3927 12.7332C21.1624 13.0839 22.5805 13.3951 24.0528 13.4087C27.4963 13.4087 29.7381 11.7073 29.7646 9.07421C29.7777 7.62938 28.9007 6.52229 27.0099 5.61763C25.8621 5.0369 25.1592 4.64532 25.1592 4.05113C25.1726 3.51095 25.7537 2.95768 27.0494 2.95768C28.1163 2.93058 28.9002 3.18703 29.494 3.44366L29.7908 3.57843L30.2372 0.837718Z" fill="#FB00B1"/>
<path d="M34.5989 8.72322C34.8692 7.99408 35.9092 5.17207 35.9092 5.17207C35.8955 5.19917 36.1789 4.42946 36.341 3.95695L36.5703 5.05058C36.5703 5.05058 37.1918 8.08865 37.3267 8.72322C36.8138 8.72322 35.2472 8.72322 34.5989 8.72322ZM38.6499 0.527466H36.1114C35.3286 0.527466 34.7339 0.756816 34.3962 1.58054L29.5215 13.2194H32.965C32.965 13.2194 33.5319 11.6529 33.6537 11.3155C34.0315 11.3155 37.3813 11.3155 37.8673 11.3155C37.9615 11.7611 38.2589 13.2194 38.2589 13.2194H41.2975L38.6499 0.527466Z" fill="#FB00B1"/>
<path d="M12.3176 0.527466L9.1037 9.18228L8.7525 7.42698C8.1583 5.4016 6.29479 3.20106 4.21521 2.10689L7.15907 13.2061H10.6295L15.7879 0.527466H12.3176Z" fill="#FB00B1"/>
<path d="M6.11924 0.527466H0.839173L0.785156 0.783914C4.90394 1.83716 7.63173 4.37598 8.75246 7.42752L7.60464 1.59436C7.41566 0.783735 6.83493 0.554205 6.11924 0.527466Z" fill="#FB00B1"/>
</g>
</svg>
