<svg width="102" height="103" viewBox="0 0 102 103" fill="none" xmlns="http://www.w3.org/2000/svg">
<path d="M51 101.246C78.6142 101.246 101 78.8598 101 51.2456C101 23.6314 78.6142 1.24561 51 1.24561C23.3858 1.24561 1 23.6314 1 51.2456C1 78.8598 23.3858 101.246 51 101.246Z" stroke="#FB00B1" stroke-width="2" stroke-miterlimit="10"/>
<path d="M87.3446 16.9329L16.6641 87.5913" stroke="#FB00B1" stroke-width="2" stroke-miterlimit="10"/>
<path d="M78.7925 64.5244H20.8164" stroke="#FB00B1" stroke-width="2" stroke-miterlimit="10"/>
<path d="M20.8184 49.8096H78.7945" stroke="#FB00B1" stroke-width="2" stroke-miterlimit="10"/>
<path d="M78.7933 64.5245C80.4406 64.5245 81.7761 61.2305 81.7761 57.1671C81.7761 53.1036 80.4406 49.8096 78.7933 49.8096C77.146 49.8096 75.8105 53.1036 75.8105 57.1671C75.8105 61.2305 77.146 64.5245 78.7933 64.5245Z" stroke="#FB00B1" stroke-width="2" stroke-miterlimit="10"/>
<path d="M20.8187 64.5245C19.1837 64.5245 17.8359 61.2325 17.8359 57.1671C17.8359 53.1017 19.1616 49.8096 20.8187 49.8096" stroke="#FB00B1" stroke-width="2" stroke-miterlimit="10"/>
<path d="M36.682 64.5245C35.047 64.5245 33.6992 61.2325 33.6992 57.1671C33.6992 53.1017 35.0249 49.8096 36.682 49.8096" stroke="#FB00B1" stroke-width="2" stroke-miterlimit="10"/>
<path d="M79.369 45.1033C79.8772 42.4741 78.1317 39.8227 75.856 38.3866C73.5802 36.9505 70.8626 36.4644 68.2333 35.8899C65.6041 35.3155 62.9086 34.5642 60.8979 32.7746C57.9373 30.1232 57.164 25.7927 57.407 21.8157" stroke="#FB00B1" stroke-width="2" stroke-miterlimit="10"/>
<path d="M62.3147 17.5293C60.7902 20.8877 62.381 26.9195 65.0323 29.4825" stroke="#FB00B1" stroke-width="2" stroke-miterlimit="10"/>
</svg>
