<svg width="102" height="103" viewBox="0 0 102 103" fill="none" xmlns="http://www.w3.org/2000/svg">
<path d="M92.6667 1.24561H9.33333C4.73096 1.24561 1 4.97657 1 9.57894V92.9123C1 97.5146 4.73096 101.246 9.33333 101.246H92.6667C97.269 101.246 101 97.5146 101 92.9123V9.57894C101 4.97657 97.269 1.24561 92.6667 1.24561Z" stroke="#FB00B1" stroke-width="2" stroke-miterlimit="10"/>
<path d="M51.0006 41.2456L57.6673 19.5789M51.0006 9.61222V16.2789M67.6673 41.2456H34.334L19.334 16.2456C29.0007 11.6456 39.5673 9.34555 50.2673 9.57889C61.9006 9.57889 73.034 11.1789 82.6673 16.2456L67.6673 41.2456Z" stroke="#FB00B1" stroke-width="2" stroke-miterlimit="10"/>
<path d="M45.8324 79.2122L42.4991 59.3789C41.4991 53.0122 35.5324 48.6789 29.1657 49.6789C22.7991 50.6789 18.4657 56.6455 19.4657 63.0122C19.4657 63.1122 19.4657 63.2122 19.5324 63.3122L22.8657 83.1455C23.8657 89.5122 29.8324 93.8455 36.1991 92.8455C42.5657 91.8455 46.8991 85.8789 45.8991 79.5122C45.8991 79.4122 45.8991 79.3122 45.8324 79.2122ZM73.1324 49.7789C66.7991 48.6789 60.7657 52.9455 59.6991 59.2789L56.1991 79.1122C55.0657 85.4455 59.2324 91.5455 65.5657 92.7455C71.8991 93.8455 77.9324 89.5789 78.9991 83.2455L82.4991 63.4122C83.6324 57.0789 79.4657 50.9789 73.1324 49.7789Z" stroke="#FB00B1" stroke-width="2" stroke-miterlimit="10"/>
</svg>
