<svg width="94" height="94" viewBox="0 0 94 94" fill="none" xmlns="http://www.w3.org/2000/svg">
<path d="M28.6074 2.54403C18.0496 -1.36345 6.28163 3.95673 2.31865 14.4468C0.594303 19.0456 0.594303 24.0953 2.31865 28.664L28.6074 2.54403ZM65.3935 2.54403C75.9514 -1.3935 87.7193 3.92667 91.6823 14.4167C93.4066 19.0155 93.4066 24.0652 91.6823 28.6339L65.3935 2.54403Z" stroke="#FB00B1" stroke-width="2" stroke-miterlimit="10" stroke-linecap="round"/>
<path d="M46.9997 91.0933C69.0036 91.0933 86.8413 73.3702 86.8413 51.5076C86.8413 29.645 69.0036 11.9219 46.9997 11.9219C24.9959 11.9219 7.1582 29.645 7.1582 51.5076C7.1582 73.3702 24.9959 91.0933 46.9997 91.0933Z" stroke="#FB00B1" stroke-width="2" stroke-miterlimit="10" stroke-linecap="round"/>
<path d="M7.1582 92.6263L19.5917 80.2727M86.8413 92.6263L74.4078 80.2727" stroke="#FB00B1" stroke-width="2" stroke-miterlimit="10" stroke-linecap="round"/>
<path d="M63.8502 53.0406H47V24.0952" stroke="#FB00B1" stroke-width="2" stroke-miterlimit="10" stroke-linecap="round"/>
</svg>
