<svg width="102" height="103" viewBox="0 0 102 103" fill="none" xmlns="http://www.w3.org/2000/svg">
<path d="M51.0052 61.9614V87.569M39.3613 87.5911H62.649" stroke="#FB00B1" stroke-width="2" stroke-linecap="round" stroke-linejoin="round"/>
<path d="M65.3176 38.6738C64.0361 33.6805 67.0631 28.6208 72.0343 27.3393C77.0277 26.0578 82.0874 29.0848 83.3689 34.0561C84.6503 39.0274 81.6234 44.1091 76.6521 45.3906C74.045 46.0534 71.261 45.5673 69.0516 44.0207" stroke="#FB00B1" stroke-width="2" stroke-linecap="round" stroke-linejoin="round"/>
<path d="M13.7285 27.03H23.0524C24.8642 27.1184 26.5434 27.9801 27.7144 29.35L37.0383 38.6739M66.1368 46.8268L74.2897 38.6739H27.7144L35.8673 46.8268" stroke="#FB00B1" stroke-width="2" stroke-linecap="round" stroke-linejoin="round"/>
<path d="M66.1387 46.8267H35.8691L51.0039 61.9614L66.1387 46.8267Z" stroke="#FB00B1" stroke-width="2" stroke-linecap="round" stroke-linejoin="round"/>
<path d="M51 101.246C78.6142 101.246 101 78.8598 101 51.2456C101 23.6314 78.6142 1.24561 51 1.24561C23.3858 1.24561 1 23.6314 1 51.2456C1 78.8598 23.3858 101.246 51 101.246Z" stroke="#FB00B1" stroke-width="2" stroke-linecap="round" stroke-linejoin="round"/>
<path d="M87.3446 16.9326L16.6641 87.591" stroke="#FB00B1" stroke-width="2" stroke-linecap="round" stroke-linejoin="round"/>
</svg>
