<svg width="119" height="57" viewBox="0 0 119 57" fill="none" xmlns="http://www.w3.org/2000/svg">
<path d="M90.3093 54.5533C88.5236 55.1247 86.6426 55.4104 84.714 55.4104C74.5234 55.4104 65.928 47.0774 63.2852 35.7207" stroke="#FB00B1" stroke-width="2" stroke-miterlimit="10"/>
<path d="M84.5234 1.24561H95.7379C108.048 1.24561 118 13.3642 118 28.3398C118 43.3154 108.024 55.434 95.7379 55.434H84.5234" stroke="#FB00B1" stroke-width="2" stroke-miterlimit="10"/>
<path d="M90.1191 2.12646C99.7145 5.15016 106.786 15.745 106.786 28.3397C106.786 40.9345 99.7145 51.5293 90.1191 54.553" stroke="#FB00B1" stroke-width="2" stroke-miterlimit="10"/>
<path d="M17.1895 35.7444H23.2848" stroke="#FB00B1" stroke-width="2" stroke-miterlimit="10"/>
<path d="M84.2383 20.9353C87.5955 20.9353 90.3336 24.2447 90.3336 28.3398C90.3336 32.4349 87.6193 35.7443 84.2383 35.7443" stroke="#FB00B1" stroke-width="2" stroke-miterlimit="10"/>
<path d="M55.9062 35.7444H63.2873" stroke="#FB00B1" stroke-width="2" stroke-miterlimit="10"/>
<path d="M63.2852 35.7444H84.2378" stroke="#FB00B1" stroke-width="2" stroke-miterlimit="10"/>
<path d="M63.2852 20.9353C65.928 9.57862 74.5234 1.24561 84.714 1.24561C86.6426 1.24561 88.5236 1.55512 90.3093 2.10272" stroke="#FB00B1" stroke-width="2" stroke-miterlimit="10"/>
<path d="M23.2848 20.9353H17.1895" stroke="#FB00B1" stroke-width="2" stroke-miterlimit="10"/>
<path d="M84.2378 20.9353H63.2852" stroke="#FB00B1" stroke-width="2" stroke-miterlimit="10"/>
<path d="M63.2873 20.9353H55.9062" stroke="#FB00B1" stroke-width="2" stroke-miterlimit="10"/>
<path d="M23.2852 1.24561H34.4996C46.8092 1.24561 56.7617 13.3642 56.7617 28.3398C56.7617 43.3154 46.7854 55.434 34.4996 55.434H23.2852" stroke="#FB00B1" stroke-width="2" stroke-miterlimit="10"/>
<path d="M28.8789 2.12646C38.4743 5.15016 45.5458 15.745 45.5458 28.3397C45.5458 40.9345 38.4743 51.5293 28.8789 54.553" stroke="#FB00B1" stroke-width="2" stroke-miterlimit="10"/>
<path d="M28.8813 2.12668C27.0955 1.55527 25.2146 1.26957 23.286 1.26957C10.9763 1.24576 1 13.3881 1 28.34C1 43.2918 10.9763 55.4342 23.2622 55.4342C25.1908 55.4342 27.0717 55.1246 28.8575 54.5771" stroke="#FB00B1" stroke-width="2" stroke-miterlimit="10"/>
<path d="M17.191 35.7443C20.5574 35.7443 23.2863 32.4292 23.2863 28.3398C23.2863 24.2504 20.5574 20.9353 17.191 20.9353C13.8247 20.9353 11.0957 24.2504 11.0957 28.3398C11.0957 32.4292 13.8247 35.7443 17.191 35.7443Z" stroke="#FB00B1" stroke-width="2" stroke-miterlimit="10"/>
<path d="M23.2852 20.9353C26.6423 20.9353 29.3805 24.2447 29.3805 28.3398C29.3805 32.4349 26.6661 35.7443 23.2852 35.7443" stroke="#FB00B1" stroke-width="2" stroke-miterlimit="10"/>
</svg>
