<svg width="92" height="93" viewBox="0 0 92 93" fill="none" xmlns="http://www.w3.org/2000/svg">
<path d="M80.5042 11.7575L67.7151 24.5322M65.5645 1.24561C69.2349 4.91188 74.1096 18.1448 67.6864 24.5322M90.9992 26.6804C87.3288 23.0141 74.0809 18.1448 67.6864 24.5608" stroke="#FB00B1" stroke-width="2" stroke-miterlimit="10"/>
<path d="M37.715 26.7063L49.4726 38.6027M58.7937 60.4127L49.4443 51.0656M24.7674 43.2479L32.757 51.0656M38.7633 73.8103L28.5355 63.7267M68.2848 23.9871C60.1536 15.8579 50.0676 12.8555 43.1263 19.7667C25.2208 37.8379 -2.77086 86.6131 1.42222 90.8335C5.61529 95.0539 55.7905 65.8511 72.4778 48.9979C79.3908 42.0866 76.3876 31.9747 68.2564 24.0155L68.2848 23.9871Z" stroke="#FB00B1" stroke-width="2" stroke-miterlimit="10"/>
</svg>
