<svg width="26" height="27" viewBox="0 0 26 27" fill="none" xmlns="http://www.w3.org/2000/svg">
<path opacity="0.5" d="M26 13.5836C26 6.07952 20.1768 0 13 0C5.81831 0 0 6.07952 0 13.5836C0 20.3619 4.75231 25.9821 10.9688 27V17.511H7.66756V13.5845H10.9688V10.5901C10.9688 7.18659 12.9066 5.30695 15.8771 5.30695C17.2998 5.30695 18.7891 5.57183 18.7891 5.57183V8.91425H17.147C15.535 8.91425 15.0312 9.96274 15.0312 11.0367V13.5836H18.6363L18.057 17.5101H15.0312V26.9992C21.2428 25.9812 26 20.361 26 13.5828V13.5836Z" fill="#FB00B1"/>
</svg>
