<svg width="1645" height="491" viewBox="0 0 1645 491" fill="none" xmlns="http://www.w3.org/2000/svg">
<path d="M1595.99 285.979H1570.75C1563.58 285.979 1557.06 287.417 1551.42 290.028C1550.85 290.292 1550.21 290.292 1549.66 290.028C1544.02 287.398 1537.49 285.979 1530.32 285.979H1485.69C1481.36 285.979 1477.26 286.622 1473.42 287.776C1473.04 287.89 1472.64 287.89 1472.26 287.776C1468.25 286.603 1463.98 285.979 1459.51 285.979H1362.38C1357.25 285.979 1350.46 286.736 1343.63 289.687C1343.08 289.914 1342.48 289.914 1341.93 289.687C1339.57 288.628 1337.07 287.795 1334.42 287.19C1333.19 286.906 1332.51 285.582 1332.94 284.39C1334.48 280.284 1335.5 275.422 1335.5 269.709C1335.5 256.371 1330.86 245.946 1320.82 236.865C1320.72 236.771 1320.63 236.676 1320.53 236.563C1320.1 235.938 1318.89 234.141 1316.52 229.563L1312 220.898C1311.4 219.706 1310.77 218.552 1310.15 217.436C1309.75 216.736 1309.79 215.903 1310.24 215.222C1316.26 206.217 1320.32 194.752 1320.32 179.711C1320.32 141.495 1290.21 113.76 1248.72 113.76C1248.72 113.76 1177.02 113.76 1176.79 113.76C1173 113.76 1169.41 114.252 1165.99 115.141C1165.64 115.235 1165.3 115.235 1164.98 115.141C1163.6 114.781 1162.16 114.498 1160.71 114.271C1162.39 111.206 1163.37 108.235 1164.04 106.192C1169.64 89.5056 1170.39 87.5191 1171.55 84.511L1171.62 84.3218C1172.06 83.1866 1172.55 81.8812 1173.33 79.7434C1178.13 74.4461 1180.55 67.9947 1180.55 60.5407C1180.55 43.0406 1168.82 32.1622 1149.94 32.1622C1146.39 32.1622 1139.71 32.1622 1133.1 34.3757C1128.03 32.6163 1122.96 32.2001 1119.45 32.1055C1115.74 18.5595 1103.86 9.45947 1088.49 9.45947C1078.05 9.45947 1067.23 14.3973 1060.32 22.2676C1057.98 24.8595 1050.9 32.7298 1050.81 44.5731C1044.22 36.3433 1033.29 30.6109 1016.66 30.6109C1007.62 30.6109 999.765 32.0865 992.859 35.0757C988.697 32.6541 983.116 30.7055 975.965 30.7055C971.349 30.7055 967.035 31.5001 963.1 33.1082C959.865 31.973 956.384 31.3865 952.77 31.3865C947.662 31.3865 942.554 32.5595 937.711 34.792C933.379 32.5406 928.384 31.3865 922.935 31.3865C917.07 31.3865 911.471 32.5595 906.211 34.9055C901.803 32.5784 896.676 31.3865 891.114 31.3865C885.93 31.3865 880.633 32.5028 875.582 34.6406C874.238 34.2244 872.819 33.8838 871.325 33.619C866.841 28.5487 860.371 25.6541 853.163 25.6541C849.587 25.6541 846.484 26.2595 843.741 27.1487C838.747 16.3838 827.963 9.44055 814.606 9.44055C804.163 9.44055 793.323 14.3784 786.436 22.2487C783.693 25.3136 781.555 28.3973 780.004 31.6136C775.747 32.0676 771.661 33.1649 767.744 34.9055C763.336 32.5784 758.209 31.3865 752.647 31.3865C747.426 31.3865 742.109 32.5217 737.02 34.6784C730.853 32.446 724.704 32.446 721.374 32.446H720.334C716.626 18.7108 704.574 9.44055 688.966 9.44055C679.053 9.44055 668.837 14 661.648 21.6433C659.491 23.819 656.861 26.8082 654.818 30.7433C654.175 30.7055 653.531 30.7055 652.888 30.7055C647.667 30.7055 642.786 31.5568 638.321 33.2406C634.688 31.6892 630.696 30.8946 626.496 30.8946C621.805 30.8946 616.961 31.9919 612.383 34.0541C608.41 32.2947 603.945 31.3865 599.178 31.3865C593.313 31.3865 587.713 32.5595 582.453 34.9055C578.045 32.5784 572.918 31.3865 567.356 31.3865C560.792 31.3865 554.037 33.1838 547.889 36.5325C541.608 32.7109 534.419 30.7055 526.775 30.7055C521.554 30.7055 516.673 31.5568 512.208 33.2406C508.576 31.6892 504.584 30.8946 500.384 30.8946C492.495 30.8946 484.511 33.846 477.795 39.2757C468.638 46.8622 464.097 55.8298 464.343 65.9893C464.57 74.011 468.297 81.0299 474.427 85.4948V100.649C469.754 106.173 467.635 112.662 467.635 121.081C467.635 122.727 467.787 124.808 468.297 127.06C467.503 127.343 466.614 127.135 466.027 126.473C458.649 118.243 448.111 113.722 435.473 113.722C435.473 113.722 347.122 113.722 346.895 113.722C324.231 113.722 307.147 130.673 307.147 153.149C307.147 163.327 310.59 172.39 317.212 179.749C317.552 180.127 317.76 180.638 317.76 181.149V241.86C317.76 242.371 317.571 242.882 317.212 243.26C310.779 250.449 307.336 259.473 307.336 269.482C307.336 275.063 308.433 280.284 310.382 285.014C310.855 286.13 310.231 287.436 309.077 287.795C303.723 289.441 298.917 292.109 294.888 295.647C294.188 296.252 293.223 296.365 292.428 295.911C281.323 289.536 267.872 285.941 252.926 285.941C252.926 285.941 181.223 285.941 180.996 285.941C172.956 285.941 165.615 288.079 159.486 291.844C158.918 292.184 158.256 292.26 157.632 292.014C147.018 287.909 134.229 285.941 118.432 285.941H49.416C26.6378 285.941 9.45947 302.968 9.45947 325.538C9.45947 335.641 12.8459 344.59 19.3351 351.874C19.6756 352.252 19.8837 352.763 19.8837 353.274V414.079C19.8837 414.59 19.6945 415.101 19.3351 415.479C12.9027 422.668 9.45947 431.693 9.45947 441.701C9.45947 464.271 26.808 481.298 49.7944 481.298H131.013C141.153 481.298 150.651 479.368 159.183 475.868C159.788 475.623 160.451 475.679 160.999 475.982C166.977 479.368 174.015 481.298 181.696 481.298C181.696 481.298 224.737 481.298 224.983 481.298C233.855 481.298 241.385 479.123 247.496 475.509C248.139 475.131 248.896 475.112 249.558 475.452C257.239 479.425 266.415 481.279 277.558 481.279H298.236C302.55 481.279 306.579 480.787 310.344 479.879C310.666 479.804 310.987 479.804 311.309 479.879C314.771 480.768 318.423 481.279 322.244 481.279H412.619C417.463 481.279 421.738 480.674 425.541 479.596C425.919 479.482 426.298 479.501 426.657 479.596C430.346 480.693 434.319 481.279 438.5 481.279H470.151C478.059 481.279 485.268 478.971 491.189 474.923C491.927 474.431 492.854 474.412 493.592 474.904C499.778 478.952 507.232 481.298 515.33 481.298H564.897C571.84 481.298 578.197 479.539 583.683 476.455C584.213 476.152 584.818 476.096 585.386 476.285C603.302 482.396 621.294 483.304 630.261 483.304C655.688 483.304 677.426 476.077 693.147 463.59C694.093 462.833 695.512 462.985 696.193 463.987C703.118 474.052 715.207 481.279 732.177 481.279C732.177 481.279 774.177 481.279 774.423 481.279C789.255 481.279 798.809 475.528 804.201 470.723C810.349 465.217 819.809 449.95 823.649 443.517C824.444 442.174 826.374 442.136 827.244 443.422C830.744 448.625 838.349 459.504 842.606 462.568C857.514 473.371 899.817 483.285 913.287 483.285C928.365 483.285 942.138 480.731 954.132 476.058C954.719 475.831 955.381 475.887 955.93 476.19C961.624 479.425 968.341 481.26 975.757 481.26H1007.41C1015.32 481.26 1022.52 478.952 1028.45 474.904C1029.18 474.412 1030.11 474.393 1030.85 474.885C1037.03 478.933 1044.49 481.279 1052.59 481.279H1102.15C1105.43 481.279 1108.57 480.863 1111.56 480.125C1111.86 480.05 1112.18 480.05 1112.48 480.125C1115.64 480.863 1118.97 481.298 1122.43 481.298C1122.43 481.298 1165.7 481.298 1165.97 481.298C1181.74 481.298 1193.32 475.093 1200.47 466.201C1201.33 465.141 1202.93 465.16 1203.77 466.22C1211.01 475.509 1222.48 481.298 1235.87 481.298H1326.25C1339.79 481.298 1349.01 476.531 1355.48 469.928C1356.27 469.114 1357.58 469.096 1358.41 469.871C1365.6 476.758 1375.97 481.298 1389.4 481.298C1389.4 481.298 1431.38 481.298 1431.64 481.298C1446.48 481.298 1456.01 475.547 1461.42 470.741C1468.95 464.025 1473.49 454.547 1474.12 444.463C1474.17 443.574 1474.74 442.817 1475.57 442.552C1476.88 442.136 1478.24 443.044 1478.33 444.406C1479.62 463.155 1494.26 481.298 1521.13 481.298C1521.13 481.298 1564.21 481.298 1564.47 481.298C1579.3 481.298 1588.84 475.547 1594.25 470.741C1602.14 463.704 1606.76 453.639 1607 442.987C1607.44 431.522 1602.99 421.193 1594.53 413.455C1594.1 413.058 1593.83 412.49 1593.83 411.904V410.56C1593.83 410.201 1593.91 409.86 1594.08 409.558C1595.08 407.685 1598.79 400.836 1598.79 400.836C1607.08 385.493 1614.91 371.001 1622.34 355.979C1622.34 355.979 1622.61 355.43 1622.61 355.411C1631.07 347.125 1635.36 336.947 1635.36 325.179C1635.36 302.817 1618.41 285.941 1595.95 285.941L1595.99 285.979Z" fill="#F1009C"/>
<path d="M1564.51 490.796C1582.33 490.796 1593.97 483.739 1600.59 477.836C1610.39 469.096 1616.18 456.477 1616.5 443.385C1616.97 430.974 1612.77 419.358 1604.58 410.163L1607.25 405.244C1615.38 390.166 1623.08 375.901 1630.5 360.993C1640.05 351.079 1644.9 339.047 1644.9 325.198C1644.9 297.444 1623.88 276.501 1596.03 276.501H1362.4C1356.08 276.501 1349.84 277.484 1344.12 279.376C1344.69 276.255 1344.99 273.019 1344.99 269.69C1344.99 254.025 1339.41 241.217 1327.91 230.49C1327.46 229.752 1326.51 228.182 1324.96 225.173L1320.51 216.641C1326.7 205.876 1329.82 193.484 1329.82 179.692C1329.82 136.008 1295.73 104.281 1248.76 104.281H1176.83C1176.11 104.281 1175.41 104.3 1174.69 104.338C1178.76 92.2867 1179.46 90.4515 1180.44 87.8786L1180.51 87.6704C1180.84 86.8191 1181.2 85.8542 1181.67 84.5867C1187.17 77.8326 1190.05 69.6218 1190.05 60.5407C1190.05 37.9136 1173.95 22.7027 1149.98 22.7027C1146.39 22.7027 1140.07 22.7027 1133.2 24.4811C1130.74 23.819 1128.37 23.3838 1126.18 23.119C1119.63 9.19461 1105.6 0 1088.51 0C1075.27 0 1062.1 5.97839 1053.23 16.0244C1049.86 19.7892 1047.19 23.7244 1045.25 27.7919C1038.25 23.9136 1028.96 21.1514 1016.68 21.1514L891.133 21.9271C885.949 21.9271 880.708 22.8163 875.619 24.5379C869.622 19.2027 861.771 16.2135 853.201 16.2135C851.498 16.2135 849.89 16.3271 848.338 16.5162C840.884 6.37569 828.776 0.018919 814.644 0.018919C801.401 0.018919 788.214 6.01623 779.36 16.0433C777.317 18.3325 775.539 20.6406 774.025 23.0244C771.963 23.4595 769.958 24.0082 767.971 24.6892C763.242 22.8919 758.058 21.946 752.685 21.946C747.312 21.946 741.939 22.8919 736.717 24.7082C733.161 23.7622 729.793 23.346 726.955 23.1757C720.334 9.23245 706.182 0.018919 689.004 0.018919C676.385 0.018919 663.956 5.50542 654.894 15.0973C653.721 16.2703 651.677 18.3892 649.558 21.3595L500.403 21.4541C490.357 21.4541 480.254 25.1433 471.949 31.8595L471.854 31.9352L471.778 32.0109C457.438 43.8731 454.695 57.1542 454.903 66.1974V66.2542V66.3109C455.168 75.3731 458.876 83.6975 464.987 89.8083V97.4894C462.395 101.216 460.578 105.303 459.481 109.825C452.424 106.23 444.346 104.338 435.473 104.338H346.895C318.839 104.338 297.688 125.338 297.688 153.206C297.688 164.671 301.339 175.227 308.301 183.911V239.23C301.471 247.819 297.877 258.244 297.877 269.557C297.877 273.663 298.35 277.674 299.296 281.552C296.987 282.668 294.793 283.955 292.693 285.411C280.869 279.603 267.209 276.538 252.907 276.538H180.977C172.71 276.538 164.726 278.43 157.707 282.044C146.734 278.336 133.832 276.538 118.432 276.538H49.4159C21.2458 276.538 0 297.633 0 325.595C0 336.947 3.59457 347.39 10.4243 356.017V411.449C3.59457 420.039 0 430.463 0 441.777C0 469.739 21.3972 490.833 49.7943 490.833H1564.51V490.796ZM131.013 471.877H49.7943C31.8971 471.877 18.9188 459.201 18.9188 441.739C18.9188 434.095 21.5485 427.152 26.5431 421.647C28.3971 419.604 29.3431 416.879 29.3431 414.098V353.293C29.3431 350.53 28.4161 347.825 26.562 345.782C21.4918 340.182 18.9188 333.39 18.9188 325.576C18.9188 308.114 31.7458 295.438 49.4159 295.438H118.375C132.999 295.438 144.71 297.217 154.15 300.868C157.537 302.193 161.245 301.852 164.367 299.941C169.172 296.99 174.885 295.438 180.921 295.438H252.85C265.734 295.438 277.823 298.484 287.774 304.236C292.031 306.695 297.328 306.052 301.036 302.817C304.082 300.168 307.639 298.182 311.631 296.952C312.35 296.725 313.087 296.479 313.768 296.12C319.387 292.998 321.185 286.622 319.047 281.476C317.495 277.73 316.72 273.719 316.72 269.557C316.72 261.914 319.35 254.971 324.344 249.484C326.198 247.441 327.144 244.717 327.144 241.936V181.225C327.144 178.387 326.085 175.644 324.174 173.506C319.104 167.849 316.531 161.038 316.531 153.225C316.531 135.857 329.263 123.257 346.82 123.257H435.397C443.06 123.257 449.719 125.319 454.941 129.235C457.854 131.43 461.43 132.565 465.043 132.168L465.365 132.13C473.689 131.184 479.8 123.825 479.157 115.462L478.835 111.168C479.327 110.052 479.932 109.03 480.595 108.084C482.695 105.133 483.83 101.614 483.83 98.0002V89.2407C483.83 84.4921 481.881 79.9515 478.438 76.6596C475.373 73.7272 473.859 69.7353 473.727 65.7812C473.481 55.1298 481.219 48.7163 483.754 46.6163C488.673 42.6433 494.67 40.4109 500.308 40.4109C504.735 40.4109 508.67 41.6595 511.773 43.8541C516.029 41.4704 521.1 40.2028 526.7 40.2028C534.816 40.2028 541.967 43.0974 547.529 48.092C548.021 47.6947 548.513 47.2974 549.043 46.919C554.643 43.0217 561.113 40.8839 567.299 40.8839C573.486 40.8839 578.216 42.7379 581.81 45.9731C587.126 42.5866 592.953 40.8839 599.14 40.8839C604.361 40.8839 608.845 42.3406 612.232 44.9136C616.659 42.0001 621.672 40.392 626.459 40.392C630.886 40.392 634.821 41.6406 637.923 43.8352C642.18 41.4514 647.25 40.1839 652.85 40.1839C655.745 40.1839 658.488 40.5622 661.099 41.2433C662.083 35.4352 665.393 31.292 668.42 28.246C673.869 22.419 681.512 18.9379 688.928 18.9379C702.531 18.9379 712.028 28.2838 712.028 41.6406C712.028 41.8677 712.028 42.0947 712.028 42.3217C715.396 41.9244 718.707 41.9244 721.355 41.9244C724.912 41.9244 731.78 41.9244 737.134 45.1596C742.034 42.3785 747.425 40.846 752.628 40.846C758.55 40.846 763.544 42.7001 767.139 45.9352C772.455 42.5487 778.282 40.846 784.468 40.846C785.263 40.846 786.02 40.8839 786.777 40.9406C787.855 35.4541 790.977 31.3487 793.455 28.5865C798.658 22.6649 806.793 18.919 814.606 18.919C827.32 18.919 836.382 27.2622 837.233 39.4271L838.728 40.1649C842.568 37.8001 846.919 35.1136 853.163 35.1136C858.914 35.1136 863.606 37.9893 866.084 42.5677C869.036 42.719 872.706 43.2677 875.865 45.0082C880.69 42.3217 885.987 40.846 891.095 40.846C897.035 40.846 902.03 42.7001 905.606 45.9352C910.922 42.5487 916.749 40.846 922.935 40.846C929.122 40.846 933.738 42.7001 937.238 45.9163C942.024 42.6433 947.454 40.846 952.751 40.846C956.743 40.846 960.338 41.8298 963.289 43.5704C966.373 41.6406 970.516 40.1649 975.946 40.1649C983.835 40.1649 988.943 43.3055 991.989 46.1623C998.648 42.0758 1006.73 40.0704 1016.64 40.0704C1046.32 40.0704 1049.54 60.8434 1049.54 69.7542C1049.54 71.1731 1049.48 72.7812 1049.41 74.4083C1052.62 72.9137 1056.26 72.0812 1060.15 72.0812C1063.45 72.0812 1066.49 72.6866 1069.27 73.7839C1069.27 72.838 1069.27 71.892 1069.27 71.0028C1069.27 68.0893 1069.23 62.9244 1069.18 58.5731C1063.07 55.8866 1060.25 50.192 1060.25 44.8001C1060.25 37.3082 1064.3 31.9541 1067.34 28.5676C1072.55 22.646 1080.7 18.8811 1088.49 18.8811C1101.87 18.8811 1111.2 28.0947 1111.2 41.3001C1111.2 41.3947 1111.2 41.5082 1111.2 41.6217C1113.22 41.5082 1115.09 41.5082 1116.66 41.5082C1120.05 41.5082 1127.22 41.5082 1133.07 44.592C1138.87 41.6028 1146.14 41.6028 1149.96 41.6028C1157.87 41.6028 1171.11 44.0623 1171.11 60.5217C1171.11 66.1974 1169.14 70.7947 1165.11 74.5975C1165 74.9002 1164.85 75.3353 1164.62 76.0353L1164.51 76.338C1163.7 78.5704 1163.19 79.9137 1162.73 81.1245C1161.54 84.265 1160.74 86.3272 1155.09 103.146L1154.65 105.795C1153.18 114.743 1159.99 122.916 1169.05 123.068C1172.53 123.125 1175.39 123.181 1176.3 123.181H1248.74C1284.76 123.181 1310.88 146.944 1310.88 179.673C1310.88 191.46 1308.12 201.336 1302.43 209.887C1300.02 213.5 1299.72 218.098 1301.84 221.882C1302.45 222.96 1303.03 224.038 1303.64 225.23L1308.16 233.895C1310.15 237.698 1311.74 240.46 1312.91 242.068C1313.38 242.73 1313.95 243.355 1314.52 243.865C1322.52 251.092 1326.08 259.057 1326.08 269.69C1326.08 273.814 1325.4 277.674 1324.07 281.174C1323.79 281.911 1323.52 282.687 1323.43 283.482C1322.71 289.952 1326.85 295.155 1332.32 296.384C1334.36 296.857 1336.29 297.501 1338.07 298.295C1341.02 299.62 1344.43 299.638 1347.38 298.352C1352.98 295.93 1358.64 295.42 1362.38 295.42H1459.51C1462.99 295.42 1466.4 295.892 1469.61 296.838C1471.73 297.463 1473.98 297.463 1476.14 296.82C1479.22 295.892 1482.42 295.42 1485.69 295.42H1530.32C1535.98 295.42 1541.15 296.479 1545.65 298.579C1548.75 300.036 1552.33 300.036 1555.41 298.579C1559.93 296.479 1565.1 295.401 1570.75 295.401H1595.99C1613.36 295.401 1625.94 307.925 1625.94 325.179C1625.94 334.449 1622.7 342.13 1616.03 348.657L1615.16 349.509L1614.53 350.549L1613.89 351.798C1606.55 366.63 1598.79 381.009 1590.49 396.352L1585.77 405.074C1584.87 406.758 1584.37 408.668 1584.37 410.579V411.922C1584.37 415.158 1585.76 418.279 1588.14 420.455C1594.61 426.377 1597.86 434.058 1597.52 442.779C1597.33 450.801 1593.83 458.425 1587.93 463.704C1583.77 467.431 1576.32 471.858 1564.45 471.858H1521.11C1499.41 471.858 1488.72 457.763 1487.76 443.801C1487.59 441.379 1486.72 439.033 1485.15 437.198C1481.95 433.452 1477.1 432.147 1472.68 433.547C1468.1 435.023 1464.96 439.09 1464.66 443.896C1464.18 451.482 1460.7 458.709 1455.1 463.704C1450.94 467.431 1443.49 471.858 1431.62 471.858H1389.38C1379.41 471.858 1370.97 468.812 1364.97 463.079C1360.41 458.728 1353.09 458.823 1348.68 463.325C1343.07 469.058 1335.72 471.839 1326.23 471.839H1235.85C1225.84 471.839 1216.86 467.677 1211.2 460.412C1209.03 457.612 1205.73 455.985 1202.18 455.966H1202.08C1198.54 455.966 1195.25 457.593 1193.02 460.336C1188.76 465.596 1180.61 471.839 1165.93 471.839H1052.53C1046.49 471.839 1040.74 470.136 1035.88 466.939C1031.95 464.347 1026.93 464.46 1023.03 467.128C1018.51 470.212 1013.08 473.844 1007.33 473.844H913.211C901.273 473.844 860.825 464.158 848.073 454.925C846.901 454.074 842.644 449.458 835.02 438.163C832.844 434.947 829.287 433.036 825.409 433.036C825.295 433.036 825.201 433.036 825.087 433.036C821.095 433.15 817.501 435.25 815.457 438.674C808.136 450.933 801.382 460.506 797.825 463.685C793.663 467.412 786.209 471.839 774.347 471.839H732.101C719.785 471.839 709.777 467.147 703.893 458.614C702.096 456.004 699.258 454.244 696.137 453.79C692.977 453.317 689.704 454.187 687.188 456.193C672.62 467.733 652.907 473.844 630.186 473.844C621.691 473.844 604.967 472.993 588.375 467.336C585.272 466.277 581.867 466.56 578.991 468.187C574.697 470.609 569.929 471.839 564.802 471.839H515.235C509.238 471.839 503.505 470.174 498.681 466.996C494.727 464.404 489.657 464.441 485.759 467.109C481.238 470.193 475.808 471.82 470.057 471.82H277.463C267.739 471.82 260.001 470.25 253.815 467.052C250.315 465.236 246.115 465.274 242.728 467.298C237.658 470.306 231.661 471.839 224.888 471.839H181.602H130.899L131.013 471.877Z" fill="#FFA9E9"/>
<path d="M1060.15 83.4515C1052 83.4515 1046.95 89.2786 1046.95 96.5435C1046.95 103.808 1052 108.765 1060.15 108.765C1068.31 108.765 1072.38 104.111 1072.38 96.5435C1072.38 88.9759 1067.91 83.4515 1060.15 83.4515Z" fill="white"/>
<path d="M526.757 51.5164C519.473 51.5164 514.914 54.5245 512.397 58.4029C511.13 60.0488 510.562 61.6948 509.2 61.6948C508.141 61.6948 507.838 61.1083 507.838 58.4975C507.838 54.2218 505.019 51.7055 500.365 51.7055C497.073 51.7055 493.573 53.2569 491.057 55.3001C487.652 58.1191 485.041 61.2218 485.135 65.384C485.23 68.7894 487.746 69.8488 491.435 69.8488C494.935 69.8488 495.219 71.4002 495.219 76.7353V104.206C495.219 108.179 494.822 110.127 492.4 112.057C489.487 114.479 488.427 115.841 488.427 121.081C488.427 127.684 499.778 128.933 509.881 128.838C517.07 128.838 519.189 126.208 519.189 122.046C519.189 117.487 517.543 115.633 514.232 113.798C512 112.625 511.622 111.754 511.508 109.049C511.414 106.041 511.319 104.3 512.776 104.206C513.835 104.206 514.914 105.171 516.843 105.946C518.584 106.722 520.816 107.498 525.092 107.498C540.908 107.498 548.381 94.784 548.381 78.0975C548.381 62.3758 539.754 51.5164 526.738 51.5164H526.757ZM522.878 92.8543C516.768 93.7246 514.232 90.5273 512.984 81.5975C512.019 74.9002 513.57 69.1677 519.189 68.2029C525.016 67.3326 528.119 72.0813 529.178 79.857C530.238 87.8218 528.213 92.1732 522.878 92.8543Z" fill="white"/>
<path d="M611.21 90.9245C610.037 90.9245 609.375 91.1137 608.297 91.1137C606.745 91.1137 605.97 89.7515 605.97 88.011C605.97 78.3055 607.918 66.6704 607.918 59.9731C607.918 54.5433 604.721 52.2163 599.178 52.2163C594.618 52.2163 590.835 53.6731 587.827 55.6217C583.948 58.2515 581.318 62.0352 581.318 65.7055C581.318 68.5244 583.551 69.2055 586.275 69.2055C588.016 69.2055 588.697 70.4731 588.697 72.4028C588.697 74.4461 588.508 79.1001 588.413 80.9353C588.129 86.5731 585.802 92.2867 579.975 92.2867C576.967 92.2867 574.924 91.0191 574.924 87.7272C574.924 76.1866 576.57 68.619 576.57 60.6542C576.57 55.0163 573.278 52.2163 567.356 52.2163C562.986 52.2163 558.824 53.9569 555.608 56.1893C551.729 58.9136 549.194 62.6974 549.194 66.4812C549.194 69.6785 551.711 70.1704 554.832 70.1704C557.159 70.1704 557.556 71.438 557.556 74.1434C557.556 78.0218 556.1 84.6245 556.1 92.7786C556.1 102.579 562.4 108.103 573.089 108.103C580.751 108.103 584.932 105 586.767 102.276C588.508 99.5515 588.905 98.3975 590.362 98.3975C591.043 98.3975 591.535 99.0786 591.818 100.914C592.594 105.189 594.145 107.989 601.24 107.989C608.713 107.989 614.143 102.257 614.143 95.0867C614.143 92.3623 612.78 90.9056 611.229 90.9056L611.21 90.9245Z" fill="white"/>
<path d="M652.888 51.5164C645.604 51.5164 641.045 54.5245 638.529 58.4029C637.261 60.0488 636.694 61.6948 635.331 61.6948C634.272 61.6948 633.969 61.1083 633.969 58.4975C633.969 54.2218 631.15 51.7055 626.496 51.7055C623.204 51.7055 619.704 53.2569 617.188 55.3001C613.783 58.1191 611.172 61.2218 611.267 65.384C611.361 68.7894 613.877 69.8488 617.567 69.8488C621.067 69.8488 621.35 71.4002 621.35 76.7353V104.206C621.35 108.179 620.953 110.127 618.531 112.057C615.618 114.479 614.559 115.841 614.559 121.081C614.559 127.684 625.91 128.933 636.012 128.838C643.202 128.838 645.321 126.208 645.321 122.046C645.321 117.487 643.675 115.633 640.364 113.798C638.131 112.625 637.734 111.754 637.639 109.049C637.545 106.041 637.45 104.3 638.907 104.206C639.966 104.206 641.045 105.171 642.975 105.946C644.715 106.722 646.948 107.498 651.223 107.498C667.039 107.498 674.512 94.784 674.512 78.0975C674.512 62.3758 665.885 51.5164 652.869 51.5164H652.888ZM649.01 92.8543C642.899 93.7246 640.383 90.5273 639.115 81.5975C638.15 74.9002 639.702 69.1677 645.321 68.2029C651.148 67.3326 654.25 72.0813 655.31 79.857C656.369 87.8218 654.345 92.1732 649.01 92.8543Z" fill="white"/>
<path d="M730.115 91.2083C727.788 89.4678 727.107 87.7083 723.607 83.1489C721.866 80.7272 718.272 76.9435 718.272 74.711C718.272 73.4434 718.953 72.7624 721.185 71.1164C724.78 68.3921 725.745 68.0137 728.942 66.7461C732.631 65.384 733.217 63.8326 733.217 60.238C733.217 55.2812 732.253 53.2569 721.374 53.2569C707.696 53.2569 705.653 54.8083 705.653 59.6704C705.653 63.3596 706.826 64.6272 709.342 65.0056C712.445 65.4975 711.764 66.7461 708.377 69.2813C701.585 74.4272 701.188 74.8056 700.223 74.8056C698.956 74.8056 699.05 73.2543 699.05 65.5921C699.05 55.5083 700.696 47.638 700.696 41.6218C700.696 34.5461 696.231 30.2704 688.947 30.2704C684.577 30.2704 679.923 32.5028 676.631 36.0974C674.115 38.6136 672.167 41.1488 672.167 44.6299C672.167 47.9218 674.399 48.811 678.183 48.811C681.285 48.811 681.38 49.492 681.475 52.6894C681.664 59.3867 681.664 73.8407 681.475 83.9435C681.38 89.0894 680.207 90.357 678.372 92.1921C675.648 94.5192 674.966 96.2597 674.966 99.5705C674.966 105.984 677.596 107.138 690.972 107.138C700.583 107.138 703.099 105.965 703.099 98.8894C703.099 94.6138 701.831 93.5543 700.374 92.2867C699.315 91.4165 698.539 90.3381 698.539 87.5381C698.539 85.9867 699.126 85.3056 701.264 84.2462C703.401 83.1867 704.177 83.1867 706.012 85.1164C707.28 86.384 708.528 88.3137 708.926 88.9948C709.985 91.1327 709.418 92.4002 708.339 93.6489C707.166 94.9165 706.296 95.7867 706.296 99.0786C706.296 105.965 709.796 106.835 719.691 106.835C730.853 106.835 733.463 105.965 733.463 98.4921C733.463 95.6732 732.972 93.4408 730.058 91.2083H730.115Z" fill="white"/>
<path d="M796.501 90.9245C795.328 90.9245 794.666 91.1137 793.587 91.1137C792.036 91.1137 791.26 89.7515 791.26 88.011C791.26 78.3055 793.209 66.6704 793.209 59.9731C793.209 54.5433 790.012 52.2163 784.468 52.2163C779.909 52.2163 776.125 53.6731 773.117 55.6217C769.239 58.2515 766.609 62.0352 766.609 65.7055C766.609 68.5244 768.841 69.2055 771.566 69.2055C773.306 69.2055 773.987 70.4731 773.987 72.4028C773.987 74.4461 773.798 79.1001 773.704 80.9353C773.42 86.5731 771.093 92.2867 765.266 92.2867C762.258 92.2867 760.214 91.0191 760.214 87.7272C760.214 76.1866 761.86 68.619 761.86 60.6542C761.86 55.0163 758.568 52.2163 752.647 52.2163C748.277 52.2163 744.115 53.9569 740.898 56.1893C737.02 58.9136 734.485 62.6974 734.485 66.4812C734.485 69.6785 737.001 70.1704 740.123 70.1704C742.45 70.1704 742.847 71.438 742.847 74.1434C742.847 78.0218 741.39 84.6245 741.39 92.7786C741.39 102.579 747.69 108.103 758.379 108.103C766.041 108.103 770.222 105 772.058 102.276C773.798 99.5515 774.195 98.3975 775.652 98.3975C776.333 98.3975 776.825 99.0786 777.109 100.914C777.885 105.189 779.436 107.989 786.53 107.989C794.003 107.989 799.433 102.257 799.433 95.0867C799.433 92.3623 798.071 90.9056 796.52 90.9056L796.501 90.9245Z" fill="white"/>
<path d="M826.922 91.8894C824.785 90.1489 824.501 88.9759 824.293 86.157C823.706 78.8732 824.785 63.8326 825.163 56.265C825.749 48.3001 825.939 43.8353 825.939 41.3191C825.939 33.9407 820.982 30.2515 814.587 30.2515C809.536 30.2515 804.693 32.9758 801.874 36.1731C799.244 39.0866 797.693 41.6974 797.693 44.8191C797.693 47.9407 800.02 48.792 803.217 48.792C805.941 48.792 806.414 49.2839 806.509 52.292C806.604 56.265 806.698 66.2732 806.698 71.0218C806.698 75.3921 806.698 80.5381 806.509 83.83C806.225 88.5786 805.828 90.5273 803.596 92.2678C800.587 94.6894 800.493 96.8273 800.493 99.457C800.493 106.646 804.371 107.308 815.344 107.308C827.66 107.308 830.195 104.395 830.195 98.7759C830.195 95.3705 829.136 93.5354 826.903 91.8894H826.922Z" fill="white"/>
<path d="M861.014 69.8677C867.901 69.8677 870.72 69.9623 870.909 64.8164C871.098 61.8082 871.401 60.4461 871.401 58.2136C871.401 53.8434 869.168 53.8434 862.755 53.8434C857.42 53.8434 856.644 54.4298 856.644 50.4379C856.644 47.4298 855.093 46.465 853.144 46.465C848.774 46.465 845.86 49.4731 839.749 52.6704C830.631 57.3244 828.587 56.0758 828.587 63.0569C828.587 66.6515 828.587 69.0731 832.768 69.0731C836.458 69.0731 836.95 68.6758 836.95 72.2704C836.95 78.9677 835.985 84.8894 835.985 90.3191C835.985 101.292 844.044 108.084 855.301 108.084C865.384 108.084 871.117 102.068 871.306 94.6894C871.401 91.284 870.53 90.5083 868.676 90.5083C866.633 90.5083 863.72 91.3786 860.617 91.3786C857.23 91.3786 855.187 89.4299 855.187 86.0434C855.187 83.5272 855.282 79.3461 855.282 75.3731C855.282 69.9434 853.825 69.8488 861.014 69.8488V69.8677Z" fill="white"/>
<path d="M934.968 90.9245C933.795 90.9245 933.132 91.1137 932.054 91.1137C930.503 91.1137 929.727 89.7515 929.727 88.011C929.727 78.3055 931.676 66.6704 931.676 59.9731C931.676 54.5433 928.478 52.2163 922.935 52.2163C918.376 52.2163 914.592 53.6731 911.584 55.6217C907.705 58.2515 905.076 62.0352 905.076 65.7055C905.076 68.5244 907.308 69.2055 910.032 69.2055C911.773 69.2055 912.454 70.4731 912.454 72.4028C912.454 74.4461 912.265 79.1001 912.17 80.9353C911.887 86.5731 909.56 92.2867 903.733 92.2867C900.724 92.2867 898.681 91.0191 898.681 87.7272C898.681 76.1866 900.327 68.619 900.327 60.6542C900.327 55.0163 897.035 52.2163 891.114 52.2163C886.743 52.2163 882.581 53.9569 879.365 56.1893C875.487 58.9136 872.952 62.6974 872.952 66.4812C872.952 69.6785 875.468 70.1704 878.589 70.1704C880.916 70.1704 881.314 71.438 881.314 74.1434C881.314 78.0218 879.857 84.6245 879.857 92.7786C879.857 102.579 886.157 108.103 896.846 108.103C904.508 108.103 908.689 105 910.524 102.276C912.265 99.5515 912.662 98.3975 914.119 98.3975C914.8 98.3975 915.292 99.0786 915.576 100.914C916.351 105.189 917.903 107.989 924.997 107.989C932.47 107.989 937.9 102.257 937.9 95.0867C937.9 92.3623 936.538 90.9056 934.986 90.9056L934.968 90.9245Z" fill="white"/>
<path d="M975.946 51.5164C970.213 51.5164 967.413 54.1272 965.181 57.5326C962.948 60.7299 962.551 61.9029 961.397 61.9029C959.94 61.9029 960.224 60.8434 960.224 58.3083C960.224 54.6191 957.405 52.1974 952.751 52.1974C949.251 52.1974 945.675 53.6542 942.667 55.9812C939.565 58.4975 937.521 61.8083 937.521 65.4975C937.521 69.1867 940.038 69.7732 943.538 69.7732C946.262 69.7732 947.605 70.0569 947.605 73.2732C947.605 77.2461 947.7 83.2624 947.321 87.7272C947.038 91.0191 945.959 92.2867 943.727 93.5543C940.813 95.3894 940.34 98.1137 940.34 100.838C940.34 107.63 944.124 107.346 958.389 107.346C972.654 107.346 975.075 105.7 975.075 100.157C975.075 95.3137 973.335 94.2354 969.154 92.3056C965.465 90.7543 965.086 89.4867 964.878 86.7813C964.481 82.3164 964.386 79.4975 964.481 75.0326C964.575 72.4029 965.162 69.7921 968.075 69.7921C970.402 69.7921 970.989 72.0245 972.351 74.5407C973.619 76.9624 975.454 77.9461 978.462 77.9461C985.348 77.9461 988.262 73.8786 988.262 66.5948C988.356 57.4758 984.383 51.5542 975.946 51.5542V51.5164Z" fill="white"/>
<path d="M1042.07 91.1137C1040.89 91.1137 1040.02 91.2083 1039.25 91.2083C1037.98 91.2083 1037.11 90.4326 1037.11 88.5786C1037.11 86.157 1038.17 75.7704 1038.17 69.7542C1038.17 57.7218 1031.57 51.4218 1016.62 51.4218C1008.86 51.4218 1002.07 52.8785 996.719 56.5677C993.029 58.9893 990.305 62.4893 990.305 66.9542C990.305 72.5921 994.581 74.8056 999.821 74.8056C1004.57 74.8056 1006.61 72.5731 1007.58 68.7894C1008.45 65.7812 1009.81 64.8164 1013.1 64.8164C1017.85 64.8164 1019.8 66.9542 1019.89 72.4786C1019.99 77.4353 1019.21 77.4353 1017.66 77.4353C1015.71 77.4353 1013.78 76.4704 1008.05 76.4704C996.7 76.4704 989.908 82.3921 989.908 92.7786C989.908 100.252 993.294 108.216 1005.82 108.216C1011.06 108.216 1014.35 106.571 1016.3 104.243C1018.13 102.011 1018.44 100.062 1020.18 100.062C1021.73 100.062 1021.54 102.011 1023.77 104.433C1026.1 107.157 1029.5 108.122 1033.08 108.122C1041.33 108.122 1044.92 100.554 1044.92 95.8056C1044.92 92.7029 1044.24 91.1516 1042.01 91.1516L1042.07 91.1137ZM1012.67 94.6137C1009.94 94.6137 1008.49 93.0624 1008.49 90.0543C1008.49 85.8732 1011.59 83.7542 1015.68 83.7542C1019.36 83.7542 1019.86 83.5651 1019.86 86.9515C1019.86 91.2272 1016.85 94.6137 1012.67 94.6137Z" fill="white"/>
<path d="M1100.81 91.8894C1098.67 90.1489 1098.39 88.9759 1098.2 86.157C1097.61 78.8732 1098.69 63.8326 1099.07 56.265C1099.66 48.3001 1099.84 43.8353 1099.84 41.3191C1099.84 33.9407 1094.89 30.2515 1088.49 30.2515C1083.44 30.2515 1078.6 32.9758 1075.78 36.1731C1073.17 39.0866 1071.6 41.6974 1071.6 44.8191C1071.6 47.9407 1073.93 48.792 1077.12 48.792C1079.85 48.792 1080.32 49.2839 1080.42 52.292C1080.51 56.265 1080.6 66.2732 1080.6 71.0218C1080.6 75.3921 1080.6 80.5381 1080.42 83.83C1080.13 88.5786 1079.73 90.5273 1077.5 92.2678C1074.49 94.6894 1074.4 96.8273 1074.4 99.457C1074.4 106.646 1078.28 107.308 1089.25 107.308C1101.57 107.308 1104.1 104.395 1104.1 98.7759C1104.1 95.3705 1103.04 93.5354 1100.81 91.8894Z" fill="white"/>
<path d="M1149.94 52.9731C1137.91 52.9731 1135.77 55.111 1135.77 59.9542C1135.77 62.9623 1136.55 64.3245 1138.29 65.5921C1140.33 67.238 1141.39 69.3759 1140.52 72.2894C1138.38 79.9516 1138.38 78.7975 1136.24 85.684C1135.47 88.4083 1135.28 90.1489 1134.01 90.1489C1132.84 90.1489 1133.05 89.184 1132.18 86.2705C1128.3 73.2732 1128.58 75.1083 1127.33 70.4543C1126.65 67.8434 1126.94 66.9542 1128.39 65.9894C1129.94 64.6272 1130.63 63.7569 1130.63 60.938C1130.63 54.9218 1127.81 52.8785 1116.64 52.8785C1104.33 52.8785 1101.11 54.2407 1101.11 60.938C1101.11 66.084 1102.29 66.8596 1103.34 67.6353C1105.18 69.0921 1106.07 69.8678 1107.62 74.0489C1110.91 82.7894 1114.81 93.2705 1116.93 98.984C1119.75 106.646 1121.58 107.233 1128.47 107.233H1135.66C1141.67 107.233 1142.26 105.776 1144.29 99.5705C1152.04 76.4705 1150.79 80.7462 1153.8 72.4975C1155.07 68.7137 1155.54 68.0326 1157.3 66.3867C1159.04 64.7407 1159.72 63.1894 1159.72 60.5596C1159.72 55.4137 1158.27 52.9921 1149.92 52.9921L1149.94 52.9731Z" fill="white"/>
<path d="M337.568 269.52C337.568 266.587 338.476 263.844 342.317 261.29C346.895 257.998 348.163 254.706 347.992 246.476V176.419C348.182 168.19 346.536 164.898 341.957 161.606C338.306 158.863 337.379 156.308 337.379 153.187C337.379 148.798 339.763 143.86 347.255 144.049H435.435C441.281 144.049 444.024 145.695 445.859 151.181C448.243 158.673 452.803 173.506 452.803 180.449C452.803 185.746 450.419 188.49 446.578 188.49C439.995 188.49 427.376 177.876 422.249 173.846C416.573 169.098 409.8 164.33 403.046 164.33C393.908 164.33 390.049 170.554 390.049 182.265V187.392C390.049 195.982 391.695 197.817 397.919 197.817H429.741C433.77 197.817 436.324 200.371 436.324 204.211C436.324 209.887 432.843 218.665 429.003 223.244C427.168 225.438 424.065 226.725 420.962 226.725C414.738 226.725 404.862 220.69 398.827 220.69C393.341 220.69 390.238 225.628 390.238 233.138V245.209C390.049 253.798 392.243 257.109 398.108 260.76C402.857 263.503 404.143 266.436 403.954 269.538C403.954 274.117 400.662 279.055 390.598 278.865H347.614C339.933 278.865 337.549 273.928 337.549 269.538L337.568 269.52Z" fill="white"/>
<path d="M452.613 210.436C452.613 172.011 483.527 142.025 522.859 142.195C566.391 142.195 596.945 172.919 596.945 216.641C596.945 253.23 566.221 281.949 527.248 281.949C483.337 281.949 452.613 252.492 452.613 210.417V210.436ZM532.564 257.26C544.464 257.26 551.048 246.457 551.048 227.255C551.048 197.798 534.948 167.244 516.843 166.884C505.132 166.695 498.548 176.76 498.548 194.865C498.548 224.322 514.289 257.241 532.583 257.241L532.564 257.26Z" fill="white"/>
<path d="M597.362 269.52C597.362 266.587 598.27 263.844 602.11 261.29C606.689 257.998 607.956 254.706 607.786 246.476V176.419C607.975 168.19 606.329 164.898 601.751 161.606C598.099 158.863 597.172 156.308 597.172 153.187C597.172 148.798 599.556 143.86 607.048 144.049H678.58C703.269 144.049 719.918 158.863 719.918 179.73C719.918 195.092 713.334 203.511 698.88 212.479C696.875 213.765 696.496 215.582 698.52 216.509C705.104 219.8 710.231 225.476 714.98 234.803L719.558 243.582C724.307 252.719 727.05 256.39 730.361 259.322C733.842 262.425 735.109 264.619 735.109 269.747C735.109 276.141 731.818 278.884 723.947 278.884H703.269C689.175 278.884 684.785 275.403 679.677 264.071C677.672 259.492 675.288 253.817 671.448 246.874C665.772 236.071 661.194 230.225 654.61 230.225C651.677 230.225 649.861 231.682 649.861 234.803V246.514C649.672 254.744 651.507 258.036 656.804 261.517C661.004 264.071 662.102 266.814 662.102 269.936C661.913 274.136 659.169 279.074 650.202 278.903H607.389C599.707 278.903 597.324 273.965 597.324 269.576L597.362 269.52ZM653.532 204.949H654.629C666.15 204.949 674.21 196.909 674.21 185.557C674.21 174.206 666.718 166.903 655.915 166.903H655.556C651.167 166.903 649.88 168.549 649.88 172.39V201.109C649.88 203.663 650.977 204.76 653.532 204.949Z" fill="white"/>
<path d="M800.228 269.519C800.228 266.587 801.514 263.844 806.074 261.29C811.749 257.998 813.395 254.706 813.206 246.476V236.6C813.206 231.303 812.109 229.109 810.463 226.176C799.49 208.43 789.066 190.136 779.739 171.652C777.904 167.811 775.898 164.708 772.796 161.776C770.052 159.392 768.047 157.027 768.047 152.638C768.047 147.152 771.528 144.049 777.374 144.049H822.003C829.325 144.049 832.617 146.981 832.617 153.017C832.617 156.857 831.16 159.052 828.587 161.057C826.752 162.514 825.484 164.349 825.484 166.733C825.484 169.117 826.582 171.311 827.49 173.317C830.971 180.808 834.982 187.771 839.56 194.544C841.755 198.025 844.138 198.933 846.692 194.544C851.082 187.052 854.922 179.541 857.495 172.768C858.233 171.122 859.141 168.568 859.141 166.733C859.141 164.538 858.233 163.252 856.209 161.606C853.465 159.222 851.63 157.217 851.63 153.376C851.63 146.414 855.83 144.049 862.433 144.049H887.671C893.895 144.049 896.808 148.079 896.808 153.017C896.808 157.046 895.522 159.411 892.779 161.984C890.225 164.368 888.389 167.281 886.933 170.403C878.344 187.79 869.187 204.419 858.952 223.452C855.849 229.298 855.3 231.682 855.3 236.619V246.495C855.111 254.725 857.136 258.017 862.792 261.498C867.371 264.052 868.638 266.795 868.468 269.917C868.468 274.306 865.365 279.055 855.66 278.884H812.847C803.16 278.884 800.228 273.947 800.228 269.557V269.519Z" fill="white"/>
<path d="M885.987 210.436C885.987 172.011 916.9 142.025 956.232 142.195C999.765 142.195 1030.32 172.919 1030.32 216.641C1030.32 253.23 999.594 281.949 960.622 281.949C916.711 281.949 885.987 252.492 885.987 210.417V210.436ZM965.919 257.26C977.819 257.26 984.403 246.457 984.403 227.255C984.403 197.798 968.303 167.244 950.197 166.884C938.487 166.695 931.903 176.76 931.903 194.865C931.903 224.322 947.643 257.241 965.938 257.241L965.919 257.26Z" fill="white"/>
<path d="M1039.65 235.673V176.4C1039.83 168.171 1038.19 164.879 1033.61 161.587C1029.96 158.844 1029.03 156.29 1029.03 153.168C1029.03 148.779 1031.42 143.841 1038.91 144.03H1083.92C1093.43 144.03 1096.17 148.968 1096.17 153.357C1096.17 156.46 1094.89 159.033 1090.33 161.776C1084.48 164.879 1082.84 168.171 1083.01 176.419V234.046C1083.01 245.568 1091.05 251.982 1104.23 251.982C1115.21 251.982 1123.08 244.849 1123.08 234.595L1123.27 176.419C1123.46 168.19 1121.26 164.898 1115.59 161.606C1111.01 158.673 1109.74 156.119 1109.91 153.017C1109.91 148.627 1112.84 143.879 1122.36 144.049H1154.2C1161.69 144.049 1163.89 148.987 1163.89 153.376C1163.89 156.479 1162.98 159.052 1159.14 161.795C1154.56 164.898 1153.46 168.19 1153.46 176.438L1153.65 230.773C1153.65 255.463 1141.58 281.268 1097.48 281.268C1061.44 281.268 1039.66 267.552 1039.66 235.711L1039.65 235.673Z" fill="white"/>
<path d="M1167.48 269.52C1167.48 266.587 1168.39 263.844 1172.23 261.29C1176.81 257.998 1178.07 254.706 1177.9 246.476V176.419C1178.09 168.19 1176.45 164.898 1171.87 161.606C1168.22 158.863 1167.29 156.308 1167.29 153.187C1167.29 148.798 1169.67 143.86 1177.17 144.049H1248.7C1273.39 144.049 1290.04 158.863 1290.04 179.73C1290.04 195.092 1283.45 203.511 1269 212.479C1266.99 213.765 1266.61 215.582 1268.64 216.509C1275.22 219.8 1280.35 225.476 1285.1 234.803L1289.68 243.582C1294.42 252.719 1297.17 256.39 1300.48 259.322C1303.96 262.425 1305.23 264.619 1305.23 269.747C1305.23 276.141 1301.94 278.884 1294.07 278.884H1273.39C1259.29 278.884 1254.9 275.403 1249.8 264.071C1247.79 259.492 1245.41 253.817 1241.57 246.874C1235.89 236.071 1231.31 230.225 1224.73 230.225C1221.8 230.225 1219.98 231.682 1219.98 234.803V246.514C1219.79 254.744 1221.63 258.036 1226.92 261.517C1231.12 264.071 1232.22 266.814 1232.22 269.936C1232.03 274.136 1229.29 279.074 1220.32 278.903H1177.51C1169.83 278.903 1167.44 273.965 1167.44 269.576L1167.48 269.52ZM1223.63 204.949H1224.73C1236.25 204.949 1244.31 196.909 1244.31 185.557C1244.31 174.206 1236.82 166.903 1226.01 166.903H1225.66C1221.27 166.903 1219.98 168.549 1219.98 172.39V201.109C1219.98 203.663 1221.08 204.76 1223.63 204.949Z" fill="white"/>
<path d="M39.7295 441.739C39.7295 438.806 40.6376 436.063 44.4781 433.509C49.0565 430.217 50.324 426.925 50.1538 418.696V348.639C50.3429 340.409 49.0565 337.117 44.4781 333.995C40.6376 331.252 39.7295 328.698 39.7295 325.576C39.7295 321.187 41.9241 316.249 49.4159 316.249H118.375C150.026 316.249 164.291 325.576 164.291 347.352C164.291 356.679 159.353 364.001 146.186 373.139C143.991 374.595 143.991 376.62 146.186 377.717C163.023 386.136 170.326 397.468 170.326 413.209C170.326 434.436 154.964 451.085 130.994 451.085H49.7943C42.1133 451.085 39.7295 446.147 39.7295 441.758V441.739ZM97.167 372.212C102.653 369.279 108.329 367.274 113.078 363.982C118.016 360.69 120.21 355.941 120.21 350.814C120.21 342.036 114.175 336.549 101.008 336.549H98.6237C94.4238 336.549 92.3995 338.385 92.3995 342.225V369.658C92.3995 372.59 94.7832 373.498 97.1481 372.212H97.167ZM108.329 431.485C118.943 431.485 126.624 422.517 126.624 413.19C126.624 404.601 123.88 399.095 118.753 394.895C115.102 391.963 111.621 390.506 107.78 390.506C104.299 390.506 100.648 391.793 96.6184 393.798C94.0643 395.255 92.4184 397.639 92.4184 400.571V412.641C92.4184 425.639 97.9048 431.485 108.329 431.485Z" fill="white"/>
<path d="M171.65 441.739C171.65 438.806 172.558 436.063 176.399 433.509C180.977 430.217 182.245 426.925 182.074 418.695V348.639C182.264 340.409 180.618 337.117 176.039 333.825C172.388 331.082 171.461 328.528 171.461 325.406C171.461 321.017 173.845 316.079 181.337 316.268H252.869C277.558 316.268 294.206 331.082 294.206 351.949C294.206 367.312 287.622 375.73 273.168 384.698C271.163 385.985 270.785 387.801 272.809 388.728C279.393 392.02 284.52 397.695 289.268 407.022L293.847 415.801C298.595 424.939 301.339 428.609 304.649 431.541C308.13 434.644 309.398 436.839 309.398 441.966C309.398 448.36 306.106 451.104 298.236 451.104H277.558C263.463 451.104 259.074 447.623 253.966 436.29C251.96 431.712 249.577 426.036 245.736 419.093C240.061 408.29 235.482 402.444 228.898 402.444C225.966 402.444 224.15 403.901 224.15 407.022V418.733C223.961 426.963 225.796 430.255 231.093 433.736C235.293 436.29 236.39 439.033 236.39 442.155C236.201 446.355 233.458 451.293 224.49 451.123H181.677C173.996 451.123 171.612 446.185 171.612 441.795L171.65 441.739ZM227.82 377.168H228.917C240.439 377.168 248.498 369.128 248.498 357.776C248.498 346.425 241.006 339.122 230.204 339.122H229.844C225.455 339.122 224.169 340.768 224.169 344.609V373.328C224.169 375.882 225.266 376.979 227.82 377.168Z" fill="white"/>
<path d="M312.179 441.739C312.179 438.806 313.088 436.063 316.928 433.509C321.506 430.217 322.774 426.925 322.604 418.695V348.639C322.793 340.409 321.147 337.117 316.569 333.825C312.917 331.082 311.99 328.528 311.99 325.406C311.99 321.017 314.374 316.079 321.866 316.268H410.046C415.892 316.268 418.636 317.914 420.471 323.401C422.854 330.893 427.054 343.701 427.054 350.663C427.054 355.79 424.86 358.703 420.83 358.703C414.984 358.703 404.73 351.571 395.763 345.157C387.344 339.122 382.406 336.568 376.92 336.568C368.501 336.568 364.66 342.603 364.66 351.93V359.612C364.66 366.195 366.306 368.03 372.53 368.03H404.352C408.382 368.03 410.936 370.585 410.936 374.425C410.936 380.271 408.003 386.495 404.901 390.885C402.157 394.536 399.963 396.92 395.025 396.92C388.801 396.92 380.022 391.074 375.084 390.885C367.763 390.695 364.66 396.92 364.66 407.893V417.22C364.66 426.187 368.69 430.936 376.371 430.766C383.693 430.577 395.952 422.347 400.701 419.414C414.965 410.277 418.636 406.247 425.03 406.247C429.968 406.247 431.614 409.35 431.614 413.568C431.614 417.787 429.779 423.993 427.773 431.314C423.573 445.958 421.549 451.066 412.582 451.066H322.206C314.525 451.066 312.142 446.128 312.142 441.739H312.179Z" fill="white"/>
<path d="M430.1 442.098C430.1 437.709 431.935 434.966 434.3 432.771C436.854 430.387 438.33 428.382 439.786 423.804C444.535 408.441 449.851 390.695 456.984 372.022C465.024 351.344 470.889 337.987 477.473 325.747C481.673 318.066 484.794 315.493 490.281 315.493C493.024 315.493 497.224 316.041 499.797 316.041C503.448 316.041 506.57 315.493 510.051 315.493C514.989 315.493 517.543 318.236 519.737 321.887C529.424 337.249 536.197 353.349 546.072 378.058C554.302 398.736 558.691 412.093 563.08 425.071C564.367 428.912 567.28 431.655 570.023 434.587C571.669 436.593 572.578 439.336 572.578 442.269C572.578 446.109 570.932 451.047 564.896 451.047H515.329C509.483 451.047 506.362 447.017 506.362 442.079C506.362 437.501 508.556 434.587 512.037 432.014C515.689 429.46 515.878 426.717 515.878 424.144C515.878 422.139 515.689 420.493 515.329 418.847C514.781 416.463 513.135 414.647 509.843 414.647C503.808 414.458 497.394 414.458 491.359 414.458C486.062 414.458 480.386 414.647 474.9 414.647C471.608 414.647 469.773 415.933 469.054 417.939C468.505 419.585 467.957 421.231 467.957 423.425C467.957 426.168 469.413 428.552 472.894 432.204C476.546 436.044 477.473 439.147 477.473 441.89C477.473 445.92 476.186 451.028 470.151 451.028H438.5C432.824 451.028 430.081 448.096 430.081 442.06L430.1 442.098ZM483.148 391.604H501.802C504.905 391.604 505.454 389.598 504.356 385.758C501.973 377.887 497.224 367.274 493.194 359.593C491.908 357.398 490.262 357.758 489.164 359.782C485.324 367.274 480.746 378.625 479.1 385.758C478.192 389.409 479.1 391.604 483.129 391.604H483.148Z" fill="white"/>
<path d="M578.537 438.996C567.564 429.858 571.405 423.804 581.47 413.568C586.767 408.271 591.534 402.595 596.283 402.595C599.764 402.595 602.507 405.887 605.969 411.563C613.461 423.633 621.71 432.96 631.207 432.96C639.796 432.96 645.661 427.285 645.661 419.244C645.661 410.466 637.98 404.979 620.045 400.949C588.034 394.366 573.58 381.917 573.58 359.063C573.58 330.155 599.915 314.433 631.018 314.433C646.21 314.433 665.772 317.914 678.22 327.052C690.291 335.83 686.999 342.414 675.837 352.479C669.253 358.325 664.864 360.898 662.48 360.898C658.639 360.898 655.896 358.155 653.342 353.766C645.112 340.22 638.888 334.374 630.848 334.374C624.075 334.374 617.85 339.671 617.85 346.822C617.85 354.863 625.531 360.539 643.277 364.02C675.837 370.244 689.931 383.052 689.931 407.193C689.931 436.65 664.504 453.109 630.299 453.109C615.486 453.109 592.253 450.006 578.537 439.014V438.996Z" fill="white"/>
<path d="M719.596 441.739C719.596 438.806 720.882 436.063 725.442 433.509C731.117 430.217 732.763 426.925 732.574 418.696L732.763 354.295C732.763 346.066 730.758 342.036 726.179 342.036C722.698 342.036 718.688 345.139 711.725 353.198C705.501 360.69 700.374 367.293 694.339 367.293C688.304 367.293 686.847 361.617 686.847 357.039C686.847 347.901 688.493 335.452 690.688 328.509C693.431 319.371 697.082 316.249 705.142 316.249H802.29C808.874 316.249 813.073 319.541 815.098 326.125C817.841 334.544 819.846 349.358 819.846 359.782C819.846 364.171 817.103 367.274 813.263 367.274C807.776 367.274 803.198 362.885 795.876 354.276C788.195 345.498 784.525 342.017 780.325 342.017C775.576 342.017 773.382 346.047 773.382 354.276L773.571 418.677C773.382 426.906 775.406 430.198 781.063 433.679C785.641 436.233 786.909 438.977 786.739 442.098C786.739 446.487 783.636 451.236 773.93 451.066H732.214C722.528 451.066 719.596 446.128 719.596 441.739Z" fill="white"/>
<path d="M861.544 438.996C850.571 429.858 854.411 423.804 864.476 413.568C869.773 408.271 874.541 402.595 879.289 402.595C882.77 402.595 885.514 405.887 888.976 411.563C896.468 423.633 904.716 432.96 914.213 432.96C922.803 432.96 928.667 427.285 928.667 419.244C928.667 410.466 920.986 404.979 903.051 400.949C871.041 394.366 856.587 381.917 856.587 359.063C856.587 330.155 882.922 314.433 914.024 314.433C929.216 314.433 948.778 317.914 961.227 327.052C973.297 335.83 970.005 342.414 958.843 352.479C952.259 358.325 947.87 360.898 945.486 360.898C941.646 360.898 938.902 358.155 936.348 353.766C928.119 340.22 921.895 334.374 913.854 334.374C907.081 334.374 900.857 339.671 900.857 346.822C900.857 354.863 908.538 360.539 926.284 364.02C958.843 370.244 972.937 383.052 972.937 407.193C972.937 436.65 947.511 453.109 913.305 453.109C898.492 453.109 875.26 450.006 861.544 439.014V438.996Z" fill="white"/>
<path d="M967.375 442.098C967.375 437.709 969.21 434.966 971.575 432.771C974.129 430.387 975.605 428.382 977.062 423.804C981.81 408.441 987.127 390.695 994.259 372.022C1002.3 351.344 1008.16 337.987 1014.75 325.747C1018.95 318.066 1022.07 315.493 1027.56 315.493C1030.3 315.493 1034.5 316.041 1037.07 316.041C1040.72 316.041 1043.85 315.493 1047.33 315.493C1052.26 315.493 1054.82 318.236 1057.01 321.887C1066.7 337.249 1073.47 353.349 1083.35 378.058C1091.58 398.736 1095.97 412.093 1100.36 425.071C1101.64 428.912 1104.56 431.655 1107.3 434.587C1108.94 436.593 1109.85 439.336 1109.85 442.269C1109.85 446.109 1108.21 451.047 1102.17 451.047H1052.6C1046.76 451.047 1043.64 447.017 1043.64 442.079C1043.64 437.501 1045.83 434.587 1049.31 432.014C1052.96 429.46 1053.15 426.717 1053.15 424.144C1053.15 422.139 1052.96 420.493 1052.6 418.847C1052.06 416.463 1050.41 414.647 1047.12 414.647C1041.08 414.458 1034.67 414.458 1028.63 414.458C1023.34 414.458 1017.66 414.647 1012.18 414.647C1008.88 414.647 1007.05 415.933 1006.33 417.939C1005.78 419.585 1005.23 421.231 1005.23 423.425C1005.23 426.168 1006.69 428.552 1010.17 432.204C1013.82 436.044 1014.75 439.147 1014.75 441.89C1014.75 445.92 1013.46 451.028 1007.43 451.028H975.775C970.1 451.028 967.356 448.096 967.356 442.06L967.375 442.098ZM1020.42 391.604H1039.08C1042.18 391.604 1042.73 389.598 1041.63 385.758C1039.25 377.887 1034.5 367.274 1030.47 359.593C1029.18 357.398 1027.54 357.758 1026.44 359.782C1022.6 367.274 1018.02 378.625 1016.38 385.758C1015.47 389.409 1016.38 391.604 1020.4 391.604H1020.42Z" fill="white"/>
<path d="M1112.43 441.739C1112.43 438.806 1113.33 436.063 1117.17 433.509C1121.75 430.217 1123.02 426.925 1122.85 418.695V348.639C1123.04 340.409 1121.39 337.117 1116.82 333.825C1113.16 331.082 1112.24 328.528 1112.24 325.406C1112.24 321.017 1114.62 316.079 1122.11 316.268H1210.29C1216.14 316.268 1218.88 317.914 1220.72 323.401C1223.1 330.893 1227.66 345.725 1227.66 352.668C1227.66 357.966 1225.28 360.709 1221.44 360.709C1214.85 360.709 1202.23 350.095 1197.11 346.066C1191.43 341.317 1184.66 336.549 1177.9 336.549C1168.77 336.549 1164.91 342.774 1164.91 354.484V359.612C1164.91 368.201 1166.55 370.036 1172.78 370.036H1204.62C1208.65 370.036 1211.2 372.59 1211.2 376.431C1211.2 382.106 1207.72 390.885 1203.88 395.463C1202.04 397.658 1198.94 398.944 1195.84 398.944C1189.61 398.944 1179.74 392.909 1173.7 392.909C1168.22 392.909 1165.11 397.847 1165.11 405.358V417.428C1164.93 426.017 1167.12 429.328 1172.99 432.979C1177.73 435.723 1179.02 438.655 1178.83 441.758C1178.83 446.336 1175.54 451.274 1165.47 451.085H1122.49C1114.81 451.085 1112.43 446.147 1112.43 441.758V441.739Z" fill="white"/>
<path d="M1225.84 441.739C1225.84 438.806 1226.75 436.063 1230.59 433.509C1235.17 430.217 1236.44 426.925 1236.27 418.695V348.639C1236.46 340.409 1234.81 337.117 1230.23 333.825C1226.58 331.082 1225.66 328.528 1225.66 325.406C1225.66 321.017 1228.04 316.079 1235.53 316.268H1323.71C1329.56 316.268 1332.3 317.914 1334.14 323.401C1336.52 330.893 1340.72 343.701 1340.72 350.663C1340.72 355.79 1338.52 358.703 1334.5 358.703C1328.65 358.703 1318.4 351.571 1309.43 345.157C1301.01 339.122 1296.07 336.568 1290.58 336.568C1282.17 336.568 1278.33 342.603 1278.33 351.93V359.612C1278.33 366.195 1279.97 368.03 1286.2 368.03H1318.04C1322.07 368.03 1324.62 370.585 1324.62 374.425C1324.62 380.271 1321.69 386.495 1318.58 390.885C1315.84 394.536 1313.65 396.92 1308.71 396.92C1302.48 396.92 1293.71 391.074 1288.77 390.885C1281.45 390.695 1278.34 396.92 1278.34 407.893V417.22C1278.34 426.187 1282.37 430.936 1290.05 430.766C1297.38 430.577 1309.64 422.347 1314.38 419.414C1328.65 410.277 1332.32 406.247 1338.71 406.247C1343.65 406.247 1345.3 409.35 1345.3 413.568C1345.3 417.787 1343.46 423.993 1341.46 431.314C1337.26 445.958 1335.23 451.066 1326.27 451.066H1235.89C1228.21 451.066 1225.83 446.128 1225.83 441.739H1225.84Z" fill="white"/>
<path d="M1376.82 441.739C1376.82 438.806 1378.1 436.063 1382.66 433.509C1388.34 430.217 1389.98 426.925 1389.79 418.696L1389.98 354.295C1389.98 346.066 1387.98 342.036 1383.4 342.036C1379.92 342.036 1375.91 345.139 1368.95 353.198C1362.72 360.69 1357.59 367.293 1351.56 367.293C1345.52 367.293 1344.07 361.617 1344.07 357.039C1344.07 347.901 1345.71 335.452 1347.91 328.509C1350.65 319.371 1354.3 316.249 1362.36 316.249H1459.49C1466.08 316.249 1470.29 319.541 1472.3 326.125C1475.04 334.544 1477.05 349.358 1477.05 359.782C1477.05 364.171 1474.3 367.274 1470.46 367.274C1464.98 367.274 1460.4 362.885 1453.08 354.276C1445.4 345.498 1441.73 342.017 1437.53 342.017C1432.78 342.017 1430.58 346.047 1430.58 354.276L1430.77 418.677C1430.58 426.906 1432.61 430.198 1438.26 433.679C1442.84 436.233 1444.11 438.977 1443.94 442.098C1443.94 446.487 1440.84 451.236 1431.13 451.066H1389.42C1379.73 451.066 1376.8 446.128 1376.8 441.739H1376.82Z" fill="white"/>
<path d="M1508.55 441.739C1508.55 438.806 1509.83 436.063 1514.39 433.509C1520.07 430.217 1521.72 426.925 1521.53 418.695V408.82C1521.53 403.522 1520.43 401.328 1518.78 398.395C1507.81 380.649 1497.39 362.355 1488.04 343.89C1486.2 340.049 1484.2 336.947 1481.1 334.014C1478.35 331.63 1476.35 329.266 1476.35 324.876C1476.35 319.39 1479.83 316.287 1485.68 316.287H1530.3C1537.63 316.287 1540.92 319.22 1540.92 325.255C1540.92 329.095 1539.46 331.29 1536.89 333.295C1535.05 334.752 1533.79 336.587 1533.79 338.971C1533.79 341.355 1534.88 343.549 1535.79 345.555C1539.27 353.047 1543.28 360.009 1547.86 366.782C1550.06 370.263 1552.44 371.171 1554.99 366.782C1559.38 359.29 1563.22 351.779 1565.8 345.006C1566.53 343.36 1567.44 340.806 1567.44 338.971C1567.44 336.776 1566.53 335.49 1564.51 333.844C1561.77 331.46 1559.93 329.455 1559.93 325.614C1559.93 318.671 1564.13 316.287 1570.73 316.287H1595.97C1602.2 316.287 1605.11 320.317 1605.11 325.255C1605.11 329.284 1603.82 331.649 1601.08 334.222C1598.53 336.606 1596.69 339.52 1595.23 342.641C1586.64 360.028 1577.49 376.676 1567.25 395.69C1564.15 401.536 1563.6 403.92 1563.6 408.858V418.733C1563.41 426.963 1565.44 430.255 1571.09 433.736C1575.67 436.29 1576.94 439.033 1576.77 442.155C1576.77 446.544 1573.67 451.293 1563.96 451.123H1521.15C1511.46 451.123 1508.53 446.185 1508.53 441.795L1508.55 441.739Z" fill="white"/>
</svg>
