<svg width="27" height="27" viewBox="0 0 27 27" fill="none" xmlns="http://www.w3.org/2000/svg">
<path opacity="0.5" fill-rule="evenodd" clip-rule="evenodd" d="M24 27H3C1.34315 27 0 25.6569 0 24V3C0 1.34315 1.34315 0 3 0H24C25.6569 0 27 1.34315 27 3V24C27 25.6569 25.6569 27 24 27ZM19.2433 23.25H23.25V15.0192C23.25 11.5367 21.2759 9.85283 18.5184 9.85283C15.7597 9.85283 14.5988 12.0011 14.5988 12.0011V10.25H10.7375V23.25H14.5988V16.4258C14.5988 14.5973 15.4405 13.5092 17.0515 13.5092C18.5324 13.5092 19.2433 14.5548 19.2433 16.4258V23.25ZM3.74997 6.14888C3.74997 7.47363 4.81574 8.54776 6.13098 8.54776C7.44621 8.54776 8.51135 7.47363 8.51135 6.14888C8.51135 4.82414 7.44621 3.75 6.13098 3.75C4.81574 3.75 3.74997 4.82414 3.74997 6.14888ZM8.1635 23.25H4.13718V10.25H8.1635V23.25Z" fill="#FB00B1"/>
</svg>
