<svg width="258" height="59" viewBox="0 0 258 59" fill="none" xmlns="http://www.w3.org/2000/svg">
<g clip-path="url(#clip0_4141_137)">
<path d="M64 55.79C61.05 55.79 58.61 55.5 56.56 54.9C52.77 53.78 49.91 51.42 48.45 48.27C48.24 48.21 48.04 48.16 47.84 48.09C46.27 48.56 44.61 48.8 42.87 48.8C39.8 48.8 36.98 48.08 34.57 46.7C34.29 46.84 34.01 46.98 33.73 47.11C32.47 51.71 28.4 55.81 21.31 55.81H20.98C18.01 55.81 15.58 55.52 13.52 54.91C6.75997 52.92 4.35997 47.54 4.35997 43.53C4.35997 40.4 5.08997 37.9 6.65997 35.73V32.78C4.57997 30.8 3.33997 28.01 3.24997 25.04C3.14997 20.81 5.04997 16.97 8.75997 13.91L8.82997 13.85C11.5 11.7 14.87 10.48 18.1 10.48C19.51 10.48 20.87 10.69 22.16 11.12C23.7 10.65 25.34 10.42 27.03 10.42C29.6 10.42 32.1 10.99 34.34 12.09C36.47 11.14 38.72 10.65 40.94 10.65C42.77 10.65 44.54 10.98 46.13 11.61C47.92 10.97 49.79 10.65 51.71 10.65C53.32 10.65 54.85 10.89 56.27 11.38C57.87 10.79 59.53 10.49 61.15 10.49C62.56 10.49 63.92 10.7 65.21 11.13C66.56 10.72 67.98 10.49 69.44 10.44C70.22 9.3 70.99 8.52 71.34 8.18C74.26 5.11 78.42 3.27 82.48 3.27C88.11 3.27 92.86 6.31 94.97 11.05C96.18 11.11 97.47 11.26 98.78 11.63C100.56 10.99 102.41 10.66 104.19 10.66C105.97 10.66 107.79 10.99 109.38 11.62C110.2 11.33 111.04 11.11 111.9 10.95C112.66 9.72 113.42 8.87 113.78 8.48C116.68 5.22 120.99 3.26 125.31 3.26C130 3.26 134.07 5.36 136.5 8.88C137.18 8.77 137.85 8.72 138.55 8.72C141.33 8.72 143.96 9.74 145.94 11.55C146 11.56 146.06 11.58 146.11 11.59C147.86 10.97 149.67 10.65 151.43 10.65C153.19 10.65 155.03 10.98 156.62 11.61C158.41 10.97 160.28 10.65 162.2 10.65C164.01 10.65 165.71 10.97 167.28 11.58C168.94 10.97 170.66 10.65 172.34 10.65C173.52 10.65 174.68 10.8 175.78 11.09C177.17 10.65 178.65 10.42 180.18 10.42C182.32 10.42 184.32 10.84 186.13 11.68C188.53 10.82 191.22 10.38 194.13 10.38C199.16 10.38 202.91 11.8 205.58 13.95C206.2 12.02 207.3 10.19 208.85 8.47C211.75 5.21 216.06 3.25 220.38 3.25C225.94 3.25 230.63 6.26 232.73 10.97C233.89 11.08 234.99 11.26 235.99 11.54C238 11 240.01 10.91 241.76 10.91C251.37 10.91 254.77 17.49 254.77 23.12C254.77 26.07 253.81 28.77 252 30.95C251.81 31.47 251.68 31.81 251.55 32.13C251.17 33.12 250.93 33.78 249.04 39.34C248.3 41.59 246.02 48.51 236.93 48.51H234.5C231.98 48.51 229.84 48.09 228.02 47.24C225.94 48.11 223.46 48.54 220.63 48.54C218.78 48.54 216.94 48.5 215.1 48.06C213.45 48.7 211.67 49.03 209.8 49.03C207.93 49.03 205.98 48.69 204.27 48.02C202.82 48.54 201.29 48.8 199.7 48.8C198.11 48.8 196.64 48.58 195.22 48.13C193.73 48.6 192.14 48.83 190.47 48.83C187.72 48.83 185.17 48.24 182.96 47.09C182.9 47.12 182.85 47.14 182.8 47.16C180.27 48.3 177.64 48.53 174.21 48.53H173.14C171.22 48.53 169.25 48.53 167.28 48.07C165.86 48.53 164.38 48.76 162.85 48.76C161.22 48.76 159.7 48.53 158.29 48.09C156.72 48.56 155.06 48.79 153.33 48.79C150.77 48.79 148.34 48.27 146.19 47.29C144.08 48.28 141.71 48.79 139.23 48.79C136.75 48.79 134.49 48.32 132.38 47.44C130.41 48.16 128.12 48.54 125.53 48.54C123.76 48.54 121.91 48.5 120.05 48.07C118.62 48.54 117.13 48.77 115.6 48.77C113.97 48.77 112.45 48.54 111.04 48.1C109.47 48.57 107.81 48.8 106.07 48.8C103.7 48.8 101.42 48.35 99.38 47.48C96.74 48.37 94.18 48.37 92.83 48.37C91.34 48.37 89.64 48.33 87.89 47.94C86.45 48.29 84.85 48.47 83.11 48.47C81.72 48.47 79.15 48.47 76.53 47.73C75.07 52.06 71.06 55.79 64.31 55.79H63.97H63.98H64Z" fill="#FB00B1"/>
<path d="M220.37 6.44999C225.43 6.44999 229.31 9.53999 230.38 14.07C232.68 14.06 234.53 14.37 236 14.89C237.85 14.22 239.84 14.11 241.76 14.11C250.83 14.11 251.54 21 251.54 23.1C251.54 25.5 250.74 27.57 249.17 29.26L249.15 29.32C248.87 30.09 248.69 30.55 248.54 30.96C248.14 31.98 247.89 32.66 245.99 38.29C245.26 40.52 243.69 45.26 236.94 45.26H234.51C231.83 45.26 229.77 44.73 228.14 43.55C226.44 44.6 224.04 45.3 220.64 45.3L190.48 45.59C187.53 45.59 184.98 44.77 183.01 43.31C182.43 43.73 181.88 44.03 181.48 44.2C179.47 45.1 177.22 45.29 174.23 45.29H173.15L83.1699 45.23C81.6399 45.23 78.9199 45.23 76.4699 44.29C76.0099 44.11 75.4899 44.13 75.0399 44.32C75.0399 44.32 75.0299 44.32 75.0199 44.32C74.3899 44.58 73.9299 45.13 73.7799 45.8C72.9899 49.4 69.9999 52.54 64.3699 52.54H64.0299C61.3899 52.54 59.2499 52.29 57.4999 51.77C54.3599 50.85 52.4899 49.04 51.5099 47.07C51.0199 46.08 50.1299 45.35 49.0699 45.05H49.0299C48.2699 44.82 47.4699 44.81 46.7199 45.02C45.5299 45.35 44.2399 45.53 42.8899 45.53C40.5299 45.53 38.3999 45.01 36.6099 44.07C35.3899 43.43 33.9499 43.39 32.6999 43.99L32.6599 44.01C31.6499 44.5 30.8899 45.39 30.5599 46.46C29.5599 49.77 26.5999 52.53 21.3299 52.53H20.9899C18.3499 52.53 16.2099 52.28 14.4599 51.76C9.41995 50.28 7.60995 46.51 7.60995 43.46C7.60995 40.65 8.28995 38.6 9.90995 36.78V31.18C7.67995 29.68 6.56995 27.21 6.49995 24.87C6.41995 21.62 7.88995 18.76 10.8399 16.31L10.8999 16.26C12.9799 14.58 15.6099 13.62 18.1099 13.62C19.5599 13.62 20.9099 13.92 22.1099 14.46C23.6099 13.87 25.2799 13.58 27.0499 13.58H71.2899C72.0699 11.95 73.1399 10.86 73.6799 10.32C76.0099 7.85999 79.2999 6.38999 82.4999 6.38999C87.6599 6.38999 91.6099 9.37999 92.66 13.99H114C114.73 12.35 115.74 11.06 116.21 10.55C118.52 7.94999 121.93 6.39999 125.34 6.39999C129.85 6.39999 133.43 8.84999 134.9 12.59C135.94 12.17 137.14 11.87 138.57 11.87C140.93 11.87 142.98 11.93 144.36 13.55H194.15C202.74 13.55 206.64 18.23 207.63 23.37C207.75 24.01 208.36 24.43 209 24.32C209.9 24.17 210.27 23.12 209.73 22.38C208.74 21.03 208.23 19.4 208.23 17.77C208.23 13.98 210.5 11.43 211.28 10.57C213.59 7.96999 217 6.41999 220.41 6.41999M236.95 51.7C242.95 51.7 246.56 49.1 248.53 46.92C250.76 44.46 251.65 41.77 252.14 40.31C253.99 34.83 254.23 34.2 254.6 33.24C254.69 33.03 254.77 32.8 254.87 32.52C256.94 29.84 258.03 26.6 258.03 23.08C258.03 15.4 253.01 7.63999 241.78 7.63999C240.04 7.63999 238.07 7.71999 236 8.16999C235.62 8.07999 235.23 8.00999 234.84 7.93999C231.91 3.07999 226.57 0.00999023 220.36 0.00999023C215.14 0.00999023 209.93 2.35999 206.41 6.30999C205.55 7.26999 204.81 8.24999 204.18 9.26999C201.66 8.04999 198.35 7.99999 194.11 7.99999H146.69C144.35 6.35999 141.5 5.45999 138.54 5.45999C138.35 5.45999 138.14 5.45999 137.95 5.45999C134.88 1.99999 130.38 -0.0100098 125.3 -0.0100098C120.22 -0.0100098 114.87 2.34999 111.35 6.28999C110.94 6.74999 110.45 7.31999 109.93 8.02999C109.76 8.06999 109.59 8.11999 109.42 8.16999C107.76 7.64999 105.99 7.37999 104.17 7.37999C102.35 7.37999 100.46 7.66999 98.6299 8.21999C98.0799 8.09999 97.5399 8.00999 97.0099 7.93999C94.09 3.03999 88.7199 -0.0100098 82.4599 -0.0100098C77.4699 -0.0100098 72.5699 2.12999 68.9999 5.86999C68.7299 6.13999 68.2599 6.60999 67.7099 7.27999H18.0899C14.1399 7.27999 10.0199 8.69999 6.80995 11.29H6.79995L6.78995 11.32L6.72995 11.37C1.00995 16.09 -0.0800545 21.42 -5.44828e-05 25.07V25.11C0.0999455 28.43 1.32995 31.57 3.40995 34.02V34.73C1.86995 37.24 1.10995 40.13 1.10995 43.5C1.10995 48.62 4.10995 55.48 12.5899 57.98C14.9499 58.67 17.6799 59.01 20.9499 59.01H21.3199C26.9999 59.01 30.6299 56.76 32.6599 54.88C33.9199 53.71 34.9699 52.32 35.7399 50.78C37.9299 51.59 40.3199 52 42.8499 52C44.1499 52 45.4199 51.89 46.6599 51.66C48.6599 54.62 51.7599 56.83 55.6299 57.97C57.9899 58.66 60.7199 59 63.9899 59H64.3599C70.0399 59 73.6699 56.75 75.6999 54.87C76.7899 53.86 77.7199 52.69 78.4399 51.4C80.3699 51.68 82.0599 51.68 83.1299 51.68L236.91 51.72L236.95 51.7Z" fill="#FFA9E9"/>
<path d="M14.05 43.5099C14.05 41.7399 14.41 41.2799 15.39 40.4699C16.21 39.8199 16.35 39.1599 16.35 37.8199V28.5599C16.35 26.7599 16.25 26.2399 15.07 26.2399C13.82 26.2399 12.97 25.8799 12.94 24.7399C12.9 23.3399 13.8 22.2799 14.94 21.3399C15.8 20.6499 16.97 20.1299 18.09 20.1299C19.66 20.1299 20.62 20.9799 20.62 22.4199C20.62 23.2999 20.72 23.4999 21.08 23.4999C21.54 23.4999 21.73 22.9399 22.17 22.3899C23.02 21.0799 24.56 20.0699 27.03 20.0699C31.43 20.0699 34.35 23.7399 34.35 29.0299C34.35 34.6599 31.82 38.9399 26.47 38.9399C25.03 38.9399 24.27 38.6799 23.68 38.4199C23.03 38.1599 22.66 37.8299 22.3 37.8299C21.8 37.8699 21.84 38.4499 21.88 39.4599C21.92 40.3799 22.05 40.6699 22.8 41.0599C23.91 41.6799 24.47 42.3099 24.47 43.8399C24.47 45.2399 23.74 46.1299 21.32 46.1299C17.91 46.1699 14.07 45.7399 14.07 43.5199H14.05V43.5099ZM27.84 29.6099C27.48 26.9999 26.43 25.3899 24.46 25.6899C22.56 26.0199 22.03 27.9499 22.36 30.1999C22.78 33.2099 23.64 34.2899 25.71 33.9899C27.51 33.7599 28.2 32.2899 27.84 29.6099Z" fill="white"/>
<path d="M37.12 33.96C37.12 31.21 37.62 28.99 37.62 27.68C37.62 26.76 37.4901 26.34 36.7001 26.34C35.6501 26.34 34.8 26.18 34.8 25.09C34.8 23.82 35.66 22.54 36.96 21.62C38.05 20.87 39.45 20.28 40.93 20.28C42.93 20.28 44.05 21.23 44.05 23.12C44.05 25.8 43.4901 28.35 43.4901 32.24C43.4901 33.35 44.18 33.78 45.2001 33.78C47.1701 33.78 47.96 31.85 48.05 29.96C48.09 29.34 48.1501 27.77 48.1501 27.08C48.1501 26.39 47.9201 26 47.3301 26C46.4101 26 45.66 25.77 45.66 24.83C45.66 23.58 46.5401 22.31 47.8601 21.43C48.8801 20.78 50.1601 20.28 51.7001 20.28C53.5701 20.28 54.6501 21.07 54.6501 22.89C54.6501 25.15 54 29.07 54 32.34C54 32.93 54.2701 33.39 54.7901 33.39C55.1501 33.39 55.3801 33.33 55.7701 33.33C56.2901 33.33 56.75 33.82 56.75 34.73C56.75 37.15 54.91 39.08 52.39 39.08C49.87 39.08 49.47 38.14 49.21 36.7C49.11 36.08 48.94 35.85 48.71 35.85C48.21 35.85 48.08 36.24 47.5 37.16C46.87 38.08 45.47 39.12 42.87 39.12C39.26 39.12 37.1301 37.26 37.1301 33.95L37.12 33.96Z" fill="white"/>
<path d="M57.0901 43.5099C57.0901 41.7399 57.4501 41.2799 58.4301 40.4699C59.2501 39.8199 59.3901 39.1599 59.3901 37.8199V28.5599C59.3901 26.7599 59.2901 26.2399 58.1101 26.2399C56.8601 26.2399 56.0101 25.8799 55.9801 24.7399C55.9401 23.3399 56.8301 22.2799 57.9801 21.3399C58.8401 20.6499 60.0101 20.1299 61.1301 20.1299C62.7001 20.1299 63.6601 20.9799 63.6601 22.4199C63.6601 23.2999 63.7601 23.4999 64.1201 23.4999C64.5801 23.4999 64.7701 22.9399 65.2001 22.3899C66.0601 21.0799 67.5901 20.0699 70.0601 20.0699C74.4601 20.0699 77.3801 23.7399 77.3801 29.0299C77.3801 34.6599 74.8501 38.9399 69.5001 38.9399C68.0601 38.9399 67.3001 38.6799 66.7101 38.4199C66.0601 38.1599 65.6901 37.8299 65.3301 37.8299C64.8301 37.8699 64.8701 38.4499 64.9101 39.4599C64.9501 40.3799 65.0801 40.6699 65.8301 41.0599C66.9401 41.6799 67.5001 42.3099 67.5001 43.8399C67.5001 45.2399 66.7701 46.1299 64.3501 46.1299C60.9401 46.1699 57.1001 45.7399 57.1001 43.5199H57.0801L57.0901 43.5099ZM70.8801 29.6099C70.5201 26.9999 69.4701 25.3899 67.5001 25.6899C65.6001 26.0199 65.0701 27.9499 65.4001 30.1999C65.8201 33.2099 66.6801 34.2899 68.7501 33.9899C70.5501 33.7599 71.2401 32.2899 70.8801 29.6099Z" fill="white"/>
<path d="M100.36 33.96C100.36 31.21 100.86 28.99 100.86 27.68C100.86 26.76 100.73 26.34 99.94 26.34C98.89 26.34 98.04 26.18 98.04 25.09C98.04 23.82 98.9 22.54 100.2 21.62C101.28 20.87 102.69 20.28 104.17 20.28C106.17 20.28 107.29 21.23 107.29 23.12C107.29 25.8 106.73 28.35 106.73 32.24C106.73 33.35 107.42 33.78 108.44 33.78C110.41 33.78 111.2 31.85 111.29 29.96C111.33 29.34 111.39 27.77 111.39 27.08C111.39 26.39 111.16 26 110.57 26C109.65 26 108.9 25.77 108.9 24.83C108.9 23.58 109.78 22.31 111.1 21.43C112.12 20.78 113.4 20.28 114.94 20.28C116.81 20.28 117.89 21.07 117.89 22.89C117.89 25.15 117.24 29.07 117.24 32.34C117.24 32.93 117.51 33.39 118.03 33.39C118.39 33.39 118.62 33.33 119.01 33.33C119.54 33.33 119.99 33.82 119.99 34.73C119.99 37.15 118.15 39.08 115.63 39.08C113.11 39.08 112.71 38.14 112.45 36.7C112.35 36.08 112.18 35.85 111.95 35.85C111.45 35.85 111.33 36.24 110.74 37.16C110.11 38.08 108.71 39.12 106.11 39.12C102.5 39.12 100.37 37.26 100.37 33.95L100.36 33.96Z" fill="white"/>
<path d="M120.53 36.21C120.53 35.33 120.57 34.61 121.58 33.79C122.33 33.2 122.46 32.54 122.56 30.95C122.63 29.84 122.63 28.11 122.63 26.63C122.63 25.03 122.59 21.66 122.56 20.32C122.52 19.3 122.37 19.15 121.45 19.15C120.37 19.15 119.58 18.82 119.58 17.81C119.58 16.8 120.1 15.88 120.99 14.9C121.94 13.82 123.58 12.9 125.29 12.9C127.45 12.9 129.13 14.14 129.13 16.63C129.13 17.48 129.07 18.99 128.87 21.66C128.74 24.21 128.37 29.28 128.58 31.73C128.65 32.68 128.74 33.07 129.46 33.66C130.21 34.22 130.57 34.83 130.57 35.98C130.57 37.88 129.72 38.86 125.55 38.86C121.84 38.86 120.53 38.63 120.53 36.21Z" fill="white"/>
<path d="M132.73 33.14C132.73 31.31 133.06 29.32 133.06 27.05C133.06 25.84 132.89 25.97 131.65 25.97C130.24 25.97 130.24 25.15 130.24 23.94C130.24 21.58 130.93 22.01 134.01 20.44C136.08 19.36 137.06 18.35 138.54 18.35C139.19 18.35 139.72 18.68 139.72 19.69C139.72 21.03 139.98 20.84 141.79 20.84C143.95 20.84 144.71 20.84 144.71 22.31C144.71 23.06 144.61 23.52 144.55 24.54C144.48 26.27 143.53 26.24 141.2 26.24C138.87 26.24 139.26 26.28 139.26 28.1C139.26 29.44 139.22 30.85 139.22 31.69C139.22 32.84 139.91 33.49 141.06 33.49C142.11 33.49 143.09 33.2 143.78 33.2C144.41 33.2 144.7 33.46 144.66 34.6C144.6 37.08 142.66 39.11 139.24 39.11C135.43 39.11 132.71 36.82 132.71 33.12L132.73 33.14Z" fill="white"/>
<path d="M147.6 33.96C147.6 31.21 148.1 28.99 148.1 27.68C148.1 26.76 147.97 26.34 147.18 26.34C146.13 26.34 145.28 26.18 145.28 25.09C145.28 23.82 146.13 22.54 147.44 21.62C148.53 20.87 149.93 20.28 151.41 20.28C153.41 20.28 154.53 21.23 154.53 23.12C154.53 25.8 153.97 28.35 153.97 32.24C153.97 33.35 154.66 33.78 155.68 33.78C157.65 33.78 158.44 31.85 158.53 29.96C158.57 29.34 158.63 27.77 158.63 27.08C158.63 26.39 158.4 26 157.81 26C156.89 26 156.14 25.77 156.14 24.83C156.14 23.58 157.02 22.31 158.34 21.43C159.36 20.78 160.64 20.28 162.18 20.28C164.05 20.28 165.13 21.07 165.13 22.89C165.13 25.15 164.48 29.07 164.48 32.34C164.48 32.93 164.75 33.39 165.27 33.39C165.63 33.39 165.86 33.33 166.25 33.33C166.77 33.33 167.23 33.82 167.23 34.73C167.23 37.15 165.39 39.08 162.87 39.08C160.35 39.08 159.94 38.14 159.69 36.7C159.59 36.08 159.42 35.85 159.19 35.85C158.69 35.85 158.57 36.24 157.98 37.16C157.36 38.08 155.95 39.12 153.35 39.12C149.74 39.12 147.61 37.26 147.61 33.95L147.6 33.96Z" fill="white"/>
<path d="M168.11 36.67C168.11 35.75 168.28 34.84 169.26 34.21C170.01 33.79 170.37 33.36 170.47 32.25C170.6 30.75 170.57 28.7201 170.57 27.3701C170.57 26.2901 170.11 26.2001 169.19 26.2001C168.01 26.2001 167.16 25.97 167.16 24.76C167.16 23.55 167.85 22.4 168.9 21.55C169.92 20.76 171.13 20.2801 172.31 20.2801C173.88 20.2801 174.84 21.1 174.84 22.34C174.84 23.19 174.74 23.55 175.24 23.55C175.63 23.55 175.76 23.16 176.52 22.08C177.28 20.93 178.23 20.05 180.16 20.05C183.01 20.05 184.36 22.0501 184.33 25.1201C184.33 27.5801 183.34 28.9401 181.02 28.9401C180 28.9401 179.38 28.6101 178.95 27.7901C178.49 26.9401 178.3 26.1901 177.51 26.1901C176.52 26.1901 176.33 27.07 176.3 27.96C176.26 29.46 176.3 30.42 176.43 31.92C176.49 32.84 176.62 33.26 177.87 33.78C179.28 34.43 179.88 34.8 179.88 36.43C179.88 38.2901 178.92 38.85 174.23 38.85C169.54 38.85 168.12 38.9501 168.12 36.66L168.11 36.67Z" fill="white"/>
<path d="M185.09 33.96C185.09 30.46 187.39 28.47 191.23 28.47C193.16 28.47 193.82 28.8 194.48 28.8C195 28.8 195.27 28.8 195.23 27.13C195.19 25.27 194.54 24.55 192.93 24.55C191.82 24.55 191.36 24.88 191.06 25.89C190.73 27.16 190.04 27.92 188.44 27.92C186.67 27.92 185.22 27.17 185.22 25.27C185.22 23.77 186.14 22.59 187.38 21.77C189.18 20.52 191.48 20.04 194.11 20.04C199.16 20.04 201.4 22.17 201.4 26.22C201.4 28.25 201.04 31.75 201.04 32.56C201.04 33.18 201.33 33.44 201.77 33.44C202.03 33.44 202.33 33.4 202.72 33.4C203.47 33.4 203.7 33.92 203.7 34.97C203.7 36.57 202.49 39.12 199.7 39.12C198.49 39.12 197.34 38.79 196.55 37.87C195.79 37.05 195.86 36.4 195.33 36.4C194.74 36.4 194.64 37.05 194.01 37.8C193.36 38.59 192.24 39.14 190.47 39.14C186.24 39.14 185.09 36.46 185.09 33.94V33.96ZM195.2 32C195.2 30.85 195.03 30.92 193.79 30.92C192.41 30.92 191.36 31.64 191.36 33.05C191.36 34.07 191.86 34.59 192.77 34.59C194.18 34.59 195.2 33.44 195.2 32.01V32Z" fill="white"/>
<path d="M205.34 35.2301C205.34 32.7701 207.05 30.8101 209.8 30.8101C212.55 30.8101 213.94 32.7701 213.94 35.2301C213.94 37.6901 212.43 39.3501 209.8 39.3501C207.04 39.3501 205.34 37.7801 205.34 35.2301Z" fill="white"/>
<path d="M215.61 36.21C215.61 35.33 215.65 34.61 216.66 33.79C217.41 33.2 217.54 32.54 217.64 30.95C217.7 29.84 217.7 28.11 217.7 26.63C217.7 25.03 217.66 21.66 217.64 20.32C217.6 19.3 217.45 19.15 216.53 19.15C215.44 19.15 214.66 18.82 214.66 17.81C214.66 16.8 215.19 15.88 216.07 14.9C217.02 13.82 218.66 12.9 220.37 12.9C222.53 12.9 224.21 14.14 224.21 16.63C224.21 17.48 224.14 18.99 223.95 21.66C223.82 24.21 223.45 29.28 223.66 31.73C223.73 32.68 223.83 33.07 224.54 33.66C225.3 34.22 225.65 34.83 225.65 35.98C225.65 37.88 224.8 38.86 220.63 38.86C216.92 38.86 215.61 38.63 215.61 36.21Z" fill="white"/>
<path d="M230.59 36.05C229.86 34.12 228.56 30.59 227.44 27.64C226.92 26.24 226.62 25.97 226 25.48C225.64 25.22 225.24 24.96 225.24 23.22C225.24 20.96 226.33 20.51 230.49 20.51C234.26 20.51 235.22 21.2 235.22 23.22C235.22 24.17 234.99 24.47 234.47 24.92C233.97 25.25 233.88 25.54 234.11 26.42C234.53 27.99 234.44 27.37 235.75 31.75C236.04 32.73 235.98 33.06 236.37 33.06C236.79 33.06 236.87 32.47 237.12 31.56C237.85 29.24 237.85 29.63 238.56 27.05C238.85 26.07 238.5 25.35 237.81 24.79C237.22 24.37 236.95 23.91 236.95 22.89C236.95 21.26 237.68 20.53 241.74 20.53C244.56 20.53 245.05 21.35 245.05 23.08C245.05 23.96 244.82 24.48 244.23 25.04C243.64 25.6 243.47 25.83 243.05 27.1C242.03 29.88 242.46 28.44 239.83 36.22C239.14 38.31 238.95 38.8 236.91 38.8H234.48C232.15 38.8 231.53 38.61 230.57 36.02L230.59 36.05Z" fill="white"/>
<path d="M77.74 36.24C77.74 35.13 77.97 34.54 78.89 33.76C79.52 33.14 79.91 32.71 79.94 30.98C80 27.58 80 22.7 79.94 20.45C79.9 19.37 79.88 19.14 78.83 19.14C77.55 19.14 76.8 18.85 76.8 17.74C76.8 16.57 77.45 15.71 78.31 14.86C79.42 13.65 81 12.9 82.48 12.9C84.94 12.9 86.45 14.34 86.45 16.72C86.45 18.75 85.89 21.4 85.89 24.8C85.89 27.38 85.85 27.91 86.29 27.91C86.62 27.91 86.75 27.78 89.05 26.05C90.2 25.2 90.43 24.78 89.38 24.61C88.52 24.48 88.13 24.05 88.13 22.81C88.13 21.18 88.82 20.66 93.45 20.66C97.13 20.66 97.45 21.35 97.45 23.02C97.45 24.23 97.26 24.75 96.01 25.21C94.93 25.63 94.6 25.77 93.39 26.68C92.64 27.24 92.41 27.47 92.41 27.89C92.41 28.64 93.62 29.92 94.21 30.73C95.39 32.27 95.62 32.86 96.41 33.44C97.39 34.19 97.56 34.94 97.56 35.9C97.56 38.42 96.68 38.71 92.9 38.71C89.55 38.71 88.37 38.42 88.37 36.1C88.37 34.99 88.66 34.7 89.06 34.27C89.42 33.85 89.62 33.42 89.25 32.7C89.12 32.47 88.69 31.82 88.27 31.39C87.64 30.74 87.39 30.74 86.66 31.1C85.93 31.46 85.74 31.69 85.74 32.21C85.74 33.15 86 33.52 86.37 33.81C86.87 34.23 87.29 34.6 87.29 36.04C87.29 38.42 86.43 38.82 83.19 38.82C78.66 38.82 77.77 38.43 77.77 36.27L77.74 36.24Z" fill="white"/>
</g>
<defs>
<clipPath id="clip0_4141_137">
<rect width="258" height="59.01" fill="white"/>
</clipPath>
</defs>
</svg>
