<svg width="27" height="27" viewBox="0 0 27 27" fill="none" xmlns="http://www.w3.org/2000/svg">
<path opacity="0.5" fill-rule="evenodd" clip-rule="evenodd" d="M5 0C2.23853 0 0 2.23853 0 5V22C0 24.7615 2.23853 27 5 27H22C24.7615 27 27 24.7615 27 22V5C27 2.23853 24.7615 0 22 0H5ZM20.3052 6.8623C20.4365 6.94788 20.572 7.02673 20.7113 7.09863C21.6171 7.55029 22.5018 7.68774 22.9375 7.6405V11.1571C22.9375 11.1571 21.694 11.1055 20.771 10.8606C19.4845 10.5164 18.6599 9.98792 18.6599 9.98792C18.6599 9.98792 18.0876 9.60938 18.0447 9.5835V16.8505C18.0447 17.2544 17.9376 18.265 17.6171 19.1075C17.3362 19.8281 16.9346 20.4955 16.4294 21.0812C16.4294 21.0812 15.6388 22.0613 14.2501 22.7191C13.0924 23.2677 12.0627 23.2977 11.6537 23.3097L11.5663 23.3125C11.5663 23.3125 9.66492 23.389 7.94995 22.2236L7.94141 22.2151V22.2236C7.36157 21.8191 6.8446 21.3313 6.40698 20.776C5.86426 20.0839 5.53125 19.2627 5.44531 19.0221V19.0134C5.30872 18.6049 5.02209 17.6161 5.06506 16.6617C5.13342 14.9805 5.69763 13.9445 5.84717 13.6866C6.23999 12.9796 6.7533 12.3467 7.36389 11.8162C8.06067 11.2321 8.87097 10.7987 9.74365 10.5435C10.6163 10.2881 11.5325 10.2164 12.4342 10.3329L12.4299 13.9397C12.2408 13.8781 12.0464 13.8358 11.8494 13.8132C11.7368 13.8004 11.6235 13.7939 11.51 13.7941C9.8595 13.7941 8.52197 15.1399 8.52197 16.8019C8.52197 18.4639 9.8595 19.8097 11.51 19.8097C12.0238 19.8103 12.5289 19.6771 12.9756 19.423C13.4042 19.1794 13.7664 18.8345 14.0302 18.4181C14.2941 18.0018 14.4517 17.5271 14.489 17.0356V17.0278C14.4911 17.0176 14.4911 17.0073 14.4911 16.9974L14.4926 16.975C14.4937 16.9597 14.4946 16.9454 14.4946 16.9303C14.5023 16.7507 14.5023 16.569 14.5023 16.3851V2.6875H18.0447C18.0391 2.6875 18.0021 3.02698 18.0914 3.55164H18.0872C18.1942 4.18372 18.4846 5.08643 19.2623 5.97632C19.5732 6.31238 19.9233 6.60986 20.3052 6.8623Z" fill="#FB00B1"/>
</svg>
