<svg width="90" height="35" viewBox="0 0 90 35" fill="none" xmlns="http://www.w3.org/2000/svg">
<path d="M90 11.7612C89.8699 12.1481 89.4276 12.3545 89.0113 12.406C88.673 12.4576 87.8924 12.2513 87.6062 11.6065C87.346 11.0133 87.346 10.3943 86.6435 10.0332C86.1491 9.77524 85.7328 9.67206 85.1083 9.67206C84.1716 9.67206 83.0007 9.95578 82.8186 11.4775C82.6365 13.1282 83.6773 14.7789 84.9522 16.7391C86.7215 19.4215 88.5429 22.1813 86.5654 24.2962C85.5767 25.3537 83.9895 25.9469 82.2202 25.9469C79.9304 25.9469 78.031 25.0442 77.1203 23.5998C76.5479 22.6971 76.8341 21.9492 77.2764 21.6912C77.979 21.2786 78.6034 21.5623 78.9937 21.9492C79.7483 22.6713 80.0085 24.322 81.96 24.6831C82.5324 24.7863 83.287 24.4768 83.6512 24.1157C84.9782 22.7229 83.1048 19.9889 81.6217 18.0287C81.4135 17.745 81.2054 17.4871 81.0233 17.2292C79.7223 15.3979 79.332 13.4893 79.9565 11.8644C80.5029 10.3685 81.8299 9.28519 83.6772 8.79514C84.2237 8.66618 84.8741 8.5888 85.5507 8.5888C86.9557 8.5888 88.0225 9.00147 88.8812 9.54311C89.7918 10.1363 90.1301 11.1938 89.948 11.787M77.6407 8.84672C77.6407 8.84672 77.4326 8.74355 77.1203 8.74355C76.0275 8.69197 75.2729 9.10464 75.1949 9.25939C74.9607 9.77523 74.7265 10.5748 74.5184 11.3744C74.2842 12.2255 74.024 13.1024 73.7378 13.7214C70.5634 21.0464 66.9987 24.1415 65.8018 24.322C65.1773 24.3994 64.9692 24.1931 64.8391 23.9094C64.5789 23.3419 65.0993 22.1813 65.6977 20.6853C65.7758 20.4532 65.8799 20.2469 65.9579 20.0147C66.9467 17.5645 67.6492 15.6559 68.2216 13.283C68.716 11.168 68.5599 9.9042 67.7533 9.31098C67.2849 8.97568 66.8166 8.82093 66.2441 8.82093C65.7238 8.82093 65.3595 8.94989 65.2294 9.07885C65.2294 9.13043 65.2294 9.18202 65.2554 9.28519C65.4115 10.0332 65.7238 11.6323 63.9284 16.4812C63.8764 16.636 63.7723 16.8939 63.6422 17.1776L63.382 17.8482C63.1478 18.4414 62.8356 19.241 62.5754 20.1179C62.1851 21.3817 61.9769 22.465 61.9509 23.3161C61.9509 23.6256 61.9509 23.9094 62.003 24.1415C62.003 24.2704 62.055 24.4252 62.107 24.5542C62.3672 25.4311 63.0437 25.8696 64.1366 25.8696C64.5529 25.8696 65.1253 25.9211 65.5676 25.7922C67.0768 25.3279 68.3517 24.4252 69.7828 22.9808C70.8236 21.9749 72.4108 19.6536 72.4108 19.6278C72.4108 19.6278 73.2174 18.0287 73.2434 18.0287L72.9832 19.6536C71.6042 26.4628 69.7308 31.0022 63.8764 33.3493C63.2519 33.6072 62.7315 33.7104 62.3412 33.8136C61.9509 33.8909 61.6387 33.9683 61.5606 34.0715C61.5606 34.0715 61.5606 34.0715 61.5606 34.0973C61.6387 34.2778 62.081 34.7163 62.9917 34.9226C63.2259 34.9742 63.4861 35 63.7723 35C65.8278 35 68.9242 33.7362 70.4073 32.2918C74.4403 28.3972 75.2729 24.1157 76.0015 20.35C76.1576 19.6021 76.3137 18.8025 76.4698 18.0287C76.7561 16.7907 77.7708 10.678 77.6667 8.84672M21.9849 24.7347C20.3977 23.1872 20.3977 20.9433 21.1262 18.3898C22.7394 12.664 24.847 7.35077 26.2521 3.84304C26.9546 2.08917 27.5791 0.541637 27.5791 0.283716C27.475 0.206339 27.1628 0 26.5643 0C26.096 0 25.4975 0.0773754 24.769 0.593219C24.1185 1.08327 23.1818 3.22403 22.8695 3.94621C21.8288 6.34488 20.2416 11.1164 19.0967 14.5726C18.8886 15.1658 18.4722 16.4296 18.4722 16.4296C17.6656 18.8283 16.3647 22.6197 14.5433 23.4451C14.3872 23.5225 14.101 23.5998 13.8147 23.5998C13.3984 23.5998 13.1382 23.5998 12.878 23.2645C12.4097 22.6971 12.3056 21.717 12.6959 20.2727C12.8 19.86 12.878 19.4473 12.9821 19.0088L13.0342 18.7767C13.6326 16.636 14.3611 14.5726 14.8555 13.2314C15.0116 12.7671 15.1678 12.3545 15.2458 12.1223C15.1938 12.1223 15.1417 12.1223 15.0377 12.1223C14.2831 12.1223 12.9041 12.5092 12.3316 13.773C11.4209 15.7848 9.05316 20.7111 6.7114 22.9808C5.69664 23.9609 4.60382 24.5026 4.0574 24.451C3.51099 24.3994 3.30284 24.1673 3.1207 23.8836C2.75643 23.3419 2.67837 22.7487 2.93856 21.7944C4.36964 16.1201 9.54753 11.8128 13.9448 10.549C15.3239 10.1621 15.8182 10.3169 15.9744 9.92999C16.1045 9.62049 15.7922 9.23361 15.2458 8.9241C14.7775 8.66618 14.101 8.53721 13.1382 8.53721C12.0454 8.53721 10.5103 8.76935 8.11646 10.0847C5.67062 11.4002 1.45545 15.1658 0.310589 19.8858C-0.209802 22.0781 -0.0797042 23.7804 0.726902 24.8121C1.27331 25.4827 2.31409 25.8954 3.32886 25.8954C3.97935 25.8954 4.65585 25.7406 5.2543 25.4569C7.49199 24.3994 9.20928 22.1813 9.65161 21.4849C9.80773 21.2528 10.0159 20.969 10.0159 20.969C10.0159 20.969 9.83375 22.3876 10.2761 23.8578C10.6143 24.9926 11.7592 25.8438 12.826 25.8438C12.878 25.8438 12.9041 25.8438 12.9561 25.8438C14.9856 25.7406 16.2606 24.3478 17.7697 21.6396C17.7957 21.5881 17.9258 21.3817 17.9258 21.3817C17.9258 21.3817 17.9779 25.1732 21.0482 26.308C22.4793 26.8239 23.442 26.4112 23.6762 25.9469C23.9103 25.4569 22.7915 25.5343 22.0629 24.8379M59.8954 24.7347C59.0888 23.8836 58.5684 22.9808 59.0367 20.4532C59.2189 19.4989 59.7913 17.4613 60.0515 16.636C60.4938 15.2432 60.9362 14.0052 61.2484 13.1798C61.4305 12.6898 61.5606 12.3029 61.6387 12.0707C61.5866 12.0707 61.5346 12.0707 61.4045 12.0707C60.6499 12.0707 59.2449 12.4576 58.6985 13.7214C57.7878 15.7332 55.42 20.6595 53.0783 22.9293C52.0635 23.9094 51.1788 24.4252 50.4503 24.4252C50.06 24.4252 49.7738 24.322 49.5396 24.0125C49.1233 23.4967 49.0192 22.6971 49.2794 21.7428C50.3982 17.3323 53.7808 13.7472 57.3194 11.787C57.3455 11.787 57.3715 11.7612 57.3975 11.7354C57.5016 11.6839 57.6057 11.6065 57.7357 11.5549C57.7878 11.5549 57.8138 11.5033 57.8658 11.5033C57.9699 11.4517 58.048 11.4002 58.1521 11.3744C58.2041 11.3486 58.2561 11.3228 58.3082 11.297C58.3862 11.2712 58.4383 11.2454 58.5163 11.1938C58.5944 11.168 58.6725 11.1164 58.7505 11.0906C58.8026 11.0906 58.8286 11.0648 58.8806 11.0391C59.375 10.8327 59.8694 10.6522 60.3637 10.5232C61.7428 10.1363 62.2371 10.2911 62.3933 9.90419C62.5233 9.59469 62.2111 9.20781 61.6387 8.8983C61.1703 8.64038 60.4938 8.51142 59.5311 8.51142C58.4383 8.51142 56.9031 8.74355 54.5093 10.059C53.9109 10.3942 53.2084 10.8585 52.4798 11.4517C51.8033 11.9676 51.1268 12.5866 50.4503 13.283C49.6176 13.6699 48.8371 13.9278 48.1606 13.9278C48.0305 13.9278 47.9004 13.9278 47.7963 13.902C47.0677 13.773 46.6514 13.283 46.5994 12.4834C46.5994 12.4834 46.5994 12.4318 46.5994 12.406C46.6514 12.2771 46.7295 12.0707 46.8336 11.8128C47.1718 10.9617 47.7703 9.54311 47.432 8.82093C47.38 8.69197 46.9376 8.51142 46.3912 8.51142C46.2351 8.51142 46.105 8.51143 45.9489 8.56301C45.0642 8.74356 44.2836 9.28518 43.8413 10.0074C43.3469 10.7811 43.2429 11.7354 43.5031 12.7929C43.5031 12.7929 43.5031 12.8445 43.5031 12.8703C43.1908 14.521 42.7225 15.5527 42.046 16.9713L41.7337 17.6419C41.5776 17.9771 41.4215 18.3125 41.2654 18.6735C40.3027 20.8401 38.0129 24.6573 36.5298 24.7089H36.5038C36.2436 24.7089 36.0094 24.6057 35.9574 24.58C34.2661 23.7804 35.9053 19.9374 37.7267 15.0626L37.9609 14.4178C38.143 13.902 38.2991 13.4893 38.4292 13.1798C38.6374 12.6382 38.7675 11.8128 38.5333 11.3486C38.4292 11.168 38.2991 11.0648 38.091 11.0133C37.8568 10.9617 37.6747 10.9101 37.5186 10.9101C36.8681 10.9101 36.6339 11.0906 36.0094 12.4834V12.5608C35.8013 12.9477 35.6191 13.3861 35.385 13.8504C33.3034 18.1835 31.0917 21.3817 29.0362 23.084C28.5158 23.4967 28.2036 23.6514 27.8913 23.6514C27.8653 23.6514 27.8393 23.6514 27.8133 23.6514C27.6832 23.6514 27.3449 23.5741 27.1368 23.1872C26.7465 22.4908 27.423 21.3043 29.1923 17.2808C29.4005 16.7907 29.6607 16.2491 29.8948 15.6816L30.155 15.0626C30.9876 13.1282 31.8723 10.4458 30.155 9.46573C29.6867 9.20781 29.1923 9.13043 28.854 9.13043C28.2296 9.13043 27.7352 9.33677 27.5531 9.51732C27.527 9.54311 27.501 9.5947 27.501 9.62049C27.6832 12.0192 26.6944 14.1341 25.6276 16.4038C25.3674 16.9713 25.1072 17.5387 24.847 18.0803C24.6389 18.5962 24.4307 19.0604 24.2746 19.5247C23.9363 20.479 23.7282 21.3559 23.6241 22.1813C23.5981 22.4392 23.5981 22.7229 23.6241 22.9808C23.6501 23.3419 23.7282 23.6772 23.8323 23.9867C24.1965 24.941 24.9771 25.6374 25.7837 25.7406C25.9138 25.7406 26.0439 25.7406 26.174 25.7406C27.6311 25.7406 28.9321 24.9153 29.4265 24.4768L29.5566 24.3736C30.7535 23.3161 31.9504 21.8202 32.5748 20.9948L33.3294 19.8342C33.3294 19.8342 33.2514 19.9889 32.9912 21.1238C32.6789 22.4908 32.835 23.9867 33.4335 24.7605C33.9539 25.4569 34.8906 25.8438 36.0354 25.8438C36.764 25.8438 37.5706 25.689 38.3772 25.3795C40.0164 24.7605 41.7597 22.9808 43.373 20.2469C43.9454 19.2668 44.804 17.3839 45.5846 15.3206C45.5846 15.269 45.6367 15.2432 45.6887 15.2174C45.6887 15.2174 45.7407 15.2174 45.7668 15.2174C45.7928 15.2174 45.8188 15.2174 45.8448 15.2174C46.131 15.3463 46.4693 15.4237 46.8336 15.4237C47.5361 15.4237 48.3167 15.1658 49.1233 14.7789C48.0305 16.2233 47.1198 17.9256 46.6514 19.8084C46.105 22.0007 46.2611 23.703 47.0677 24.7347C47.6141 25.4053 48.5248 25.8438 49.5136 25.8438C50.1641 25.8438 51.0487 25.7148 51.6472 25.4053C53.8588 24.2447 55.5241 22.1555 55.9664 21.4591C56.0965 21.227 56.2266 20.9948 56.2266 20.9948C56.2266 20.9948 55.8363 25.07 58.8286 26.2307C60.2336 26.7723 61.2224 26.3338 61.4826 25.8696C61.7428 25.3795 60.5979 25.4827 59.9214 24.7605" fill="#FB00B1"/>
</svg>
