<svg width="83" height="29" viewBox="0 0 83 29" fill="none" xmlns="http://www.w3.org/2000/svg">
<g clip-path="url(#clip0_4656_1323)">
<path d="M20.8635 6.01457C19.6021 4.84159 18.0884 3.89323 16.3729 3.19443C14.6574 2.49564 12.7906 2.14624 10.8228 2.14624H0V28.6256H10.8228C12.7906 28.6256 14.6574 28.2762 16.3729 27.6024C18.0884 26.9285 19.6021 25.9801 20.8635 24.8072C22.1249 23.6342 23.134 22.2116 23.8657 20.6144C24.5973 19.0172 24.9757 17.2702 24.9757 15.4733C24.9757 13.6764 24.5973 11.8545 23.8657 10.2323C23.134 8.6101 22.1249 7.18755 20.8635 6.01457ZM17.8362 18.4681C17.4325 19.3915 16.9027 20.2151 16.1964 20.9139C15.49 21.6127 14.6827 22.1368 13.724 22.5361C12.7906 22.9354 11.7562 23.1101 10.6714 23.1101H6.33222V7.63677H10.6714C11.7562 7.63677 12.7653 7.83643 13.724 8.23574C14.6574 8.63505 15.49 9.20906 16.1964 9.90786C16.9027 10.6067 17.4325 11.4552 17.8362 12.3786C18.2398 13.327 18.4164 14.3502 18.4164 15.4483C18.4164 16.5464 18.2146 17.5197 17.8362 18.4681Z" fill="#FB00B1"/>
<path d="M44.7799 11.4304C43.8716 10.482 42.8121 9.70833 41.5507 9.15927C40.3145 8.61022 38.9522 8.33569 37.489 8.33569C36.0258 8.33569 34.6382 8.61022 33.3516 9.13432C32.065 9.65841 30.9549 10.4071 30.0215 11.3305C29.0881 12.2539 28.3312 13.377 27.8014 14.6249C27.2464 15.8977 26.9941 17.2453 26.9941 18.6679C26.9941 20.0904 27.2716 21.4631 27.8519 22.7109C28.4321 23.9837 29.2142 25.0818 30.1729 26.0052C31.1568 26.9286 32.3172 27.6773 33.6543 28.2014C34.9914 28.7255 36.4546 29.0001 37.9683 29.0001C39.6334 29.0001 41.1723 28.7505 42.5093 28.2763C43.796 27.8271 45.0574 27.0784 46.2935 26.0801L42.4084 22.661C41.9291 23.1102 41.3488 23.4596 40.6929 23.7341C39.9865 24.0087 39.1792 24.1584 38.3215 24.1584C37.1106 24.1584 36.0258 23.834 35.1428 23.235C34.2346 22.6111 33.5786 21.8125 33.1498 20.8641L33.0489 20.6395H47.7315V19.2668C47.7315 17.7195 47.4792 16.2471 46.9747 14.8994C46.4701 13.5517 45.7637 12.4037 44.8555 11.4553L44.7799 11.4304ZM32.9227 16.6214L32.9732 16.4218C33.3011 15.3736 33.8561 14.55 34.613 13.976C35.3951 13.402 36.3285 13.1025 37.3881 13.1025C38.4476 13.1025 39.3558 13.402 40.1379 14.0259C40.92 14.6248 41.5002 15.4484 41.8282 16.4467L41.9039 16.6464H32.9227V16.6214Z" fill="#FB00B1"/>
<path d="M56.485 0.174805H50.5312V28.6258H56.485V0.174805Z" fill="#FB00B1"/>
<path d="M79.721 6.48881C80.6293 6.48881 81.4113 6.16437 82.042 5.54045C82.6727 4.91652 83.0007 4.14286 83.0007 3.24441C83.0007 2.34596 82.6727 1.57229 82.042 0.948365C81.4113 0.324441 80.6293 0 79.721 0C78.8128 0 78.0308 0.324441 77.4001 0.948365C76.7694 1.57229 76.4414 2.34596 76.4414 3.24441C76.4414 4.14286 76.7694 4.91652 77.4001 5.54045C78.0308 6.16437 78.8128 6.48881 79.721 6.48881Z" fill="#FB00B1"/>
<path d="M69.251 7.4123C69.251 6.58872 69.5285 5.98975 70.0583 5.59044C70.5629 5.19113 71.3449 4.99147 72.3288 4.99147C72.7325 4.99147 73.1361 4.99147 73.5145 5.04139C73.8425 5.06634 74.2209 5.14122 74.6246 5.21609V0.424349C74.2462 0.324521 73.7668 0.24965 73.1866 0.199736C72.5559 0.124865 71.9756 0.0749512 71.4459 0.0749512C68.8221 0.0749512 66.7787 0.698875 65.3911 1.94672C64.0036 3.19457 63.2972 4.99147 63.2972 7.31247V8.68511H58.8066V13.5268H63.2972V28.6008H69.251V13.5268H76.7185V28.6008H82.6723V8.68511H69.251V7.4123Z" fill="#FB00B1"/>
</g>
<defs>
<clipPath id="clip0_4656_1323">
<rect width="83" height="29" fill="white"/>
</clipPath>
</defs>
</svg>
