<svg width="169" height="50" viewBox="0 0 169 50" fill="none" xmlns="http://www.w3.org/2000/svg">
<g clip-path="url(#clip0_4656_1208)">
<path d="M145.776 0.0483398C133.875 0.0483398 122.123 8.46103 122.123 24.8014C122.123 40.0226 132.028 49.4986 145.328 49.4986C159.411 49.4986 168.98 39.1832 168.98 24.8014C168.98 8.01335 157.173 0.0483398 145.776 0.0483398ZM145.533 39.6309C138.669 39.6309 133.595 33.9043 133.595 24.8014C133.595 16.7058 137.717 9.97196 145.533 9.97196C154.151 9.97196 157.471 17.937 157.471 24.8014C157.471 31.6659 154.151 39.6309 145.533 39.6309Z" fill="#FB00B1"/>
<path d="M99.3472 20.7163V30.1736H107.461V38.5303C106.79 38.9594 104.607 39.5936 101.716 39.5936C93.7138 39.5936 89.1251 33.7737 89.1251 24.7828C89.1251 16.4634 92.5387 10.4196 102.63 10.4196C106.734 10.4196 110.185 11.1658 113.169 12.4156L117.199 3.12615C113.263 1.20485 108.842 0.0483398 101.921 0.0483398C87.9686 0.0483398 77.2988 10.0093 77.2988 25.0812C77.2988 38.4744 85.1519 49.4426 101.045 49.4426C109.14 49.4426 115.072 46.8871 117.889 44.9844V20.6977H99.3472V20.7163Z" fill="#FB00B1"/>
<path d="M65.6048 30.1176V29.9124C67.9551 28.4201 70.2495 26.2563 71.5925 24.1485C73.1221 21.7608 73.8309 18.9815 73.8309 16.1088C73.8309 13.9264 73.4392 11.8932 72.6558 9.97186C71.9096 8.01325 70.6971 6.22252 68.9997 4.78621C67.3395 3.34989 65.213 2.21203 62.6016 1.39128C59.9901 0.570532 56.819 0.160156 53.0697 0.160156C50.2343 0.160156 47.6975 0.29073 45.4404 0.514571C42.9968 0.738412 41.318 0.9436 38.9863 1.31667V48.6591H50.0851V32.8223C51.4468 32.8783 52.4728 32.8969 53.9464 32.841C53.9464 32.841 55.3827 33.3446 57.2107 35.7136C59.3932 38.5116 62.0233 42.8951 63.6088 48.6404H76.7595C73.8682 40.265 70.8837 32.4865 65.6048 30.0802V30.1176ZM60.2885 22.0966C58.7216 23.3091 56.2594 24.0365 53.592 24.0365C52.3422 24.0365 50.8126 23.9619 50.0665 23.8873V10.2517C50.5701 10.1584 52.2116 10.0092 52.8085 9.99051C53.4241 9.97186 54.4687 9.9532 54.7298 9.9532C57.1175 9.99051 59.0947 10.5501 60.531 11.6693C61.9673 12.7512 62.6762 14.3554 62.6762 16.37C62.6762 18.8136 61.8368 20.8281 60.2699 22.0966H60.2885Z" fill="#FB00B1"/>
<path d="M15.445 38.549C12.9828 38.549 11.0988 37.1873 11.0988 33.9789V28.8679H29.3045V19.2054H11.0988V11.0166H32.5875V0.831787H0V37.3365C0 44.8352 2.92859 48.6778 11.248 48.6778H33.4829V38.5677C33.4829 38.5677 20.4441 38.5677 15.445 38.5677V38.549Z" fill="#FB00B1"/>
</g>
<defs>
<clipPath id="clip0_4656_1208">
<rect width="169" height="49.4502" fill="white" transform="translate(0 0.0483398)"/>
</clipPath>
</defs>
</svg>
