<svg width="2273" height="325" viewBox="0 0 2273 325" fill="none" xmlns="http://www.w3.org/2000/svg">
<path d="M258.888 285.007H143.929L133.353 312.588C131.053 318.105 128.754 319.484 122.316 319.484H4.13853C0.919673 319.484 0 317.185 0 315.806C0 314.427 0.919672 312.129 2.29918 309.371L138.411 0H264.406L400.977 309.371C400.977 309.371 403.276 313.967 403.276 315.806C403.276 317.645 402.357 319.484 399.138 319.484H281.42C274.982 319.484 272.223 318.105 270.384 312.588L259.807 285.007H258.888ZM177.497 197.207H224.86L222.101 189.852C214.284 168.706 203.248 128.253 203.248 128.253H199.109C199.109 128.253 188.533 168.706 180.256 189.852L177.037 197.207H177.497Z" fill="#F1009C"/>
<path d="M629.516 6.43564C629.516 3.21782 632.735 0 635.953 0H744.475C747.694 0 750.913 3.21782 750.913 6.43564V159.972C750.913 263.402 686.995 325 577.094 325C467.194 325 403.276 263.402 403.276 159.972V6.43564C403.276 3.21782 406.495 0 409.714 0H518.235C521.454 0 524.673 3.21782 524.673 6.43564V157.214C524.673 200.884 544.446 223.868 577.094 223.868C609.743 223.868 629.516 200.884 629.516 157.214V6.43564Z" fill="#F1009C"/>
<path d="M802.415 319.484C799.196 319.484 795.977 316.266 795.977 313.048V6.43564C795.977 3.21782 799.196 0 802.415 0H944.504C1053.03 0 1127.98 62.9774 1127.98 159.972C1127.98 256.966 1064.98 319.943 945.884 319.943H802.415V319.484ZM917.374 101.132V218.352H944.964C985.889 218.352 1006.12 195.827 1006.12 159.972C1006.12 124.116 982.211 101.132 944.504 101.132H917.374Z" fill="#F1009C"/>
<path d="M1450.32 218.352H1573.1C1576.32 218.352 1580.46 222.489 1580.46 225.707V312.129C1580.46 315.347 1576.32 319.484 1573.1 319.484H1335.37C1332.15 319.484 1328.93 316.266 1328.93 313.048V6.43564C1328.93 3.21782 1332.15 0 1335.37 0H1443.89C1447.11 0 1450.32 3.21782 1450.32 6.43564V218.352Z" fill="#F1009C"/>
<path d="M1724.84 218.352H1847.62C1850.84 218.352 1854.98 222.489 1854.98 225.707V312.129C1854.98 315.347 1850.84 319.484 1847.62 319.484H1609.89C1606.67 319.484 1603.45 316.266 1603.45 313.048V6.43564C1603.45 3.21782 1606.67 0 1609.89 0H1718.41C1721.63 0 1724.84 3.21782 1724.84 6.43564V218.352Z" fill="#F1009C"/>
<path d="M2127.2 285.007H2012.24L2001.67 312.588C1999.37 318.105 1997.07 319.484 1990.63 319.484H1872.91C1869.69 319.484 1868.77 317.185 1868.77 315.806C1868.77 314.427 1869.69 312.129 1871.07 309.371L2007.64 0H2133.64L2270.21 309.371C2270.21 309.371 2272.51 313.967 2272.51 315.806C2272.51 317.645 2271.59 319.484 2268.37 319.484H2150.65C2144.22 319.484 2141.46 318.105 2139.62 312.588L2129.04 285.007H2127.2ZM2045.81 197.207H2093.17L2090.42 189.852C2082.6 168.706 2071.56 128.253 2071.56 128.253H2067.42C2067.42 128.253 2056.85 168.706 2048.57 189.852L2045.35 197.207H2045.81Z" fill="#F1009C"/>
<path d="M1276.97 61.598L1173.5 1.83847C1167.53 -1.37935 1160.63 2.75785 1160.63 9.19349V128.713C1160.63 135.608 1167.98 139.745 1173.5 136.068L1276.97 76.3081C1282.94 73.0902 1282.94 64.8158 1276.97 61.1383V61.598Z" fill="#F1009C"/>
<path d="M1282.02 313.507C1282.02 316.725 1278.81 319.943 1275.59 319.943H1167.07C1163.85 319.943 1160.63 316.725 1160.63 313.507V176.06C1160.63 172.843 1163.39 169.165 1167.07 166.867L1275.59 104.349C1280.18 102.05 1282.02 107.567 1282.02 110.785V313.967V313.507Z" fill="#F1009C"/>
</svg>
