<svg width="127" height="45" viewBox="0 0 127 45" fill="none" xmlns="http://www.w3.org/2000/svg">
<path d="M52.4647 41.1256C51.2104 40.3774 49.9561 39.6293 48.7259 38.8811C49.8596 38.3019 50.8727 37.433 50.9933 36.0815C51.1139 34.8265 50.2214 33.3543 48.9189 33.2095C47.5439 33.0405 46.6997 34.199 46.4102 35.4057C45.8072 37.9398 46.2655 40.9567 46.2896 43.5391C46.2896 44.3596 47.568 44.3596 47.568 43.5391C47.568 42.2599 47.568 40.9567 47.568 39.6775C48.9912 40.5464 50.4385 41.3911 51.8617 42.2599C52.5612 42.6943 53.2125 41.5842 52.513 41.1497L52.4647 41.1256ZM47.568 36.1297C47.7128 35.2126 47.6404 34.9713 48.6776 35.0196C49.4737 34.7782 49.739 35.0196 49.4737 35.816C49.6666 36.3711 49.4978 36.7814 48.9912 37.0469C48.557 37.5537 48.0746 37.795 47.4957 37.9881C47.4957 37.7709 47.4957 37.5778 47.4957 37.3606C47.4957 36.9262 47.4957 36.5159 47.5439 36.1056L47.568 36.1297Z" fill="#FB00B1"/>
<path d="M56.9989 34.7051C57.3607 37.1668 57.4572 39.6286 57.3125 42.1144C57.2642 42.935 58.5427 42.935 58.5909 42.1144C58.7357 39.5079 58.5909 36.9496 58.2291 34.3672C58.1085 33.5467 56.8783 33.9087 56.9989 34.7051Z" fill="#FB00B1"/>
<path d="M68.3126 36.7328C67.589 36.3467 66.9377 37.4568 67.6614 37.843C68.5297 38.2774 70.9419 40.6909 69.3981 41.6563C68.8674 41.9941 67.2754 41.8493 66.6965 41.7287C65.8764 41.5597 65.1045 41.2218 64.5979 40.5219C63.7054 39.2911 63.8743 37.4568 64.9356 36.3708C66.1417 35.1399 68.0714 35.0434 69.567 35.7433C70.3147 36.0812 70.966 34.9951 70.2183 34.6331C68.0232 33.6195 65.1768 33.8608 63.6572 35.9122C62.3305 37.6741 62.427 40.4254 64.1396 41.9459C65.0321 42.7423 66.2382 43.0561 67.4201 43.1043C68.4091 43.1526 70.0494 43.1767 70.7489 42.3079C72.2203 40.4495 69.9288 37.5775 68.3368 36.7569L68.3126 36.7328Z" fill="#FB00B1"/>
<path d="M83.1716 42.0666C81.7001 39.8221 80.2287 37.6017 78.7573 35.3572C78.492 34.9469 77.9372 34.9469 77.6477 35.3572C76.2004 37.4569 75.5009 39.9186 75.6456 42.4769C75.6939 43.2975 76.9723 43.2975 76.9241 42.4769C76.8758 41.6322 76.9241 40.8116 77.0688 40.0152H80.084C80.1564 40.0152 80.2046 40.0152 80.277 40.0152C80.88 40.9323 81.483 41.8253 82.0861 42.7424C82.5444 43.4182 83.654 42.7907 83.1957 42.0908L83.1716 42.0666ZM77.3824 38.7361C77.5995 38.1086 77.8648 37.4811 78.2025 36.8777C78.6126 37.5052 79.0226 38.1086 79.4327 38.7361H77.3824Z" fill="#FB00B1"/>
<path d="M29.1389 24.5687H25.0141L22.0713 10.8844L14.5694 24.2308L7.06762 10.8844L4.12479 24.5687H0L5.28263 0.385864L14.5694 16.8939L23.8321 0.385864L29.1389 24.5687Z" fill="#FB00B1"/>
<path d="M31.2134 16.6774C31.2134 11.6091 34.8557 8.13373 39.7765 8.13373C42 8.13373 43.5154 8.61642 44.9627 9.55767V13.2261C43.6119 12.1642 41.8269 11.5608 40.1384 11.5608C37.0749 11.5608 35.0487 13.5157 35.0487 16.6291C35.0487 19.7425 37.0026 21.5525 40.066 21.5525C43.1294 21.5525 43.5154 20.9974 45.0592 19.8873V23.5557C43.5395 24.497 41.6339 24.9797 39.7765 24.9797C34.5904 24.9797 31.2134 21.6249 31.2134 16.7015" fill="#FB00B1"/>
<path d="M48.7494 12.6465C48.7494 5.2372 54.0079 0 61.4132 0C65 0 66.8888 0.699902 69.0598 2.05144V6.25085C66.9612 4.6097 64.2354 3.66845 61.5821 3.66845C56.4201 3.66845 52.8501 7.33691 52.8501 12.6706C52.8501 18.0044 56.2753 21.2867 61.5579 21.2867C66.8406 21.2867 67.0336 20.3454 69.1563 18.7043V22.9037C66.9853 24.2552 64.2596 24.9551 61.4856 24.9551C53.8149 24.9551 48.7494 20.0558 48.7494 12.6465Z" fill="#FB00B1"/>
<path d="M85.1489 16.5318C85.1489 13.5391 83.2433 11.4635 80.5176 11.4635C77.7918 11.4635 75.8862 13.515 75.8862 16.5318C75.8862 19.5486 77.7918 21.6001 80.5176 21.6001C83.2433 21.6001 85.1489 19.5486 85.1489 16.5318ZM85.4384 8.6398H88.9601V24.5686H85.4384V22.3241C84.2805 24.0376 82.3991 24.9789 80.0351 24.9789C75.4279 24.9789 72.0509 21.4311 72.0509 16.6283C72.0509 11.8256 75.4762 8.1571 80.1316 8.1571C82.5 8.1571 84.3288 9.12249 85.4384 10.7395V8.68806V8.6398Z" fill="#FB00B1"/>
<path d="M108.065 14.6982V24.5692H104.302V15.3739C104.302 12.9122 103.12 11.4641 101.118 11.4641C99.1155 11.4641 96.9928 13.6363 96.9928 17.2564V24.5451H93.2299V8.6404H96.7998V10.6918C97.8612 9.02655 99.598 8.10944 101.865 8.10944C105.58 8.10944 108.089 10.7642 108.089 14.6982" fill="#FB00B1"/>
<path d="M126.976 14.6982V24.5692H123.213V15.3739C123.213 12.9122 122.031 11.4641 120.029 11.4641C118.027 11.4641 115.904 13.6363 115.904 17.2564V24.5451H112.141V8.6404H115.711V10.6918C116.772 9.02655 118.509 8.10944 120.777 8.10944C124.491 8.10944 127 10.7642 127 14.6982" fill="#FB00B1"/>
</svg>
