<svg width="140" height="17" viewBox="0 0 140 17" fill="none" xmlns="http://www.w3.org/2000/svg">
<path d="M92.2476 0.362988H88.9596V8.95373C87.4846 7.50178 85.2107 6.74555 81.4925 6.74555V0.362988H78.2046V16.6673H81.4925V9.92171C85.2414 9.92171 89.0211 10.9199 89.0211 16.6673H92.2476V0.362988ZM69.324 6.47331C67.0808 6.23132 66.4355 5.68683 66.4355 4.68861C66.4355 3.78114 67.511 3.17616 69.1089 3.17616C69.4469 3.17616 69.7542 3.23665 70.0615 3.3274C70.3687 3.41815 70.6453 3.5694 70.9219 3.78114C71.1677 3.96263 71.4135 4.20463 71.5979 4.44662C71.7823 4.71886 71.9359 4.9911 72.0281 5.29359L75.101 3.93238C74.2406 1.5427 71.9666 0 69.1089 0C65.6673 0 63.1475 1.87544 63.1475 4.59786C63.1475 7.62278 65.1141 9.31673 68.9245 9.67972C71.475 9.92171 72.489 10.6477 72.489 11.6459C72.489 12.9769 71.3521 13.8541 69.2932 13.8541C67.3881 13.8541 66.036 12.7651 65.4214 10.7384L62.3793 11.9182C63.209 15.0641 65.7287 17 69.2932 17C73.2265 17 75.7463 14.7918 75.7463 11.5854C75.8077 8.4395 73.5031 6.8968 69.324 6.47331ZM128.262 0.362988H140V3.47865H131.55V6.7758H139.047V9.89146H131.55V13.5516H140V16.6673H128.262V0.362988ZM52.7612 13.4004C55.3731 13.4004 57.2476 11.3737 57.2476 8.5605C57.2476 5.74733 55.3731 3.66014 52.7612 3.66014H49.7498V13.4004H52.7612ZM46.4925 0.362988H52.8227C57.4934 0.362988 60.6585 3.96263 60.6585 8.53025C60.6585 13.0979 57.4627 16.6673 52.8227 16.6673H46.4925V0.362988ZM21.9403 0.362988H25.2283V16.6673H21.9403V0.362988ZM9.3108 9.77046C5.74627 9.77046 3.28797 0.362988 3.28797 0.362988H0V16.6673H3.28797V8.10676C4.33275 10.6174 6.72959 13.0071 9.3108 13.0071C11.9227 13.0071 14.3196 10.6174 15.3644 8.07651V16.6673H18.6523V0.362988H15.3644C15.3644 0.362988 12.8753 9.77046 9.3108 9.77046ZM39.9166 0.362988V9.92171C37.9192 6.47331 34.0167 2.17794 32.3881 0.362988H28.4855V16.6673H31.7735V4.44662C34.2318 7.01779 38.3187 13.2491 39.763 16.6673H43.2046V0.362988H39.9166ZM99.8068 10.7082L102.419 4.26512L104.385 9.13523C102.757 9.37722 101.22 9.89146 99.8068 10.7082ZM111.023 16.6673L104.355 0.362988H100.452L93.8148 16.6673H97.41C98.6392 13.9146 102.142 12.4324 105.584 12.1299L107.428 16.6673H111.023ZM119.842 7.53203H115.909V3.50889H119.842C121.225 3.50889 122.085 4.23487 122.085 5.50534C122.085 6.7758 121.225 7.53203 119.842 7.53203ZM125.558 16.6673C125.558 14.0658 124.175 10.9804 121.778 10.0427C122.3 9.95196 122.792 9.74022 123.253 9.46797C123.714 9.19573 124.113 8.83274 124.421 8.4395C124.759 8.01601 125.004 7.56228 125.158 7.04804C125.312 6.53381 125.404 6.01957 125.373 5.50534C125.373 2.51068 123.284 0.393239 120.088 0.393239H112.621V16.6975H115.909V10.6477C116.308 10.6174 116.738 10.6477 117.138 10.7082C117.537 10.7687 117.937 10.8897 118.336 11.0107C118.736 11.1619 119.074 11.3434 119.442 11.5552C119.781 11.7669 120.119 12.0089 120.395 12.3114C120.702 12.5836 120.948 12.9164 121.194 13.2491C121.44 13.5819 121.624 13.9448 121.778 14.3078C121.932 14.6708 122.054 15.0641 122.147 15.4573C122.239 15.8505 122.27 16.274 122.27 16.6673H125.558Z" fill="#FB00B1"/>
</svg>
