<svg width="200" height="33" viewBox="0 0 200 33" fill="none" xmlns="http://www.w3.org/2000/svg">
<path d="M20 14.6717L19.9188 14.8816C21.2729 15.4774 24.3128 17.8403 24.3128 22.5999C24.3128 27.082 20.5349 31.5979 14.5972 31.5979C7.21057 31.5979 4.66486 27.2783 4.66486 23.3108C4.66486 18.2262 8.21937 14.8409 8.21937 10.2099C8.20001 8.57204 7.62564 6.98918 6.59014 5.72002C5.55465 4.45087 4.11928 3.57049 2.51862 3.22278L2.39675 3.43266C2.97723 3.9959 3.4378 4.67071 3.75079 5.41652C4.06377 6.16233 4.2227 6.96374 4.21801 7.77254C4.21801 12.7759 0 16.3304 0 22.0718C0 27.3595 3.69668 32.7489 14.4008 32.7489C23.9404 32.7489 28.9709 28.0772 28.9709 23.1077C28.9641 18.8423 25.9106 15.2336 20 14.6717Z" fill="#FB00B1"/>
<path d="M61.9092 31.8957L49.2281 15.545V30.2844L51.8144 30.9005V31.5775H45.9173V30.9005L48.0297 30.2844V14.2248C47.5156 13.7456 46.8965 13.3931 46.222 13.1957C45.9647 13.1415 45.6194 13.0806 45.6194 13.0806V12.4035H50.6228L61.4556 26.4861V13.7102L58.8692 13.0873V12.4103H64.7663V13.0873L62.6539 13.7102V28.3277C62.6539 29.6818 62.7487 31.652 62.769 31.9025L61.9092 31.8957ZM88.4224 21.4827C88.4224 28.2532 83.6831 32.1801 78.5036 32.1801C73.3242 32.1801 68.5646 28.1991 68.5646 22.0108C68.5646 15.8226 73.3039 11.801 78.4563 11.801C79.7532 11.7581 81.0454 11.9774 82.2557 12.4456C83.4659 12.9138 84.5692 13.6213 85.4997 14.5259C86.4301 15.4304 87.1685 16.5133 87.6707 17.7098C88.1729 18.9064 88.4286 20.1919 88.4224 21.4895V21.4827ZM85.1252 22.4983C85.1252 17.522 82.1462 12.6947 78.0974 12.6947C73.7914 12.6947 71.8483 16.8585 71.8483 21.3135C71.8483 25.7685 74.3059 31.2932 78.9302 31.2932C83.2768 31.2932 85.1252 26.8924 85.1252 22.4983ZM92.5185 13.6967L90.4874 13.0738V12.3968H98.2667V13.0738L95.8293 13.6967L101.198 28.3345L106.567 13.6967L104.13 13.0738V12.3968H109.885V13.0738L107.854 13.6967L101.131 31.9431H99.4109L92.5185 13.6967ZM138.49 21.7874H137.258V13.4056C141.32 13.4056 143.737 14.3399 143.737 17.6574C143.717 20.1219 141.605 21.7874 138.49 21.7874ZM173.297 30.9005L176.005 30.2844V13.7035L173.297 13.0806V12.4035H181.74V13.0806L179.032 13.7035V30.2844L181.74 30.9005V31.5775H173.297V30.9005ZM186.913 26.3101H187.447L189.242 30.4401C190.308 30.9758 191.481 31.2673 192.674 31.2932C195.003 31.2932 197.129 29.9391 197.129 27.5152C197.129 25.6737 195.938 24.5769 194.008 23.5681L192.099 22.5796C189.817 21.3947 187.536 19.7156 187.536 17.0142C187.536 14.0758 189.567 11.8077 193.913 11.8077C195.441 11.8232 196.957 12.0721 198.409 12.5457L198.863 16.9871H198.287L196.628 13.4259C195.769 12.9463 194.802 12.6946 193.819 12.6947C191.618 12.6947 190.122 14.0488 190.122 15.9242C190.122 17.6236 191.253 18.6933 193.189 19.6953L195.45 20.8734C198.538 22.4712 200 23.954 200 26.696C200 30.0813 196.825 32.1869 192.877 32.1869C191.019 32.2151 189.169 31.9384 187.4 31.3677L186.913 26.3101ZM108.646 30.9005L110.819 30.2844L117.529 12.39L119.77 11.8145L126.696 30.2776L128.869 30.9005V31.5775H120.65V30.9005L123.433 30.2776L121.469 24.9695H114.089L112.139 30.2776L114.922 30.8937V31.5708H108.646V30.9005ZM114.604 23.5545H120.988L117.82 14.9966L114.604 23.5545ZM142.363 22.2004C143.04 22.0312 146.838 21.063 146.838 17.4611C146.838 14.5701 144.624 12.3291 139.167 12.3291C135.782 12.3291 132.397 12.4035 131.97 12.4171V13.0941L134.198 13.717V30.2776L131.97 30.9005V31.5775H139.851V30.9005L137.265 30.2776V22.7894H139.492L145.186 31.5911H150.23V30.914L147.678 30.237L142.363 22.2004ZM159.005 13.3988V30.2844L156.296 30.9005V31.5775H164.739V30.9005L162.031 30.2844V13.4056H166.588L168.091 16.6418H168.673L168.24 12.4238H152.796L152.363 16.6418H152.945L154.435 13.4394L159.005 13.3988ZM14.5294 25.5857L17.2375 0H11.618L14.3262 25.5857H14.5294Z" fill="#FB00B1"/>
</svg>
