<svg width="117" height="61" viewBox="0 0 117 61" fill="none" xmlns="http://www.w3.org/2000/svg">
<path d="M89.3866 58.1297H27.7105L4.04979 30.6951L27.7105 3.07926H89.3727L112.95 30.7926L89.3866 58.1297ZM90.8706 0H26.2265L0 30.5975L26.2265 61H90.8567L117 30.6951L90.8706 0ZM79.1511 23.4079C80.8709 24.6898 81.3147 25.9159 81.3147 29.3575V41.0336H77.5146V29.5107C77.5146 28.4797 77.5423 27.5461 77.0708 26.8495C76.627 26.1807 75.7532 25.9159 75.1291 25.9438C73.7144 25.9995 72.9516 27.0167 72.9516 27.9223V41.0336H69.1515V15.8979H72.9516V23.603C73.756 22.9621 74.921 22.558 76.1415 22.5441C77.2511 22.5301 78.4161 22.8645 79.1511 23.4079ZM48.1814 35.4045C48.1952 35.1955 48.2784 34.4989 48.2784 32.0327C48.2784 29.5665 48.1814 28.5493 48.1814 28.5215C48.1675 27.1421 47.4463 25.7627 45.893 25.7627C44.3396 25.7627 43.6184 27.1421 43.6045 28.5354C43.6045 28.5493 43.5075 29.5665 43.5075 32.0327C43.5075 34.4849 43.6045 35.3209 43.6045 35.3349C43.6739 36.6725 44.3119 38.2051 45.893 38.2051C47.474 38.219 48.0565 36.77 48.1814 35.4045ZM45.893 22.5441C48.3894 22.5441 51.4129 23.7005 51.9538 29.0649C52.0092 29.5665 52.0647 31.3639 52.0647 32.0327C52.0647 33.4957 51.9815 34.7079 51.9676 35.0005C51.718 38.9296 49.4573 41.4237 45.893 41.4237C42.3286 41.4237 40.0679 38.9714 39.8183 35.0005C39.8044 34.6939 39.7073 33.4957 39.7212 32.0327C39.7351 30.0263 39.7905 29.3993 39.8183 29.0649C40.2066 24.8013 42.3563 22.5441 45.893 22.5441ZM92.3823 29.7755C92.3823 29.3993 92.3546 29.0509 92.313 28.5354C92.2436 27.5461 91.8275 25.7487 89.9968 25.7627C88.4573 25.7766 87.7916 27.0167 87.6807 28.5215C87.6668 28.7583 87.6668 28.9395 87.639 29.7755H92.3823ZM96.0715 30.918C96.0992 31.6843 96.0853 32.9383 96.0853 32.9383H87.6252C87.6252 34.4849 87.6945 34.9308 87.7223 35.3488C87.8332 36.77 88.4296 38.2191 89.9968 38.2191C91.8414 38.2191 92.1881 36.3241 92.2991 35.4324C92.3407 35.0841 92.3407 34.8054 92.3407 34.8054H95.9744C95.7386 38.9715 93.4363 41.4237 89.9968 41.4237C86.5573 41.4237 84.255 38.9018 84.0192 35.0005C84.0053 34.7218 83.9221 33.4957 83.9221 32.0327C83.9221 29.9845 83.9915 29.4411 84.0192 29.0649C84.4353 24.7734 86.5711 22.5441 89.9968 22.5441C91.772 22.5441 93.2838 23.2407 94.3378 24.5505C95.2532 25.693 95.8634 27.4486 95.9744 29.0649C96.0437 30.1238 96.0576 30.6115 96.0715 30.918ZM33.3275 23.3801C33.3414 23.2547 33.3414 23.1293 33.3414 22.7949C33.3414 22.5023 33.3275 22.349 33.3137 22.2097C33.272 20.3566 32.2041 19.3116 30.2486 19.3116H28.4595V26.4036H30.4427C32.745 26.4036 33.2304 24.4808 33.3275 23.3801ZM37.0722 33.3006L37.4605 39.473C37.4883 40.3508 37.6547 41.0336 37.6547 41.0336H33.91C33.91 41.0336 33.7575 40.323 33.7159 39.5009L33.3275 33.6629C33.1195 30.6811 31.7603 29.6361 30.5537 29.6361H28.4733V41.0336H24.7287V16.093H30.526C34.0765 16.1348 37.0861 17.8486 37.1138 22.7252C37.1277 25.9299 35.7962 27.4625 34.7699 28.0895C36.1846 28.9116 36.9058 30.5418 37.0722 33.3006ZM60.7052 25.7627C62.3001 25.7487 62.9797 27.156 62.9936 28.5215C62.9936 28.5354 63.0352 28.8698 63.0629 29.5943H66.8076C66.7937 29.3435 66.7799 29.1345 66.7799 29.0091C66.3499 23.7981 63.1878 22.5441 60.7052 22.5441C57.1824 22.5441 55.0327 24.8013 54.6444 29.0649C54.6166 29.3993 54.5612 30.0263 54.5473 32.0327C54.5334 33.4957 54.6305 34.6939 54.6444 35.0005C54.894 38.9714 57.1547 41.4098 60.7191 41.4237C64.4082 41.4376 66.447 39.1804 66.7937 35.0005C66.8076 34.8472 66.8215 34.7357 66.8215 34.6382H63.0629C63.0491 34.9169 63.0213 35.1677 63.0075 35.3349C62.8965 36.7282 62.4111 38.2051 60.7191 38.2051C59.138 38.2051 58.5139 36.6028 58.4029 35.4185C58.3336 34.6939 58.3474 34.1505 58.3336 32.0327C58.3197 29.5665 58.389 28.9395 58.4307 28.5354C58.5416 26.9888 59.138 25.7766 60.7052 25.7627Z" fill="#FB00B1"/>
</svg>
