<svg width="93" height="24" viewBox="0 0 93 24" fill="none" xmlns="http://www.w3.org/2000/svg">
<g clip-path="url(#clip0_4656_1331)">
<path d="M3.74345 17.7711V6.46875H0V18.1812C0 22.7096 2.09343 24.0024 5.24568 24.0024C7.60321 24.0024 9.54884 22.7771 10.2539 20.3266H10.6658V23.4923H14.3778V6.46875H10.6658V17.261C10.5786 19.9841 8.63296 20.5967 6.77698 20.5967C4.77321 20.5967 3.74103 20.0866 3.74103 17.7711" fill="#FB00B1"/>
<path d="M27.9252 6.46875H26.687C23.416 6.46875 22.3257 8.03408 21.6182 10.8947H21.2354V6.46875H17.5234V23.4898H21.2354V14.8755C21.2354 11.8799 22.3257 10.1445 25.9214 10.3146L27.9252 10.3496V6.46875Z" fill="#FB00B1"/>
<path d="M37.6644 9.36195C40.7294 9.36195 41.8779 10.2121 41.8779 15.0131C41.8779 19.8141 40.7585 20.5968 37.6644 20.5968C35.6606 20.5968 33.8628 19.8466 33.8628 16.851V12.9027C33.9525 10.0771 35.6897 9.36195 37.6644 9.36195ZM39.283 24C43.2905 24 45.5584 22.0946 45.5584 15.0131C45.5584 7.93165 43.2905 5.95874 39.283 5.95874C36.7776 5.95874 34.9798 7.184 34.2432 9.63451H33.8604V0H30.1484V23.4899H33.8604V20.3242H34.2432C34.9798 22.7747 36.7776 24 39.283 24Z" fill="#FB00B1"/>
<path d="M51.419 13.8229V13.6879C51.5668 10.1821 53.2168 9.36445 55.4556 9.36445C57.6944 9.36445 59.1991 10.4197 59.1991 13.8254H51.419V13.8229ZM62.9425 15.9333V13.7554C62.9425 8.30923 60.2918 5.95874 55.4871 5.95874C50.4183 5.95874 47.707 8.10419 47.707 15.0831C47.707 22.0621 50.4474 24.0025 55.5162 24.0025C59.8484 24.0025 62.5597 22.5047 62.9425 17.8737H59.2306C58.964 20.0517 57.5224 20.5968 55.5477 20.5968C53.0424 20.5968 51.5111 19.6441 51.4214 15.9658V15.9308H62.9425V15.9333Z" fill="#FB00B1"/>
<path d="M76.1048 6.46875H74.8667C71.5957 6.46875 70.5054 8.03408 69.7979 10.8947H69.4151V6.46875H65.7031V23.4898H69.4151V14.8755C69.4151 11.8799 70.5054 10.1445 74.1011 10.3146L76.1048 10.3496V6.46875Z" fill="#FB00B1"/>
<path d="M89.1626 17.3861C89.0245 19.7816 87.423 20.9494 84.9952 20.9494C81.6467 20.9494 80.2898 19.0615 80.2898 15.1782C80.2898 11.0148 81.8744 8.99186 85.1333 8.99186C87.5683 8.99186 88.93 10.1746 89.5309 12.8227L92.6226 12.105C91.8788 8.07667 89.3008 5.94873 85.1599 5.94873C79.97 5.94873 76.9922 9.31193 76.9922 15.1782C76.9922 20.6643 79.0614 23.9375 84.4549 23.9375C87.5247 23.9375 88.6563 21.3619 89.1845 19.8741H89.5915V23.4724H93.003V14.5405H84.9249V17.3861H89.1626Z" fill="#FB00B1"/>
</g>
<defs>
<clipPath id="clip0_4656_1331">
<rect width="93" height="24" fill="white"/>
</clipPath>
</defs>
</svg>
