<svg width="175" height="41" viewBox="0 0 175 41" fill="none" xmlns="http://www.w3.org/2000/svg">
<g clip-path="url(#clip0_4656_1183)">
<path d="M22.8558 9.16436C22.6364 9.14442 22.437 9.12447 22.2575 9.12447C22.058 9.12447 21.8586 9.1145 21.6492 9.1145C18.3484 9.1145 15.3468 10.351 13.1629 12.3455C10.979 14.3399 9.63281 17.0922 9.63281 20.1336C9.63281 23.1751 10.979 25.9274 13.1629 27.9218C15.3368 29.9163 18.3384 31.1528 21.6492 31.1528C21.8586 31.1528 22.068 31.1528 22.2575 31.1328C22.4469 31.1328 22.6364 31.1129 22.8558 31.093L23.135 31.063V9.18431L22.8558 9.15439V9.16436ZM22.5865 30.5445C22.4669 30.5445 22.3472 30.5644 22.2375 30.5644C22.048 30.5644 21.8486 30.5844 21.6492 30.5844C18.5877 30.5844 15.7158 29.4875 13.5419 27.503C11.3779 25.5285 10.1912 22.9059 10.1912 20.1237C10.1912 17.3415 11.3779 14.7188 13.5419 12.7443C15.7058 10.7599 18.5877 9.66297 21.6492 9.66297C21.8486 9.66297 22.048 9.66297 22.2375 9.67294C22.3472 9.67294 22.4669 9.68291 22.5865 9.69288V30.5345V30.5445Z" fill="#FB00B1"/>
<path d="M12.6843 12.0562C14.9779 9.99198 18.129 8.70559 21.6193 8.70559C22.0082 8.70559 22.3971 8.72553 22.796 8.75545C22.9057 8.76542 23.0253 8.77539 23.135 8.78536V8.00754L21.8785 -0.0100098H21.2603L20.1733 7.15991L17.8598 0.299125L17.2515 0.398845L17.431 7.51891L13.871 1.32625L13.3025 1.53566L14.8781 8.49617L10.1613 3.05142L9.64279 3.36055L12.5447 9.91221L6.85061 5.42477L6.40187 5.82366L10.5203 11.7172L4.0684 8.37651L3.70941 8.85517L8.89489 13.8412L1.93438 11.8268L1.6751 12.3653L7.61846 16.1547L0.528314 15.7758L0.408649 16.3542L7.33924 18.7774L0.00976562 19.7347V20.3231L7.1398 21.4399L0.378733 23.8133L0.498397 24.3917L7.59852 24.0227L1.65516 27.8021L1.91443 28.3406L8.89489 26.3362L3.69943 31.3223L4.05843 31.8009L10.5203 28.4702L6.40187 34.3538L6.85061 34.7526L12.5447 30.2752L9.63282 36.8169L10.1514 37.126L14.8781 31.6912L13.2926 38.6517L13.861 38.8611L17.431 32.6685L17.2515 39.7886L17.8498 39.8883L20.1733 33.0275L21.2603 40.1874H21.8785L23.135 32.1799V31.3921C23.0153 31.402 22.9057 31.412 22.796 31.422C22.3971 31.4619 22.0082 31.4718 21.6193 31.4718C18.139 31.4718 14.9779 30.1954 12.6843 28.1212C10.4007 26.057 8.98464 23.215 8.98464 20.0937C8.98464 16.9724 10.4007 14.1204 12.6843 12.0562ZM21.5694 2.10407L22.5068 7.96765V8.15712C22.2176 8.13718 21.9284 8.11723 21.6193 8.11723C21.2902 8.11723 20.9711 8.13718 20.652 8.15712L21.5694 2.0941V2.10407ZM19.8841 8.2369C19.2658 8.3067 18.6576 8.42637 18.0692 8.56598L17.9196 2.42318L19.8841 8.2369ZM21.6193 32.0602C21.9284 32.0602 22.2176 32.0402 22.5068 32.0203V32.2098L21.5694 38.0734L20.652 32.0103C20.9711 32.0303 21.2902 32.0502 21.6193 32.0502V32.0602ZM18.0792 31.6114C18.6675 31.761 19.2758 31.8707 19.8941 31.9405L17.9196 37.7542L18.0792 31.6114ZM14.3496 3.40044L17.421 8.74547C16.8227 8.92497 16.2543 9.14436 15.7058 9.39366L14.3496 3.40044ZM11.0289 4.99597L15.0875 9.68285C14.5391 9.96207 14.0205 10.2812 13.5219 10.6302L11.0289 4.99597ZM2.56262 16.4938L8.86497 16.8727C8.69545 17.4212 8.56581 17.9896 8.48603 18.568L2.56262 16.4938ZM2.17371 20.0638L8.41623 19.256C8.39628 19.5353 8.36637 19.8045 8.36637 20.0837C8.36637 20.3929 8.39628 20.692 8.41623 20.9912L2.17371 20.0638ZM2.56262 23.6836L8.48603 21.6095C8.56581 22.1779 8.69545 22.7263 8.855 23.2648L2.56262 23.6836ZM17.431 31.4319L14.3496 36.777L15.7158 30.7838C16.2643 31.0331 16.8426 31.2525 17.431 31.4319ZM15.0875 30.4946L11.0189 35.1814L13.5219 29.5472C14.0205 29.8962 14.5391 30.2154 15.0875 30.4946ZM12.2654 28.55C12.4948 28.7594 12.7441 28.9489 12.9834 29.1384L8.07718 32.9976L11.6272 27.9318C11.8267 28.1412 12.0361 28.3506 12.2555 28.55H12.2654ZM11.1885 27.4331L5.62404 30.2951L10.1115 25.9872C10.4306 26.4958 10.7896 26.9744 11.1885 27.4331ZM9.04447 23.8432C9.24391 24.3917 9.49321 24.9302 9.7824 25.4387L3.74929 27.1838L9.04447 23.8432ZM9.04447 16.3243L3.74929 12.9936L9.7824 14.7387C9.49321 15.2473 9.25388 15.7758 9.04447 16.3243ZM10.1015 14.1902L5.61407 9.87232L11.1785 12.7443C10.7796 13.203 10.4206 13.6817 10.1015 14.1902ZM8.07718 7.17986L12.9735 11.0391C12.7242 11.2285 12.4848 11.418 12.2555 11.6274C12.0361 11.8268 11.8267 12.0363 11.6272 12.2556L8.07718 7.17986Z" fill="#FB00B1"/>
<path d="M174.88 30.9434H26.1367V31.5517H174.88V30.9434Z" fill="#FB00B1"/>
<path d="M72.6457 4.26807H67.0215V6.49184H72.6457V4.26807Z" fill="#FB00B1"/>
<path d="M30.8934 25.01H30.9433L32.2795 8.28687H35.5504L33.1072 28.7396H28.3007L26.1367 8.28687H29.8962L30.9034 25.01H30.8934Z" fill="#FB00B1"/>
<path d="M36.1895 28.7496V8.29688H42.9804V11.2287H39.8193V15.9155H42.8508V18.8473H39.8193V25.8278H42.9804V28.7596H36.1895V28.7496Z" fill="#FB00B1"/>
<path d="M48.5334 15.5965V12.2957C48.5334 11.7173 48.4536 10.9495 47.8952 10.9495C47.3368 10.9495 47.247 11.7273 47.247 12.2957C47.3467 18.0097 52.2929 16.115 52.2929 23.6439V25.4289C52.2929 28.1613 50.2586 29.1685 48.0248 29.1685C45.7911 29.1685 43.7468 28.1613 43.7468 25.4289V20.7221H47.3767V24.7708C47.3767 25.3492 47.4564 26.117 48.0248 26.117C48.5933 26.117 48.6631 25.3392 48.6631 24.7708C48.5833 18.1892 43.6172 18.9072 43.6172 14.2004V11.6475C43.6172 8.91518 45.6515 7.91797 47.8852 7.91797C50.119 7.91797 52.1533 8.92515 52.1533 11.6475V15.6164H48.5234L48.5334 15.5965Z" fill="#FB00B1"/>
<path d="M53.1016 28.7496V8.29688H59.8925V11.2287H56.7314V15.9155H59.7629V18.8473H56.7314V25.8278H59.8925V28.7596H53.1016V28.7496Z" fill="#FB00B1"/>
<path d="M60.5605 28.7496V8.29688H64.1904V25.8178H67.4114V28.7496H60.5705H60.5605Z" fill="#FB00B1"/>
<path d="M68.2383 28.7496V8.29688H71.8681V28.7496H68.2383Z" fill="#FB00B1"/>
<path d="M72.8262 8.29688H77.0942C79.3379 8.29688 81.3623 9.30406 81.3623 12.4353V13.9909C81.3623 15.9455 80.9534 17.3216 78.6399 17.8402V17.9299C80.5146 18.1293 81.3623 19.1066 81.3623 22.3874V24.1724C81.3623 27.6726 79.8964 28.7696 77.0942 28.7696H72.8262V8.29688ZM77.7424 12.5151C77.7424 11.5378 77.4831 11.2187 76.8948 11.2187H76.456V16.7931H76.8948C77.4831 16.7931 77.7424 16.474 77.7424 15.4967V12.5051V12.5151ZM76.456 25.8178H76.8948C77.4831 25.8178 77.7424 25.6483 77.7424 24.8406V20.3033C77.7424 19.4955 77.4831 19.326 76.8948 19.326H76.456V25.8178Z" fill="#FB00B1"/>
<path d="M84.3732 8.29688H89.1797L91.3636 28.7496H87.5842L87.1654 23.1752H85.4402L84.8718 28.7496H81.6309L84.3632 8.29688H84.3732ZM86.946 20.2434L86.4573 11.8569H86.3576L85.7693 20.2434H86.9559H86.946Z" fill="#FB00B1"/>
<path d="M96.5703 15.5965V12.2957C96.5703 11.7173 96.4905 10.9495 95.9321 10.9495C95.3737 10.9495 95.2839 11.7273 95.2839 12.2957C95.3837 18.0097 100.33 16.115 100.33 23.6439V25.4289C100.33 28.1613 98.2955 29.1685 96.0618 29.1685C93.828 29.1685 91.7937 28.1613 91.7937 25.4289V20.7221H95.4235V24.7708C95.4235 25.3492 95.5033 26.117 96.0717 26.117C96.6401 26.117 96.7099 25.3392 96.7099 24.7708C96.6302 18.1892 91.6641 18.9072 91.6641 14.2004V11.6475C91.6641 8.91518 93.6984 7.91797 95.9421 7.91797C98.1858 7.91797 100.21 8.92515 100.21 11.6475V15.6164H96.5803L96.5703 15.5965Z" fill="#FB00B1"/>
<path d="M114.528 20.7021V25.4089C114.528 28.1412 112.494 29.1484 110.26 29.1484C108.026 29.1484 105.992 28.1412 105.992 25.4089V11.6175C105.992 8.88515 108.026 7.88794 110.26 7.88794C112.494 7.88794 114.528 8.89512 114.528 11.6175V15.4966H110.898V12.2757C110.898 11.6973 110.819 10.9294 110.26 10.9294C109.702 10.9294 109.612 11.7072 109.612 12.2757V24.7407C109.612 25.3191 109.692 26.087 110.26 26.087C110.829 26.087 110.898 25.3092 110.898 24.7407V20.6921H114.528V20.7021Z" fill="#FB00B1"/>
<path d="M115.367 28.7496V8.29688H122.158V11.2287H118.997V15.9155H122.029V18.8473H118.997V25.8278H122.158V28.7596H115.367V28.7496Z" fill="#FB00B1"/>
<path d="M122.875 28.7496V8.29688H127.921L129.776 21.5697H129.826V8.29688H132.658V28.7496H128.34L125.767 12.6646L125.717 12.7245V28.7496H122.885H122.875Z" fill="#FB00B1"/>
<path d="M139.341 28.7496H135.711V11.2287H133.268V8.29688H141.784V11.2287H139.341V28.7496Z" fill="#FB00B1"/>
<path d="M142.362 28.7496V8.29688H146.63C148.873 8.29688 150.898 9.30406 150.898 12.4353V14.2402C150.898 15.766 150.279 17.4313 148.095 17.5709V17.6307C150.389 17.7703 150.898 18.7476 150.898 21.0811V25.1297C150.898 27.1142 151.237 27.9419 151.436 28.7496H147.756C147.497 28.1712 147.268 27.5131 147.268 26.107V21.45C147.268 20.1836 147.268 19.1764 145.981 19.1764V28.7396H142.352L142.362 28.7496ZM145.981 16.823H146.42C147.009 16.823 147.268 16.5039 147.268 15.5266V12.5151C147.268 11.5378 147.009 11.2187 146.42 11.2187H145.981V16.823Z" fill="#FB00B1"/>
<path d="M156.582 15.5965V12.2957C156.582 11.7173 156.502 10.9495 155.934 10.9495C155.366 10.9495 155.296 11.7273 155.296 12.2957C155.396 18.0097 160.342 16.115 160.342 23.6439V25.4289C160.342 28.1613 158.307 29.1685 156.074 29.1685C153.84 29.1685 151.806 28.1613 151.806 25.4289V20.7221H155.435V24.7708C155.435 25.3492 155.515 26.117 156.074 26.117C156.632 26.117 156.712 25.3392 156.712 24.7708C156.632 18.1892 151.666 18.9072 151.666 14.2004V11.6475C151.666 8.91518 153.7 7.91797 155.934 7.91797C158.168 7.91797 160.212 8.92515 160.212 11.6475V15.6164H156.582V15.5965Z" fill="#FB00B1"/>
<path d="M165.426 20.762L168.796 8.29688H173.842V20.762H174.999V23.6339H173.842V28.7496H170.342V23.6339H165.426V20.762ZM168.258 20.762H170.342V11.0193H170.292L168.258 20.762Z" fill="#FB00B1"/>
</g>
<defs>
<clipPath id="clip0_4656_1183">
<rect width="175" height="40.1775" fill="white"/>
</clipPath>
</defs>
</svg>
