<svg width="172" height="17" viewBox="0 0 172 17" fill="none" xmlns="http://www.w3.org/2000/svg">
<path d="M18.8053 0.0913086L14.7538 12.6027L11.8489 0.0913086H9.7849L6.88 12.6027L2.82845 0.0913086H0L5.75883 16.9091H8.1286L10.8042 5.64627L13.5052 16.9091H15.875L21.6338 0.0913086H18.8053Z" fill="#FB00B1"/>
<path d="M36.4391 0.0913086V7.35353H28.7437V0.0913086H26.1191V16.9091H28.7437V9.72331H36.4391V16.9091H39.1147V0.0913086H36.4391Z" fill="#FB00B1"/>
<path d="M48.2105 0.0913086H45.5859V16.9091H48.2105V0.0913086Z" fill="#FB00B1"/>
<path d="M53.002 0.0913086V2.51205H58.0218V16.9091H60.6974V2.51205H65.6917V0.0913086H53.002Z" fill="#FB00B1"/>
<path d="M69.8691 0.0913086V16.9091H80.393V14.5393H72.4937V9.82524H79.1699V7.45546H72.4937V2.48657H80.1382V0.0913086H69.8691Z" fill="#FB00B1"/>
<path d="M95.6328 0.0913086V16.9091H105.061V14.5393H98.2574V0.0913086H95.6328Z" fill="#FB00B1"/>
<path d="M116.374 3.32746L118.922 10.3858H113.826L116.374 3.32746ZM114.947 0.0913086L108.525 16.9091H111.328L112.959 12.7046H119.839L121.47 16.9091H124.247L117.826 0.0913086H114.947Z" fill="#FB00B1"/>
<path d="M137.776 7.9396C139.789 8.37279 140.885 10.3603 140.885 11.9657C140.885 14.6157 138.974 16.9091 135.763 16.9091H128.73V0.0913086H135.254C138.133 0.0913086 139.968 1.79857 139.968 4.52509C139.968 5.85013 139.433 7.32805 137.776 7.9396ZM135.152 6.99679C136.528 6.99679 137.241 5.90108 137.241 4.62701C137.241 3.25101 136.375 2.46108 134.973 2.46108H131.355V6.99679H135.152ZM131.381 9.21368V14.5393H135.661C137.241 14.5393 138.159 13.2398 138.159 11.9402C138.159 10.6916 137.216 9.21368 135.585 9.21368H131.381Z" fill="#FB00B1"/>
<path d="M146.389 0.0913086H156.658V2.48657H149.013V7.45546H155.689V9.82524H149.013V14.5393H156.887V16.9091H146.389V0.0913086Z" fill="#FB00B1"/>
<path d="M162.57 0.0913086H165.169V14.5393H171.998V16.9091H162.57V0.0913086Z" fill="#FB00B1"/>
</svg>
